{"glyphs":{"0":{"ha":847,"x_min":0,"x_max":0,"o":"m 510 1008 b 642 981 562 1008 606 999 b 731 908 679 963 709 939 b 781 799 754 877 771 841 b 797 669 792 758 797 715 b 788 519 797 622 794 572 b 758 363 782 467 772 415 b 704 216 744 312 726 263 b 623 92 682 169 655 128 b 511 7 591 57 554 28 b 365 -25 469 -14 420 -25 b 232 1 313 -25 269 -16 b 141 72 195 19 165 43 b 89 177 117 102 100 137 b 72 307 78 217 72 261 b 82 459 72 355 75 406 b 113 617 88 512 99 565 b 169 765 128 669 146 718 b 253 890 193 813 220 854 b 365 976 285 926 323 955 b 510 1008 408 998 456 1008 m 496 871 b 392 824 458 871 423 855 b 311 702 360 793 333 753 b 259 531 289 652 272 594 b 240 338 247 467 240 402 b 247 251 240 307 243 278 b 270 181 252 225 259 201 b 313 133 281 160 295 144 b 376 115 330 121 351 115 b 478 162 413 115 447 131 b 557 283 508 193 535 233 b 608 454 579 333 596 390 b 626 649 620 518 626 583 b 620 735 626 679 624 708 b 599 806 616 762 609 785 b 558 853 588 826 575 842 b 496 871 542 865 521 871 "},"1":{"ha":847,"x_min":0,"x_max":0,"o":"m 451 785 l 229 625 l 151 750 l 492 983 l 650 983 l 476 0 l 313 0 "},"2":{"ha":847,"x_min":0,"x_max":0,"o":"m 672 0 l 19 0 l 46 150 l 485 518 b 597 636 538 563 576 603 b 629 738 619 669 629 703 b 592 835 629 779 617 812 b 483 869 567 858 531 869 b 368 828 439 869 400 856 b 296 713 336 801 312 763 l 146 756 b 285 945 176 840 223 903 b 494 1008 348 987 418 1008 b 623 989 543 1008 585 1002 b 718 935 660 976 692 958 b 778 853 744 913 764 885 b 799 750 792 822 799 787 b 783 649 799 713 794 679 b 738 564 773 619 758 591 b 666 484 718 537 694 510 b 569 400 638 458 606 430 l 265 150 l 699 150 "},"3":{"ha":847,"x_min":0,"x_max":0,"o":"m 368 578 b 542 625 449 578 506 594 b 594 751 577 656 594 699 b 559 838 594 786 583 814 b 461 872 535 861 503 872 b 356 843 419 872 383 863 b 285 761 328 824 304 796 l 163 835 b 294 966 196 894 240 938 b 475 1008 348 994 408 1008 b 584 991 514 1008 550 1003 b 674 942 618 979 648 963 b 735 863 700 920 720 894 b 757 757 750 831 757 796 b 740 660 757 720 751 688 b 694 588 728 632 713 608 b 631 540 676 568 655 552 b 558 513 608 527 583 518 l 558 510 b 676 435 607 499 647 474 b 719 303 705 397 719 353 b 692 164 719 251 710 205 b 615 61 673 123 648 89 b 499 -3 583 33 544 12 b 353 -25 454 -18 406 -25 b 149 32 271 -25 203 -6 b 35 192 94 70 56 123 l 189 240 b 249 148 199 200 219 169 b 363 117 279 127 317 117 b 502 163 424 117 470 132 b 550 286 534 194 550 235 b 532 362 550 316 544 341 b 485 412 520 383 504 399 b 417 439 465 424 443 433 b 340 447 392 444 366 447 l 299 447 l 321 578 l 368 578 l 368 578 "},"4":{"ha":847,"x_min":0,"x_max":0,"o":"m 575 0 l 417 0 l 451 206 l -7 206 l 19 357 l 535 983 l 743 983 l 631 346 l 769 346 l 744 206 l 610 206 m 551 810 l 186 346 l 474 346 l 557 810 "},"5":{"ha":847,"x_min":0,"x_max":0,"o":"m 317 622 b 365 631 330 626 346 629 b 421 635 385 634 403 635 b 526 619 455 635 490 629 b 623 569 561 608 594 591 b 694 479 652 546 676 516 b 722 344 713 442 722 397 b 691 181 722 281 712 227 b 608 65 670 134 642 96 b 490 -3 573 35 534 12 b 354 -25 446 -18 400 -25 b 239 -10 313 -25 274 -20 b 144 33 204 0 172 15 b 72 95 116 51 91 72 b 28 172 52 119 37 144 l 176 233 b 240 149 188 198 209 170 b 349 117 270 127 306 117 b 437 133 382 117 411 122 b 501 176 462 143 484 158 b 540 243 518 195 531 217 b 554 326 550 269 554 297 b 538 406 554 357 549 383 b 494 460 526 428 512 446 b 432 491 476 474 455 484 b 360 501 409 498 385 501 b 248 485 325 501 287 496 b 139 442 209 475 172 460 l 246 983 l 771 983 l 742 838 l 364 838 l 317 622 "},"6":{"ha":847,"x_min":0,"x_max":0,"o":"m 194 274 b 208 206 194 249 199 226 b 246 156 218 186 230 169 b 300 124 262 142 280 131 b 364 113 320 116 342 113 b 517 172 429 113 480 132 b 574 331 555 212 574 265 b 560 400 574 356 569 380 b 524 451 550 420 538 438 b 472 483 509 465 492 476 b 413 493 453 490 433 493 b 322 476 379 493 349 488 b 253 430 294 465 271 450 b 210 360 234 410 220 387 b 194 274 200 333 194 304 m 375 608 b 406 615 383 611 394 613 b 442 618 419 617 431 618 b 569 596 490 618 532 611 b 663 535 606 581 638 561 b 719 447 688 510 706 481 b 739 342 732 414 739 379 b 713 201 739 293 730 246 b 639 85 696 157 671 118 b 519 5 606 51 567 25 b 357 -25 472 -15 418 -25 b 226 -4 310 -25 266 -18 b 123 55 187 10 152 29 b 54 149 94 80 71 112 b 29 274 38 186 29 227 b 62 422 29 323 40 372 b 169 589 84 472 119 528 l 492 983 l 690 983 l 374 611 l 375 608 "},"7":{"ha":847,"x_min":0,"x_max":0,"o":"m 42 0 l 629 836 l 157 836 l 182 983 l 835 983 l 808 833 l 246 0 "},"8":{"ha":847,"x_min":0,"x_max":0,"o":"m 229 263 b 242 194 229 236 234 213 b 277 149 251 176 263 161 b 326 122 291 137 308 128 b 383 114 345 117 364 114 b 530 167 447 114 496 132 b 581 300 564 203 581 247 b 538 408 581 346 566 382 b 429 447 510 434 474 447 b 348 433 400 447 372 443 b 285 395 323 424 302 411 b 244 337 267 379 253 359 b 229 263 234 314 229 289 m 593 506 b 697 430 635 492 669 466 b 739 300 725 393 739 350 b 711 167 739 251 730 206 b 635 64 693 127 667 93 b 519 -2 602 35 564 13 b 372 -25 474 -17 425 -25 b 269 -12 339 -25 304 -21 b 172 33 233 -3 201 12 b 99 117 142 55 118 82 b 71 246 80 151 71 194 b 90 349 71 283 77 317 b 141 434 102 381 119 409 b 216 495 163 459 188 479 b 304 528 244 511 274 522 l 304 532 b 221 605 271 549 243 573 b 188 717 199 637 188 674 b 215 847 188 767 197 810 b 288 938 234 883 258 913 b 392 991 318 962 353 979 b 511 1008 431 1003 470 1008 b 613 994 545 1008 579 1004 b 701 951 646 985 675 971 b 764 875 727 931 748 906 b 788 767 780 844 788 808 b 770 667 788 729 782 695 b 724 592 759 638 743 613 b 660 541 705 572 684 554 b 590 510 637 528 613 517 l 593 506 m 340 713 b 376 624 340 675 352 646 b 469 590 399 601 431 590 b 531 601 491 590 511 594 b 583 631 551 608 569 618 b 619 679 598 644 610 660 b 632 746 628 699 632 721 b 594 836 632 785 619 815 b 497 868 568 857 536 868 b 383 824 449 868 411 853 b 340 713 354 794 340 757 "},"9":{"ha":847,"x_min":0,"x_max":0,"o":"m 661 710 b 647 777 661 735 656 757 b 610 828 638 797 625 814 b 556 860 594 842 576 852 b 492 871 535 867 514 871 b 338 811 427 871 376 851 b 282 653 301 771 282 719 b 296 583 282 627 287 604 b 332 532 305 563 317 546 b 383 501 347 518 364 508 b 443 490 403 494 423 490 b 534 507 476 490 507 496 b 603 553 561 518 584 534 b 646 624 621 573 636 597 b 661 710 656 650 661 679 m 481 375 b 449 368 472 372 462 370 b 414 365 437 366 425 365 b 286 388 366 365 323 373 b 193 448 249 402 218 422 b 136 536 168 473 149 503 b 117 642 123 569 117 605 b 142 782 117 691 125 738 b 217 899 159 826 184 865 b 336 978 249 932 289 959 b 499 1008 383 998 438 1008 b 629 988 546 1008 589 1001 b 733 928 669 974 703 954 b 801 835 762 903 785 872 b 826 710 818 798 826 756 b 794 561 826 661 816 611 b 686 394 772 511 736 456 l 364 0 l 165 0 l 482 372 l 481 375 "},"\u0000":{"ha":694,"x_min":0,"x_max":0,"o":""},"\r":{"ha":0,"x_min":0,"x_max":0,"o":""}," ":{"ha":347,"x_min":0,"x_max":0,"o":""},"!":{"ha":410,"x_min":0,"x_max":0,"o":"m 222 983 l 385 983 l 265 307 l 103 307 m 258 100 b 228 26 258 71 248 47 b 156 -6 209 5 184 -6 b 84 20 128 -6 104 3 b 54 94 64 37 54 62 b 86 170 54 125 65 150 b 160 200 107 190 132 200 b 230 173 188 200 211 191 b 258 100 249 155 258 131 "},"\"":{"ha":625,"x_min":0,"x_max":0,"o":"m 449 983 l 588 983 l 524 618 l 385 618 m 206 983 l 344 983 l 279 618 l 140 618 "},"#":{"ha":819,"x_min":0,"x_max":0,"o":"m 586 406 l 711 406 l 692 290 l 553 290 l 458 0 l 339 0 l 432 290 l 286 290 l 193 0 l 74 0 l 167 290 l 40 290 l 61 406 l 201 406 l 257 578 l 132 578 l 151 693 l 293 693 l 386 983 l 506 983 l 414 693 l 558 693 l 651 983 l 771 983 l 678 693 l 803 693 l 782 578 l 640 578 m 322 406 l 467 406 l 522 578 l 376 578 "},"$":{"ha":847,"x_min":0,"x_max":0,"o":"m 472 858 b 367 819 431 856 396 842 b 325 715 339 795 325 761 b 350 641 325 685 333 660 b 426 594 367 622 392 606 l 472 858 m 413 126 b 526 172 460 129 497 144 b 568 279 554 199 568 235 b 541 364 568 315 559 344 b 465 414 523 384 498 401 l 413 126 m 585 1100 l 567 999 b 709 963 620 994 668 982 b 807 885 750 943 783 917 l 683 786 b 626 838 668 806 648 824 b 543 860 603 851 575 859 l 492 572 b 597 523 531 556 566 540 b 672 465 627 506 652 487 b 719 392 693 444 708 420 b 735 297 729 365 735 333 b 711 179 735 255 727 215 b 642 84 695 143 672 111 b 533 17 612 57 576 34 b 389 -14 491 0 443 -10 l 371 -117 l 301 -117 l 319 -14 b 153 26 261 -11 206 2 b 29 138 100 50 59 88 l 163 232 b 239 157 180 202 206 177 b 344 126 272 137 307 126 l 399 439 b 310 474 368 448 338 460 b 235 527 281 489 256 506 b 183 599 213 548 196 572 b 164 694 170 627 164 658 b 187 813 164 737 172 777 b 253 908 202 850 224 881 b 358 973 281 935 316 957 b 497 1000 399 989 445 998 l 515 1100 "},"%":{"ha":1254,"x_min":0,"x_max":0,"o":"m 324 492 b 233 508 291 492 261 497 b 162 554 206 519 182 535 b 115 623 142 574 126 597 b 99 708 104 649 99 678 b 120 822 99 749 106 787 b 181 915 134 857 155 888 b 272 977 206 941 237 962 b 386 1000 306 992 344 1000 b 477 984 419 1000 450 995 b 547 940 504 973 528 959 b 592 872 567 921 582 898 b 608 786 603 845 608 817 b 587 670 608 744 601 706 b 528 577 572 634 553 603 b 438 515 503 551 473 530 b 324 492 403 499 365 492 m 475 767 b 448 844 475 796 466 822 b 372 876 430 866 405 876 b 271 833 331 876 297 862 b 232 725 245 805 232 769 b 259 648 232 695 241 670 b 333 615 277 626 302 615 b 437 658 377 615 411 630 b 475 767 462 687 475 723 m 892 -15 b 801 1 859 -15 829 -10 b 730 47 774 13 750 28 b 683 116 710 67 694 90 b 667 201 672 142 667 171 b 688 315 667 242 674 280 b 749 408 703 350 723 381 b 840 470 775 434 805 455 b 954 493 874 485 913 493 b 1045 477 988 493 1018 488 b 1115 433 1072 466 1096 452 b 1160 365 1135 414 1150 391 b 1176 279 1171 338 1176 310 b 1155 163 1176 238 1169 199 b 1096 70 1141 128 1121 97 b 1006 8 1071 44 1041 23 b 892 -15 972 -8 933 -15 m 1043 260 b 1016 337 1043 289 1034 315 b 940 369 998 359 973 369 b 839 326 899 369 865 355 b 800 218 813 298 800 262 b 827 141 800 188 809 163 b 901 108 845 119 870 108 b 1005 151 945 108 979 123 b 1043 260 1030 180 1043 216 m 215 8 l 975 1028 l 1061 974 l 301 -46 "},"&":{"ha":1026,"x_min":0,"x_max":0,"o":"m 382 446 b 313 417 358 438 335 428 b 257 378 291 406 273 393 b 219 326 241 363 229 346 b 206 258 210 306 206 283 b 217 204 206 239 209 221 b 249 162 225 188 236 173 b 297 135 263 150 278 141 b 354 125 315 128 334 125 b 463 154 395 125 431 135 b 554 236 495 174 525 201 l 382 446 m 614 775 b 588 849 614 806 605 830 b 514 876 570 867 545 876 b 424 840 477 876 447 864 b 390 750 402 816 390 786 b 407 674 390 726 396 701 b 446 610 418 648 431 626 b 511 640 469 618 491 628 b 565 678 531 651 549 664 b 601 723 580 692 592 707 b 614 775 609 739 614 756 m 771 519 l 968 519 l 749 240 l 953 0 l 750 0 l 653 124 b 496 12 599 70 547 33 b 340 -19 445 -9 393 -19 b 218 -3 296 -19 255 -14 b 122 47 181 8 149 25 b 59 130 95 69 74 97 b 36 244 44 163 36 201 b 57 351 36 283 43 319 b 113 438 71 384 90 413 b 197 505 137 464 165 486 b 300 554 230 524 264 540 b 255 642 281 581 266 610 b 238 742 243 673 238 706 b 259 852 238 782 245 819 b 317 936 273 885 293 913 b 404 990 342 959 371 977 b 511 1008 438 1002 473 1008 b 613 993 547 1008 581 1003 b 694 949 644 983 671 968 b 748 878 716 929 734 906 b 768 782 761 850 768 818 b 701 624 768 720 746 667 b 521 508 657 580 597 542 l 651 350 "},"'":{"ha":381,"x_min":0,"x_max":0,"o":"m 204 983 l 343 983 l 279 618 l 140 618 "},"(":{"ha":444,"x_min":0,"x_max":0,"o":"m 140 -215 b 59 -2 105 -151 78 -80 b 31 243 40 76 31 158 b 110 635 31 375 57 505 b 357 1017 163 766 245 893 l 458 942 b 331 772 409 887 367 831 b 242 595 296 714 266 655 b 190 417 219 535 201 476 b 172 244 178 357 172 300 b 197 35 172 175 180 105 b 265 -156 213 -34 236 -98 l 140 -215 "},")":{"ha":444,"x_min":0,"x_max":0,"o":"m 294 1018 b 376 805 330 954 357 883 b 404 560 395 727 404 645 b 325 167 404 428 378 297 b 78 -214 272 37 190 -90 l -24 -139 b 103 30 25 -85 67 -29 b 192 208 139 89 169 148 b 245 386 216 267 234 327 b 263 558 257 445 263 503 b 238 767 263 628 254 697 b 169 958 222 837 199 901 l 294 1018 "},"*":{"ha":642,"x_min":0,"x_max":0,"o":"m 624 844 l 658 740 l 465 678 l 586 513 l 496 447 l 375 614 l 257 451 l 169 517 l 290 678 l 96 744 l 131 849 l 324 782 l 324 983 l 433 983 l 433 782 "},"+":{"ha":925,"x_min":0,"x_max":0,"o":"m 392 797 l 533 797 l 533 492 l 839 492 l 839 350 l 533 350 l 533 44 l 392 44 l 392 350 l 86 350 l 86 492 l 392 492 "},",":{"ha":361,"x_min":0,"x_max":0,"o":"m -71 -176 l 90 189 l 249 189 l 67 -176 "},"-":{"ha":444,"x_min":0,"x_max":0,"o":"m 54 411 l 386 411 l 361 272 l 29 272 "},".":{"ha":361,"x_min":0,"x_max":0,"o":"m 221 100 b 191 26 221 71 211 47 b 118 -6 171 5 147 -6 b 47 20 90 -6 66 3 b 17 94 27 37 17 62 b 49 170 17 125 27 150 b 122 200 70 190 94 200 b 192 173 150 200 173 191 b 221 100 211 155 221 131 "},"/":{"ha":539,"x_min":0,"x_max":0,"o":"m -90 -24 l 532 1050 l 638 1007 l 15 -65 "},":":{"ha":417,"x_min":0,"x_max":0,"o":"m 253 100 b 223 26 253 71 243 47 b 150 -6 203 5 179 -6 b 78 20 122 -6 98 3 b 49 94 59 37 49 62 b 81 170 49 125 59 150 b 154 200 102 190 126 200 b 224 173 182 200 205 191 b 253 100 243 155 253 131 m 332 574 b 302 499 332 545 322 520 b 229 468 282 478 258 468 b 158 494 201 468 178 477 b 128 568 138 511 128 536 b 160 644 128 599 138 624 b 233 674 181 664 206 674 b 303 647 261 674 284 665 b 332 574 322 628 332 604 "},";":{"ha":417,"x_min":0,"x_max":0,"o":"m -51 -176 l 110 189 l 275 189 l 93 -176 m 332 574 b 302 499 332 545 322 520 b 229 468 282 478 258 468 b 158 494 201 468 178 477 b 128 568 138 511 128 536 b 160 644 128 599 138 624 b 233 674 181 664 206 674 b 303 647 261 674 284 665 b 332 574 322 628 332 604 "},"<":{"ha":925,"x_min":0,"x_max":0,"o":"m 111 471 l 814 783 l 814 631 l 344 421 l 814 211 l 814 58 l 111 371 "},"=":{"ha":925,"x_min":0,"x_max":0,"o":"m 814 475 l 111 475 l 111 617 l 814 617 m 814 225 l 111 225 l 111 367 l 814 367 "},">":{"ha":925,"x_min":0,"x_max":0,"o":"m 814 371 l 111 58 l 111 211 l 581 421 l 111 631 l 111 783 l 814 471 "},"?":{"ha":718,"x_min":0,"x_max":0,"o":"m 558 493 b 504 453 537 478 519 465 b 467 417 489 442 477 430 b 444 377 458 405 450 391 b 432 325 439 363 435 345 l 426 289 l 267 289 l 275 343 b 290 403 279 365 284 385 b 314 454 296 422 304 438 b 351 500 324 470 337 485 b 404 547 366 515 384 531 l 476 604 b 508 631 487 613 497 621 b 538 662 519 640 529 650 b 560 701 547 673 554 686 b 569 749 566 715 569 731 b 446 860 569 823 528 860 b 385 848 424 860 403 856 b 337 816 366 840 350 829 b 303 769 323 803 312 787 b 283 714 294 752 287 733 l 126 740 b 167 844 135 777 148 812 b 240 930 186 877 210 905 b 340 988 269 954 302 974 b 465 1008 378 1001 420 1008 b 569 995 501 1008 536 1004 b 658 953 603 986 632 972 b 718 876 683 933 703 908 b 740 761 733 845 740 806 b 728 683 740 732 736 706 b 694 615 721 659 709 637 b 637 553 678 594 659 573 b 558 493 614 534 588 513 m 429 100 b 399 26 429 71 419 47 b 326 -6 379 5 355 -6 b 255 20 299 -6 275 3 b 225 94 235 37 225 62 b 257 170 225 125 236 150 b 331 200 278 190 303 200 b 401 173 358 200 382 191 b 429 100 420 155 429 131 "},"@":{"ha":1111,"x_min":0,"x_max":0,"o":"m 757 222 b 672 249 719 222 691 231 b 650 315 654 266 646 288 l 644 315 b 576 251 629 292 606 271 b 471 222 547 232 512 222 b 344 265 417 222 375 237 b 297 386 313 294 297 334 b 321 515 297 428 305 471 b 388 637 337 560 359 600 b 490 727 416 673 450 703 b 618 763 529 751 572 763 b 708 740 653 763 683 755 b 751 686 733 725 748 707 l 753 686 l 774 742 l 896 742 l 794 479 b 776 428 790 466 784 449 b 765 376 769 408 765 390 b 772 344 765 361 768 350 b 803 335 777 338 787 335 b 869 358 826 335 848 342 b 924 420 890 373 908 394 b 960 511 939 447 952 477 b 974 619 969 545 974 581 b 949 738 974 664 966 703 b 882 824 933 772 911 801 b 779 878 853 848 819 866 b 649 897 739 891 696 897 b 453 857 575 897 510 884 b 306 749 395 830 347 794 b 214 594 266 704 235 653 b 182 414 193 536 182 476 b 208 275 182 362 191 316 b 281 172 225 234 249 200 b 397 108 313 144 352 123 b 549 86 443 94 493 86 b 732 120 616 86 677 97 b 885 214 787 143 838 174 l 944 132 b 760 16 894 82 832 43 b 531 -25 689 -11 612 -25 b 324 6 453 -25 384 -15 b 172 94 263 27 213 56 b 78 231 130 132 99 178 b 46 406 56 283 46 342 b 91 636 46 486 61 563 b 216 828 121 709 163 773 b 406 960 269 884 333 927 b 647 1008 480 992 560 1008 b 835 982 717 1008 779 1000 b 978 906 891 964 939 939 b 1068 785 1017 873 1047 833 b 1100 624 1089 738 1100 684 b 1072 461 1100 564 1091 510 b 997 334 1054 412 1029 370 b 888 251 966 298 929 271 b 757 222 846 232 802 222 m 686 563 b 670 625 686 588 681 608 b 607 650 659 642 638 650 b 546 629 587 650 566 643 b 490 575 525 615 507 597 b 450 500 474 553 460 528 b 435 417 440 472 435 444 b 451 361 435 396 440 378 b 511 336 461 344 481 336 b 579 358 535 336 558 344 b 635 414 600 373 619 392 b 672 487 650 436 663 460 b 686 563 681 513 686 538 "},"A":{"ha":928,"x_min":0,"x_max":0,"o":"m 643 226 l 222 226 l 82 0 l -121 0 l 521 983 l 669 983 l 865 0 l 683 0 m 306 374 l 619 374 l 554 786 "},"B":{"ha":897,"x_min":0,"x_max":0,"o":"m 550 983 b 652 972 584 983 618 980 b 744 935 686 965 716 953 b 810 869 771 918 793 896 b 836 768 828 841 836 808 b 776 605 836 702 816 648 b 619 517 737 562 684 532 l 619 514 b 751 447 673 506 717 483 b 803 304 786 410 803 363 b 772 172 803 254 792 210 b 685 77 751 134 722 103 b 552 19 648 52 603 32 b 383 0 501 6 444 0 l 35 0 l 208 983 l 550 983 m 304 579 l 482 579 b 544 587 501 579 522 582 b 603 613 566 592 585 600 b 648 660 622 625 636 640 b 665 731 659 679 665 703 b 620 817 665 771 650 800 b 507 842 590 833 552 842 l 351 842 m 228 144 l 399 144 b 486 153 429 144 458 147 b 560 182 514 159 539 169 b 612 234 582 195 599 212 b 631 313 624 256 631 282 b 588 403 631 351 616 382 b 464 436 559 425 518 436 l 278 436 "},"C":{"ha":946,"x_min":0,"x_max":0,"o":"m 896 154 b 828 84 876 129 854 106 b 740 27 802 62 773 43 b 633 -11 708 11 672 -2 b 506 -25 594 -20 552 -25 b 326 6 440 -25 380 -15 b 188 92 273 26 227 55 b 99 225 150 129 120 173 b 67 397 77 277 67 334 b 111 636 67 482 81 562 b 234 830 141 710 182 775 b 418 960 286 885 348 928 b 646 1008 488 992 564 1008 b 751 997 682 1008 717 1005 b 845 967 784 990 816 980 b 924 919 874 954 900 938 b 981 858 947 901 966 881 l 846 757 b 817 792 838 768 829 780 b 772 826 805 805 790 816 b 713 851 755 837 735 845 b 640 861 691 858 667 861 b 480 824 582 861 528 849 b 355 724 431 799 390 765 b 274 582 320 682 293 635 b 244 419 254 529 244 475 b 263 305 244 379 251 341 b 317 212 276 269 294 238 b 406 149 341 185 370 164 b 526 125 441 133 481 125 b 667 156 575 125 622 135 b 786 251 711 176 751 208 l 896 154 "},"D":{"ha":1051,"x_min":0,"x_max":0,"o":"m 544 983 b 710 960 600 983 655 976 b 857 888 764 945 813 921 b 963 760 900 855 936 813 b 1003 572 989 708 1003 645 b 958 338 1003 486 988 408 b 832 157 928 267 886 207 b 642 41 778 107 715 68 b 403 0 569 14 489 0 l 35 0 l 208 983 m 410 150 b 590 183 478 150 538 161 b 720 273 642 206 685 235 b 799 401 755 310 781 353 b 825 550 816 448 825 498 b 806 661 825 589 819 626 b 747 753 793 696 773 727 b 647 815 720 779 687 799 b 503 838 606 830 558 838 l 351 838 l 231 150 "},"E":{"ha":811,"x_min":0,"x_max":0,"o":"m 208 983 l 828 983 l 801 833 l 349 833 l 304 579 l 736 579 l 710 435 l 279 435 l 229 153 l 721 153 l 694 0 l 35 0 "},"F":{"ha":772,"x_min":0,"x_max":0,"o":"m 304 561 l 715 561 l 690 417 l 279 417 l 206 0 l 35 0 l 208 983 l 817 983 l 790 833 l 353 833 "},"G":{"ha":1028,"x_min":0,"x_max":0,"o":"m 546 125 b 642 135 582 126 614 129 b 725 163 671 140 698 150 l 768 413 l 557 413 l 585 561 l 961 561 l 874 53 b 708 -4 825 29 769 10 b 521 -25 646 -18 584 -25 b 334 6 452 -25 390 -15 b 191 92 278 26 230 55 b 99 225 152 129 121 173 b 67 397 78 277 67 334 b 111 636 67 482 81 562 b 234 830 141 710 182 775 b 418 960 286 885 348 928 b 646 1008 488 992 564 1008 b 847 972 718 1008 785 996 b 994 858 908 947 957 909 l 860 757 b 774 831 838 787 810 811 b 640 861 739 851 694 861 b 480 824 582 861 528 849 b 355 724 431 799 390 765 b 274 582 320 682 293 635 b 244 419 254 529 244 475 b 265 301 244 377 251 337 b 324 208 278 265 298 234 b 419 147 350 182 381 162 b 546 125 456 132 499 125 "},"H":{"ha":1013,"x_min":0,"x_max":0,"o":"m 733 438 l 283 438 l 206 0 l 35 0 l 208 983 l 379 983 l 308 585 l 760 585 l 831 983 l 1001 983 l 828 0 l 657 0 "},"I":{"ha":404,"x_min":0,"x_max":0,"o":"m 208 983 l 379 983 l 206 0 l 35 0 "},"J":{"ha":694,"x_min":0,"x_max":0,"o":"m 571 317 b 542 199 564 279 555 240 b 487 89 530 159 511 122 b 391 7 462 56 430 28 b 242 -25 352 -14 302 -25 b 51 35 163 -25 100 -5 b -33 190 3 75 -25 126 l 126 236 b 161 158 130 206 142 180 b 238 126 181 137 206 126 b 306 141 264 126 287 131 b 352 182 324 151 340 164 b 382 244 365 200 375 220 b 400 322 389 269 395 294 l 517 983 l 689 983 l 571 317 l 571 317 "},"K":{"ha":897,"x_min":0,"x_max":0,"o":"m 294 494 l 290 494 l 204 0 l 35 0 l 208 983 l 378 983 l 300 547 l 304 547 l 747 983 l 978 983 l 468 519 l 850 0 l 626 0 "},"L":{"ha":710,"x_min":0,"x_max":0,"o":"m 208 983 l 379 983 l 232 153 l 653 153 l 626 0 l 35 0 "},"M":{"ha":1278,"x_min":0,"x_max":0,"o":"m 1067 793 l 1063 793 l 619 0 l 500 0 l 340 793 l 338 793 l 197 0 l 35 0 l 208 983 l 475 983 l 608 279 l 611 279 l 996 983 l 1267 983 l 1094 0 l 925 0 "},"N":{"ha":1094,"x_min":0,"x_max":0,"o":"m 343 764 l 340 764 l 206 0 l 35 0 l 208 983 l 431 983 l 747 243 l 750 243 l 881 983 l 1051 983 l 878 0 l 665 0 "},"O":{"ha":1151,"x_min":0,"x_max":0,"o":"m 638 1008 b 828 978 708 1008 772 998 b 975 894 885 959 934 930 b 1069 760 1016 857 1047 813 b 1103 582 1092 707 1103 648 b 1060 346 1103 499 1089 420 b 943 153 1032 272 993 207 b 765 23 893 98 834 55 b 540 -25 697 -9 622 -25 b 344 4 468 -25 403 -15 b 195 89 286 24 236 52 b 100 224 154 126 122 171 b 67 401 78 276 67 336 b 110 638 67 485 81 563 b 231 831 140 712 180 776 b 411 960 281 885 342 928 b 638 1008 481 992 556 1008 m 540 125 b 705 163 602 125 657 138 b 826 263 753 188 793 221 b 901 404 859 304 884 351 b 926 567 918 457 926 511 b 907 681 926 606 920 644 b 850 774 894 717 875 748 b 757 838 825 801 794 822 b 629 861 720 853 677 861 b 469 824 570 861 516 849 b 347 724 421 799 381 765 b 270 582 314 682 288 635 b 243 419 252 529 243 475 b 263 305 243 379 250 341 b 319 212 275 269 294 238 b 413 149 344 185 375 164 b 540 125 450 133 492 125 "},"P":{"ha":846,"x_min":0,"x_max":0,"o":"m 504 983 b 753 915 613 983 695 961 b 839 725 810 870 839 806 b 809 582 839 669 829 622 b 724 483 789 542 761 509 b 593 426 688 457 644 438 b 425 408 542 414 486 408 l 276 408 l 204 0 l 35 0 l 208 983 l 504 983 m 432 553 b 527 560 466 553 498 555 b 601 586 556 566 581 574 b 649 633 622 598 638 614 b 667 707 661 653 667 677 b 653 772 667 733 662 754 b 614 812 644 789 631 802 b 554 833 597 822 577 828 b 478 839 531 837 506 839 l 353 839 l 301 553 l 432 553 "},"Q":{"ha":1138,"x_min":0,"x_max":0,"o":"m 1078 596 b 1054 417 1078 527 1070 468 b 995 288 1038 367 1019 324 b 919 198 972 251 946 222 b 846 142 893 174 868 156 l 846 139 l 1085 139 l 1060 0 l 518 0 b 335 29 451 0 390 10 b 192 113 279 49 231 76 b 99 244 152 149 121 192 b 67 417 78 295 67 353 b 110 649 67 499 81 576 b 228 837 138 721 178 784 b 406 963 279 890 338 932 b 626 1008 474 993 548 1008 b 810 980 694 1008 755 999 b 953 898 866 961 913 934 b 1045 768 993 862 1023 819 b 1078 596 1067 717 1078 660 m 903 578 b 885 689 903 618 897 655 b 831 778 873 723 855 753 b 744 839 808 804 778 824 b 625 861 709 854 669 861 b 467 825 567 861 514 849 b 346 729 419 801 379 769 b 269 592 313 689 287 644 b 242 435 251 541 242 488 b 260 324 242 396 248 359 b 315 233 273 290 291 259 b 403 172 338 207 368 187 b 522 150 438 157 478 150 b 676 186 578 150 629 162 b 797 282 722 210 763 242 b 875 419 830 322 856 367 b 903 578 894 470 903 523 "},"R":{"ha":867,"x_min":0,"x_max":0,"o":"m 592 0 l 406 419 l 275 419 l 203 0 l 35 0 l 208 983 l 500 983 b 751 916 608 983 692 961 b 839 729 809 871 839 809 b 769 538 839 650 816 587 b 581 439 722 490 659 456 l 785 0 m 428 560 b 601 596 503 560 561 572 b 663 711 642 620 663 658 b 611 811 663 759 645 793 b 474 839 577 830 531 839 l 350 839 l 300 560 l 428 560 "},"S":{"ha":797,"x_min":0,"x_max":0,"o":"m 654 781 b 581 846 636 810 611 832 b 483 867 551 860 519 867 b 425 858 466 867 446 864 b 366 833 404 853 384 844 b 321 786 348 821 333 806 b 303 715 309 767 303 743 b 340 633 303 680 315 653 b 439 581 364 614 397 596 b 638 467 525 549 591 511 b 707 289 684 423 707 364 b 674 144 707 232 696 184 b 586 47 651 105 622 72 b 464 -8 550 22 509 4 b 326 -25 419 -19 373 -25 b 228 -15 294 -25 261 -22 b 135 14 196 -9 164 1 b 52 63 105 27 78 43 b -12 135 27 83 5 107 l 126 231 b 210 151 145 198 173 172 b 335 119 248 130 289 119 b 403 128 358 119 381 122 b 465 155 426 133 447 142 b 509 203 483 167 497 184 b 526 278 521 223 526 248 b 512 337 526 300 522 320 b 473 382 502 354 489 369 b 417 417 457 395 438 406 b 349 444 395 427 373 436 b 265 482 319 456 291 468 b 194 533 238 496 215 513 b 147 604 174 553 158 576 b 129 703 135 632 129 665 b 160 833 129 752 140 795 b 243 929 181 871 209 903 b 362 988 277 955 317 975 b 501 1008 407 1002 453 1008 b 578 1000 526 1008 552 1006 b 655 976 605 994 630 986 b 724 936 679 965 703 952 b 779 881 746 920 764 902 l 654 781 "},"T":{"ha":740,"x_min":0,"x_max":0,"o":"m 381 0 l 210 0 l 356 833 l 64 833 l 90 983 l 843 983 l 817 833 l 528 833 "},"U":{"ha":992,"x_min":0,"x_max":0,"o":"m 879 361 b 830 202 869 303 853 250 b 743 81 807 154 778 114 b 617 3 708 47 666 21 b 449 -25 568 -16 512 -25 b 296 -3 392 -25 341 -18 b 181 58 250 11 212 31 b 108 155 149 85 125 117 b 83 282 92 192 83 235 b 85 321 83 295 84 308 b 90 361 86 334 88 347 l 200 983 l 371 983 l 263 368 b 258 336 261 358 259 347 b 257 304 257 325 257 314 b 267 236 257 280 260 257 b 301 179 274 215 286 196 b 362 140 317 163 337 149 b 451 125 386 130 416 125 b 565 147 497 125 535 132 b 640 203 596 161 621 180 b 685 281 660 226 675 252 b 708 368 695 310 703 339 l 817 983 l 989 983 l 879 361 l 879 361 "},"V":{"ha":890,"x_min":0,"x_max":0,"o":"m 254 0 l 94 983 l 275 983 l 374 222 l 379 222 l 817 983 l 1010 983 l 413 0 "},"W":{"ha":1368,"x_min":0,"x_max":0,"o":"m 822 0 l 732 743 l 729 743 l 357 0 l 190 0 l 99 983 l 279 983 l 328 256 l 331 256 l 686 983 l 864 983 l 940 256 l 943 256 l 1283 983 l 1465 983 l 989 0 "},"X":{"ha":876,"x_min":0,"x_max":0,"o":"m 435 390 l 113 0 l -101 0 l 360 525 l 160 983 l 349 983 l 485 639 l 765 983 l 971 983 l 560 511 l 789 0 l 594 0 "},"Y":{"ha":799,"x_min":0,"x_max":0,"o":"m 400 0 l 229 0 l 304 426 l 58 983 l 250 983 l 414 567 l 743 983 l 951 983 l 476 426 "},"Z":{"ha":817,"x_min":0,"x_max":0,"o":"m -29 154 l 618 833 l 151 833 l 178 983 l 868 983 l 840 829 l 197 153 l 736 153 l 708 0 l -56 0 "},"[":{"ha":444,"x_min":0,"x_max":0,"o":"m 174 1017 l 439 1017 l 419 910 l 294 910 l 115 -110 l 240 -110 l 221 -217 l -43 -217 "},"\\":{"ha":540,"x_min":0,"x_max":0,"o":"m 553 -25 l 438 -67 l 4 1008 l 119 1053 "},"]":{"ha":444,"x_min":0,"x_max":0,"o":"m 14 -110 l 139 -110 l 319 910 l 194 910 l 213 1017 l 478 1017 l 260 -217 l -4 -217 "},"^":{"ha":925,"x_min":0,"x_max":0,"o":"m 406 983 l 519 983 l 829 476 l 665 476 l 461 808 l 260 476 l 96 476 "},"_":{"ha":694,"x_min":0,"x_max":0,"o":"m 0 -208 l 0 -104 l 694 -104 l 694 -208 "},"`":{"ha":361,"x_min":0,"x_max":0,"o":"m 217 783 l 21 983 l 204 983 l 342 783 "},"a":{"ha":749,"x_min":0,"x_max":0,"o":"m 496 422 b 499 448 498 433 499 442 b 500 465 500 454 500 460 b 469 535 500 498 490 521 b 376 556 448 549 417 556 b 276 537 344 556 310 549 b 183 489 241 524 210 508 l 121 599 b 251 662 159 625 202 647 b 400 685 299 677 349 685 b 494 674 431 685 463 681 b 577 640 525 667 553 656 b 636 578 602 625 621 604 b 658 483 651 553 658 521 b 657 453 658 475 658 465 b 653 421 656 441 655 430 l 604 150 b 592 69 600 124 596 97 b 588 0 589 42 588 19 l 438 0 b 446 79 438 25 440 51 l 443 79 b 226 -14 391 17 319 -14 b 154 -6 203 -14 179 -11 b 86 23 129 0 106 9 b 36 77 66 36 49 54 b 17 163 23 100 17 128 b 60 295 17 217 31 261 b 174 374 90 329 127 355 b 328 413 220 393 272 406 b 496 422 385 419 441 422 m 461 306 b 363 302 430 306 397 304 b 270 286 329 300 298 294 b 201 251 242 278 219 266 b 174 189 183 235 174 215 b 183 149 174 173 177 160 b 207 124 189 139 197 130 b 242 110 217 117 229 113 b 282 106 255 107 268 106 b 352 118 307 106 330 110 b 409 152 374 126 393 138 b 449 202 425 166 439 183 b 472 264 460 221 468 242 l 481 306 l 461 306 "},"b":{"ha":886,"x_min":0,"x_max":0,"o":"m 289 560 b 392 651 316 599 350 629 b 529 685 433 674 479 685 b 645 664 572 685 610 678 b 734 605 680 650 709 630 b 791 514 759 579 778 549 b 811 397 804 479 811 440 b 784 236 811 340 802 286 b 708 105 766 186 741 142 b 592 16 676 67 637 38 b 444 -17 547 -6 498 -17 b 304 17 394 -17 348 -6 b 206 113 261 39 228 71 l 203 113 l 183 0 l 29 0 l 214 1050 l 378 1050 l 286 560 l 289 560 m 644 378 b 602 501 644 427 630 468 b 481 551 574 535 533 551 b 389 531 448 551 418 544 b 315 474 360 517 335 498 b 265 390 294 450 277 422 b 247 289 253 358 247 324 b 293 164 247 238 263 196 b 417 115 324 131 365 115 b 510 136 451 115 482 122 b 583 192 539 150 563 169 b 628 276 603 216 618 244 b 644 378 639 308 644 342 "},"c":{"ha":683,"x_min":0,"x_max":0,"o":"m 574 478 b 518 530 562 498 543 516 b 436 551 493 544 466 551 b 341 531 402 551 370 544 b 266 474 312 517 287 498 b 217 390 245 450 229 422 b 199 292 205 359 199 326 b 208 226 199 269 202 247 b 239 170 215 205 225 186 b 292 131 253 154 270 141 b 368 117 313 122 338 117 b 469 138 410 117 443 124 b 539 192 494 153 518 170 l 632 97 b 513 13 597 62 557 34 b 358 -18 468 -8 417 -18 b 227 3 310 -18 266 -11 b 126 62 188 17 154 36 b 60 153 97 87 76 118 b 38 271 45 188 38 227 b 67 426 38 325 47 376 b 149 559 86 476 113 521 b 277 651 184 597 227 628 b 444 685 328 673 383 685 b 587 658 494 685 542 676 b 690 572 632 640 666 611 l 574 478 "},"d":{"ha":881,"x_min":0,"x_max":0,"o":"m 888 1050 l 701 0 l 547 0 l 564 106 l 560 106 b 457 15 533 67 499 37 b 319 -17 415 -6 369 -17 b 203 4 277 -17 238 -10 b 115 63 169 18 139 38 b 58 154 90 89 71 119 b 38 271 44 189 38 228 b 65 432 38 328 47 382 b 140 563 83 482 108 526 b 256 652 173 601 211 630 b 404 685 301 674 350 685 b 552 651 465 685 515 674 b 638 560 590 629 618 599 l 640 560 l 724 1050 m 204 290 b 247 167 204 241 218 200 b 368 117 275 133 315 117 b 460 138 400 117 431 124 b 534 194 488 151 513 170 b 583 278 555 219 571 247 b 601 379 595 310 601 344 b 556 504 601 430 586 472 b 432 553 525 537 484 553 b 338 532 398 553 366 546 b 266 476 310 518 286 499 b 220 392 246 452 231 424 b 204 290 209 360 204 326 "},"e":{"ha":783,"x_min":0,"x_max":0,"o":"m 194 282 b 193 267 194 277 193 272 b 206 206 193 244 197 224 b 243 158 215 187 227 171 b 299 126 259 144 277 134 b 368 114 320 118 343 114 b 477 138 411 114 447 122 b 558 201 507 153 534 175 l 651 114 b 350 -19 569 25 469 -19 b 225 1 305 -19 263 -13 b 126 58 187 14 154 33 b 61 151 99 83 77 114 b 38 276 45 187 37 229 b 67 437 38 334 47 387 b 148 567 86 486 113 530 b 272 653 183 604 224 633 b 428 685 319 674 371 685 b 538 668 468 685 504 679 b 626 618 572 657 601 640 b 685 535 651 596 671 568 b 706 418 699 501 706 463 b 701 356 706 403 704 383 b 689 282 699 330 694 305 l 194 282 m 556 399 b 558 417 556 405 557 411 b 558 433 558 422 558 428 b 520 525 558 469 546 500 b 413 563 495 550 459 563 b 335 547 384 563 358 557 b 274 508 312 537 291 524 b 232 454 257 491 243 474 b 210 399 221 435 213 416 l 556 399 "},"f":{"ha":449,"x_min":0,"x_max":0,"o":"m 535 918 b 509 925 526 921 518 923 b 478 928 500 927 490 928 b 421 914 456 928 437 923 b 383 878 405 905 392 893 b 359 828 373 863 365 847 b 346 776 353 810 349 793 l 326 667 l 483 667 l 460 536 l 306 536 l 211 0 l 53 0 l 147 536 l 21 536 l 43 667 l 167 667 l 186 768 b 216 877 193 805 203 841 b 272 973 229 913 248 945 b 360 1041 295 1001 325 1024 b 488 1067 395 1058 438 1067 b 569 1057 520 1067 547 1063 l 535 918 "},"g":{"ha":878,"x_min":0,"x_max":0,"o":"m 664 667 l 819 667 l 714 57 b 669 -103 704 -1 689 -55 b 592 -226 650 -151 624 -192 b 471 -306 559 -261 519 -287 b 297 -333 423 -324 365 -333 b 211 -326 269 -333 241 -331 b 124 -303 181 -321 152 -313 b 42 -265 95 -293 68 -280 b -24 -214 17 -250 -5 -233 l 85 -96 b 181 -167 111 -126 143 -150 b 301 -192 219 -183 259 -192 b 405 -174 342 -192 377 -186 b 476 -126 433 -163 457 -147 b 522 -53 496 -106 511 -82 b 550 39 533 -25 543 6 l 561 92 l 558 92 b 463 16 534 60 503 35 b 329 -12 424 -3 379 -12 b 213 8 287 -12 248 -6 b 124 67 178 22 149 42 b 67 157 100 92 81 122 b 47 274 54 192 47 231 b 74 433 47 330 56 383 b 150 565 92 483 118 527 b 266 653 182 602 221 631 b 414 685 311 674 360 685 b 561 651 475 685 524 674 b 643 565 598 629 625 600 l 647 565 m 214 293 b 256 169 214 244 228 203 b 378 119 284 136 325 119 b 469 140 410 119 441 126 b 544 197 498 154 523 173 b 593 281 565 221 581 249 b 611 381 605 312 611 345 b 565 506 611 431 596 473 b 442 554 535 538 494 554 b 348 533 407 554 376 547 b 276 477 320 519 296 501 b 230 394 256 453 241 426 b 214 293 219 363 214 329 "},"h":{"ha":811,"x_min":0,"x_max":0,"o":"m 542 367 b 547 400 544 378 545 389 b 549 433 548 411 549 422 b 525 512 549 463 541 489 b 439 546 509 534 481 546 b 367 531 412 546 388 541 b 313 490 347 520 328 507 b 276 431 298 472 285 453 b 256 363 266 408 259 386 l 192 0 l 29 0 l 214 1050 l 378 1050 l 293 572 l 296 572 b 375 651 314 602 341 628 b 501 685 409 673 451 685 b 598 668 538 685 571 679 b 666 624 625 657 648 642 b 706 558 684 605 697 583 b 719 478 715 532 719 506 b 714 415 719 455 718 434 l 640 0 l 478 0 "},"i":{"ha":371,"x_min":0,"x_max":0,"o":"m 146 667 l 310 667 l 192 0 l 29 0 m 364 896 b 335 825 364 869 354 845 b 265 794 316 805 293 794 b 197 819 238 794 216 803 b 168 890 178 836 168 860 b 199 963 168 920 178 944 b 269 992 219 982 243 992 b 337 966 296 992 319 983 b 364 896 355 949 364 925 "},"j":{"ha":371,"x_min":0,"x_max":0,"o":"m 185 -44 b 156 -156 177 -83 168 -120 b 108 -248 145 -191 128 -222 b 27 -310 87 -274 60 -295 b -96 -333 -6 -326 -47 -333 b -137 -331 -110 -333 -123 -332 b -169 -325 -150 -329 -161 -327 l -137 -186 b -115 -190 -130 -188 -122 -189 b -93 -192 -107 -191 -100 -192 b -44 -181 -74 -192 -57 -188 b -12 -150 -31 -173 -21 -163 b 7 -105 -4 -137 2 -122 b 19 -50 12 -88 16 -69 l 146 667 l 310 667 l 185 -44 m 364 896 b 335 825 364 869 354 845 b 265 794 316 805 293 794 b 197 819 238 794 216 803 b 168 890 178 836 168 860 b 199 963 168 920 178 944 b 269 992 219 982 243 992 b 337 966 296 992 319 983 b 364 896 355 949 364 925 "},"k":{"ha":724,"x_min":0,"x_max":0,"o":"m 257 342 l 253 342 l 192 0 l 29 0 l 214 1050 l 378 1050 l 260 385 l 264 385 l 565 667 l 779 667 l 425 357 l 668 0 l 467 0 "},"l":{"ha":371,"x_min":0,"x_max":0,"o":"m 214 1050 l 378 1050 l 192 0 l 29 0 "},"m":{"ha":1242,"x_min":0,"x_max":0,"o":"m 121 524 b 133 592 125 541 128 564 b 142 667 137 619 140 644 l 294 667 b 289 618 294 656 292 640 l 282 563 l 285 563 b 365 647 305 594 332 622 b 490 685 397 672 439 685 b 624 648 546 685 591 672 b 690 554 658 623 680 592 b 792 650 719 595 753 627 b 926 685 831 673 875 685 b 1026 668 965 685 999 679 b 1096 624 1054 657 1077 642 b 1137 558 1114 605 1128 583 b 1150 478 1146 532 1150 506 b 1144 415 1150 455 1148 434 l 1071 0 l 908 0 l 972 367 b 977 400 974 378 976 389 b 979 433 978 411 979 422 b 974 476 979 448 977 463 b 956 513 970 490 964 502 b 922 538 947 523 936 531 b 868 547 907 544 889 547 b 799 531 842 547 819 542 b 745 488 778 519 760 505 b 708 428 730 470 718 450 b 689 364 699 407 693 385 l 625 0 l 461 0 l 532 403 b 536 440 535 417 536 429 b 511 517 536 472 528 497 b 433 547 494 537 469 547 b 366 531 408 547 386 542 b 314 490 346 521 329 507 b 277 433 299 474 287 454 b 257 367 267 411 261 389 l 192 0 l 29 0 l 121 524 l 121 524 "},"n":{"ha":811,"x_min":0,"x_max":0,"o":"m 285 563 b 373 651 308 599 337 628 b 501 685 409 673 451 685 b 598 668 538 685 571 679 b 666 624 625 657 648 642 b 706 558 684 605 697 583 b 719 478 715 532 719 506 b 714 415 719 455 718 434 l 640 0 l 478 0 l 542 367 b 547 400 544 378 545 389 b 549 433 548 411 549 422 b 525 512 549 463 541 489 b 439 546 509 534 481 546 b 368 531 412 546 388 541 b 315 490 348 520 330 507 b 277 432 299 472 287 453 b 257 367 267 411 261 389 l 192 0 l 29 0 l 121 524 b 133 592 125 541 128 564 b 142 667 137 619 140 644 l 294 667 b 289 619 294 656 292 641 b 282 563 286 597 284 578 l 285 563 "},"o":{"ha":839,"x_min":0,"x_max":0,"o":"m 360 -18 b 231 3 313 -18 271 -11 b 129 63 192 17 158 37 b 62 154 100 88 78 119 b 38 272 46 189 38 229 b 66 428 38 327 47 379 b 147 560 85 478 112 522 b 274 651 182 598 225 628 b 440 685 324 673 379 685 b 570 664 488 685 531 678 b 672 605 609 650 644 630 b 740 513 701 579 723 549 b 764 396 756 478 764 438 b 735 238 764 340 754 288 b 654 106 716 188 689 144 b 526 15 619 68 576 38 b 360 -18 476 -7 421 -18 m 600 379 b 554 503 600 429 585 470 b 429 551 524 535 482 551 b 334 530 394 551 362 544 b 262 472 306 516 282 496 b 215 389 242 448 226 420 b 199 289 204 357 199 324 b 243 165 199 239 213 198 b 368 117 273 133 314 117 b 464 138 403 117 435 124 b 537 194 493 151 517 170 b 583 278 557 219 572 247 b 600 379 594 310 600 344 "},"p":{"ha":882,"x_min":0,"x_max":0,"o":"m -33 -333 l 143 667 l 297 667 l 281 560 l 285 560 b 388 650 312 599 346 629 b 525 682 429 671 475 682 b 641 661 568 682 606 675 b 730 602 676 647 705 628 b 787 511 754 577 773 546 b 807 394 800 476 807 437 b 780 233 807 337 798 283 b 704 102 762 183 737 140 b 588 13 672 65 633 35 b 440 -19 543 -9 494 -19 b 292 14 379 -19 330 -8 b 207 106 255 36 226 67 l 204 106 l 131 -333 m 640 375 b 598 499 640 424 626 465 b 476 549 570 532 529 549 b 385 528 444 549 413 542 b 310 471 356 514 331 495 b 261 387 290 447 273 419 b 243 286 249 355 243 321 b 289 161 243 235 258 194 b 413 113 319 129 361 113 b 506 133 447 113 478 119 b 578 190 534 147 559 166 b 624 273 598 213 614 241 b 640 375 635 305 640 339 "},"q":{"ha":878,"x_min":0,"x_max":0,"o":"m 560 106 b 457 15 533 67 499 37 b 319 -17 415 -6 369 -17 b 203 4 277 -17 238 -10 b 115 63 169 18 139 38 b 58 154 90 89 71 119 b 38 271 44 189 38 228 b 65 432 38 328 47 382 b 140 563 83 482 108 526 b 256 652 173 601 211 630 b 404 685 301 674 350 685 b 544 650 454 685 501 673 b 643 553 588 627 621 594 l 646 553 l 665 667 l 819 667 l 644 -333 l 481 -333 l 563 106 l 560 106 m 204 290 b 247 167 204 241 218 200 b 368 117 275 133 315 117 b 460 138 400 117 431 124 b 534 194 488 151 513 170 b 583 278 555 219 571 247 b 601 379 595 310 601 344 b 556 504 601 430 586 472 b 432 553 525 537 484 553 b 338 532 398 553 366 546 b 266 476 310 518 286 499 b 220 392 246 452 231 424 b 204 290 209 360 204 326 "},"r":{"ha":471,"x_min":0,"x_max":0,"o":"m 282 556 b 364 649 305 594 332 626 b 478 685 395 673 433 685 b 499 684 484 685 491 684 b 518 681 506 684 513 682 l 496 529 b 469 535 486 532 477 534 b 446 536 461 536 453 536 b 353 515 408 536 377 529 b 294 465 329 501 309 485 b 263 406 280 446 269 426 b 250 357 256 385 252 369 l 188 0 l 25 0 l 118 524 b 130 592 122 541 126 564 b 139 667 134 619 137 644 l 292 667 b 290 646 292 662 291 655 b 287 615 289 637 288 626 b 283 583 285 604 284 593 b 279 556 281 572 280 563 l 282 556 "},"s":{"ha":617,"x_min":0,"x_max":0,"o":"m 93 192 b 155 130 107 165 128 144 b 246 108 182 116 213 108 b 337 131 284 108 314 116 b 371 192 359 145 371 166 b 344 245 371 216 362 234 b 257 282 326 257 297 269 b 174 313 225 292 198 303 b 115 351 151 324 131 336 b 80 400 100 365 88 381 b 68 465 72 419 68 440 b 90 554 68 498 75 527 b 151 624 105 581 125 604 b 243 669 177 643 208 658 b 358 685 278 679 317 685 b 499 656 410 685 457 675 b 599 569 541 637 575 608 l 472 494 b 425 541 460 513 444 528 b 346 560 406 553 379 560 b 303 556 332 560 318 558 b 265 542 289 553 276 548 b 238 518 254 536 245 528 b 228 481 231 508 228 495 b 255 433 228 459 237 444 b 335 403 273 423 300 413 b 479 331 397 385 445 361 b 531 203 513 301 531 258 b 507 105 531 166 523 133 b 444 33 491 77 470 53 b 352 -10 417 14 387 -1 b 242 -25 317 -20 281 -25 b 67 13 169 -25 111 -12 b -33 108 23 39 -10 70 l 93 192 "},"t":{"ha":472,"x_min":0,"x_max":0,"o":"m 50 667 l 165 667 l 199 861 l 360 861 l 326 667 l 476 667 l 453 535 l 306 535 l 247 221 b 243 182 244 207 243 194 b 265 132 243 158 250 141 b 322 118 279 123 298 118 b 355 121 333 118 344 119 b 385 128 366 123 375 125 l 375 4 b 326 -9 361 -1 345 -6 b 274 -14 307 -12 289 -14 b 124 28 203 -14 153 0 b 79 140 94 57 79 94 b 81 183 79 153 80 167 b 88 225 83 198 85 212 l 144 535 l 26 535 "},"u":{"ha":811,"x_min":0,"x_max":0,"o":"m 483 104 b 395 16 460 68 431 39 b 267 -18 359 -7 317 -18 b 170 -1 230 -18 197 -12 b 102 43 143 10 120 25 b 62 109 84 62 71 84 b 49 189 53 134 49 161 b 54 251 49 212 50 233 l 128 667 l 290 667 l 226 300 b 222 267 225 289 223 278 b 219 233 220 256 219 244 b 243 155 219 204 227 178 b 329 121 259 132 288 121 b 399 136 355 121 378 126 b 453 177 420 146 438 160 b 491 235 469 194 481 213 b 511 300 501 256 507 278 l 576 667 l 739 667 l 647 143 b 635 75 644 125 640 103 b 626 0 631 47 628 22 l 474 0 b 479 48 475 10 476 26 b 486 104 482 70 484 88 l 483 104 "},"v":{"ha":697,"x_min":0,"x_max":0,"o":"m 171 0 l 40 667 l 211 667 l 289 178 l 292 178 l 569 667 l 742 667 l 346 0 "},"w":{"ha":1090,"x_min":0,"x_max":0,"o":"m 610 0 l 550 471 l 547 471 l 299 0 l 132 0 l 40 667 l 211 667 l 257 188 l 260 188 l 499 667 l 669 667 l 724 188 l 726 188 l 968 667 l 1139 667 l 776 0 "},"x":{"ha":713,"x_min":0,"x_max":0,"o":"m 318 239 l 106 0 l -101 0 l 242 354 l 63 667 l 242 667 l 350 458 l 535 667 l 735 667 l 429 346 l 626 0 l 442 0 "},"y":{"ha":703,"x_min":0,"x_max":0,"o":"m 282 -144 b 232 -224 265 -174 249 -201 b 177 -284 215 -248 197 -268 b 111 -321 157 -300 135 -312 b 26 -333 87 -329 59 -333 b -16 -331 13 -333 -2 -333 b -58 -324 -30 -330 -44 -327 l -37 -182 b -6 -190 -27 -186 -17 -188 b 24 -192 4 -191 14 -192 b 95 -166 54 -192 78 -183 b 151 -87 112 -149 131 -123 l 201 -1 l 51 667 l 226 667 l 313 178 l 315 178 l 582 667 l 754 667 l 282 -144 "},"z":{"ha":667,"x_min":0,"x_max":0,"o":"m -3 143 l 432 536 l 93 536 l 115 667 l 653 667 l 628 524 l 196 133 l 568 133 l 544 0 l -28 0 "},"{":{"ha":444,"x_min":0,"x_max":0,"o":"m 160 -217 b 54 -183 118 -217 83 -205 b 11 -76 25 -160 11 -125 b 15 -33 11 -63 13 -49 l 63 231 b 63 285 66 253 66 271 b 44 318 59 299 53 310 b 16 335 36 326 27 332 b -15 340 5 339 -5 340 l 6 460 b 39 464 16 460 27 461 b 73 480 51 467 62 472 b 102 511 84 488 93 498 b 121 560 111 524 117 540 l 168 833 b 197 915 174 865 183 892 b 247 972 211 938 228 957 b 309 1006 266 987 286 998 b 378 1017 332 1013 355 1017 l 478 1017 l 458 901 l 382 901 b 326 875 354 901 335 893 b 304 817 316 857 309 838 l 258 557 b 231 487 254 529 245 506 b 187 440 218 468 203 452 b 138 413 171 428 154 419 b 96 401 121 406 107 402 l 96 399 b 129 391 105 398 116 395 b 166 372 142 387 154 380 b 195 335 178 363 187 350 b 207 275 203 319 207 299 b 203 235 207 262 206 249 l 158 -17 b 155 -47 156 -27 155 -37 b 158 -74 154 -57 156 -66 b 173 -94 161 -82 166 -89 b 204 -101 180 -99 190 -101 l 281 -101 l 260 -217 l 160 -217 "},"|":{"ha":308,"x_min":0,"x_max":0,"o":"m 225 -347 l 83 -347 l 83 1042 l 225 1042 "},"}":{"ha":444,"x_min":0,"x_max":0,"o":"m 428 340 b 395 335 418 340 407 339 b 361 318 384 332 372 326 b 331 285 350 310 340 299 b 313 231 322 271 316 253 l 265 -33 b 236 -115 260 -65 250 -92 b 187 -172 222 -138 206 -157 b 125 -206 168 -187 147 -198 b 57 -217 103 -213 80 -217 l -44 -217 l -24 -101 l 53 -101 b 108 -75 80 -101 98 -93 b 129 -17 119 -57 125 -38 l 174 235 b 203 315 179 267 189 294 b 248 364 217 335 232 352 b 297 390 264 376 280 384 b 338 399 313 395 326 398 l 339 401 b 301 413 328 402 315 406 b 261 440 286 419 273 428 b 233 487 249 452 240 468 b 231 557 227 506 226 529 l 276 817 b 280 847 278 827 279 837 b 276 874 280 857 279 866 b 261 894 274 882 269 889 b 229 901 254 899 243 901 l 154 901 l 174 1017 l 275 1017 b 379 983 316 1017 350 1005 b 422 876 408 960 422 925 b 418 833 422 863 421 848 l 371 560 b 371 511 367 540 367 524 b 389 480 375 498 381 488 b 417 464 397 472 407 467 b 449 460 428 461 438 460 l 428 340 l 428 340 "},"~":{"ha":925,"x_min":0,"x_max":0,"o":"m 479 492 b 527 463 499 479 515 469 b 559 447 540 456 550 451 b 583 441 568 444 576 441 b 610 440 591 441 600 440 b 669 463 632 440 652 448 b 718 528 687 478 703 500 l 825 438 b 722 326 793 384 758 347 b 613 296 686 306 650 296 b 529 309 583 296 555 300 b 444 351 503 318 475 332 b 397 378 426 363 410 372 b 363 394 384 385 373 391 b 338 400 353 397 345 399 b 315 401 330 401 323 401 b 260 382 296 401 277 395 b 207 314 242 369 225 346 l 100 404 b 205 518 134 461 169 499 b 313 547 241 538 276 547 b 400 533 347 547 376 543 b 479 492 424 524 450 510 "}," ":{"ha":347,"x_min":0,"x_max":0,"o":""},"¡":{"ha":410,"x_min":0,"x_max":0,"o":"m 151 -297 l -11 -297 l 108 379 l 271 379 m 115 586 b 145 660 115 615 125 640 b 218 692 165 681 189 692 b 290 666 246 692 270 683 b 319 592 309 649 319 624 b 288 516 319 561 309 536 b 214 486 266 496 242 486 b 144 513 186 486 163 495 b 115 586 125 531 115 556 "},"¢":{"ha":847,"x_min":0,"x_max":0,"o":"m 543 682 b 660 649 585 677 624 666 b 746 572 696 631 725 606 l 629 478 b 585 522 619 494 604 509 b 519 549 565 535 544 544 l 443 117 b 531 142 478 119 507 128 b 594 192 554 156 575 172 l 688 97 b 569 15 652 63 613 35 b 419 -18 526 -6 476 -17 l 403 -115 l 328 -115 l 347 -12 b 162 81 269 0 208 31 b 93 271 116 132 93 195 b 119 420 93 323 102 372 b 195 548 137 468 162 510 b 314 640 228 585 268 616 b 469 683 360 664 412 679 l 485 775 l 560 775 l 543 682 m 446 547 b 367 517 417 543 391 532 b 307 459 344 501 324 482 b 268 381 290 436 277 410 b 254 292 259 352 254 322 b 260 235 254 272 256 253 b 280 184 265 216 271 199 b 315 144 289 169 300 156 b 369 122 330 133 348 126 l 446 547 "},"£":{"ha":847,"x_min":0,"x_max":0,"o":"m 767 813 b 708 856 752 831 732 846 b 628 872 684 867 657 872 b 543 852 594 872 566 866 b 486 801 520 839 501 822 b 451 733 471 780 460 757 b 433 663 443 708 437 685 l 414 554 l 644 554 l 624 439 l 396 439 l 344 146 l 713 146 l 686 0 l 17 0 l 42 146 l 178 146 l 231 439 l 94 439 l 114 554 l 247 554 l 268 669 b 301 781 275 704 285 741 b 367 891 316 820 338 857 b 476 975 395 925 432 953 b 638 1008 520 997 574 1008 b 770 987 688 1008 732 1001 b 867 925 809 972 841 952 l 767 813 "},"€":{"ha":847,"x_min":0,"x_max":0,"o":"m 761 35 b 665 -8 733 17 701 3 b 535 -25 628 -19 585 -25 b 369 1 472 -25 416 -16 b 249 74 321 19 281 43 b 175 180 217 104 193 140 b 144 308 157 220 147 263 l 19 308 l 79 428 l 142 428 b 149 483 143 443 145 461 b 165 556 152 504 158 529 l 65 556 l 128 675 l 200 675 b 271 803 218 720 241 763 b 374 910 300 844 335 879 b 505 982 413 940 456 964 b 664 1008 553 1000 606 1008 b 788 995 708 1008 750 1004 b 878 963 825 986 856 975 l 817 828 b 744 857 797 841 773 850 b 649 867 715 863 683 867 b 486 817 589 867 535 850 b 368 675 437 783 398 736 l 753 675 l 693 556 l 325 556 b 317 526 322 547 319 537 b 309 490 314 514 311 502 b 304 456 307 478 305 467 b 303 428 303 444 303 435 l 650 428 l 592 308 l 303 308 b 324 233 305 281 312 256 b 375 171 337 209 354 188 b 451 129 396 153 422 139 b 550 114 481 119 514 114 b 643 127 585 114 616 118 b 728 164 670 136 698 148 l 761 35 "},"¥":{"ha":847,"x_min":0,"x_max":0,"o":"m 768 539 l 749 432 l 503 432 l 483 324 l 729 324 l 711 217 l 468 217 l 431 0 l 271 0 l 308 217 l 61 217 l 79 324 l 324 324 l 342 432 l 99 432 l 117 539 l 322 539 l 125 983 l 306 983 l 453 582 l 729 983 l 913 983 l 574 539 "},"Š":{"ha":797,"x_min":0,"x_max":0,"o":"m 654 781 b 581 846 636 810 611 832 b 483 867 551 860 519 867 b 425 858 466 867 446 864 b 366 833 404 853 384 844 b 321 786 348 821 333 806 b 303 715 309 767 303 743 b 340 633 303 680 315 653 b 439 581 364 614 397 596 b 638 467 525 549 591 511 b 707 289 684 423 707 364 b 674 144 707 232 696 184 b 586 47 651 105 622 72 b 464 -8 550 22 509 4 b 326 -25 419 -19 373 -25 b 228 -15 294 -25 261 -22 b 135 14 196 -9 164 1 b 52 63 105 27 78 43 b -12 135 27 83 5 107 l 126 231 b 210 151 145 198 173 172 b 335 119 248 130 289 119 b 403 128 358 119 381 122 b 465 155 426 133 447 142 b 509 203 483 167 497 184 b 526 278 521 223 526 248 b 512 337 526 300 522 320 b 473 382 502 354 489 369 b 417 417 457 395 438 406 b 349 444 395 427 373 436 b 265 482 319 456 291 468 b 194 533 238 496 215 513 b 147 604 174 553 158 576 b 129 703 135 632 129 665 b 160 833 129 752 140 795 b 243 929 181 871 209 903 b 362 988 277 955 317 975 b 501 1008 407 1002 453 1008 b 578 1000 526 1008 552 1006 b 655 976 605 994 630 986 b 724 936 679 965 703 952 b 779 881 746 920 764 902 l 654 781 m 411 1061 l 289 1261 l 440 1261 l 514 1135 l 633 1261 l 788 1261 l 593 1061 "},"§":{"ha":847,"x_min":0,"x_max":0,"o":"m 694 796 b 625 856 676 823 653 843 b 535 875 597 869 567 875 b 490 870 521 875 506 873 b 444 853 473 867 458 861 b 410 819 431 844 419 833 b 396 768 400 806 396 788 b 405 728 396 752 399 739 b 433 697 411 717 420 706 b 483 668 446 687 463 677 b 553 636 503 659 526 648 b 626 599 579 625 603 613 b 687 553 650 586 670 570 b 727 491 704 535 717 515 b 742 407 737 467 742 439 b 728 331 742 378 737 353 b 694 272 720 308 708 289 b 644 230 679 256 663 241 b 586 201 625 218 606 209 b 632 143 605 186 620 166 b 650 69 644 120 650 95 b 622 -55 650 20 641 -21 b 549 -138 603 -89 578 -116 b 448 -185 519 -160 485 -176 b 338 -200 410 -195 374 -200 b 246 -190 309 -200 278 -197 b 152 -161 213 -184 182 -174 b 71 -112 122 -148 95 -132 b 17 -43 47 -93 29 -70 l 156 36 b 185 -5 162 20 172 7 b 230 -34 199 -16 214 -26 b 282 -52 246 -42 263 -48 b 335 -58 300 -56 318 -58 b 385 -54 351 -58 368 -57 b 430 -39 401 -51 416 -46 b 463 -8 443 -31 454 -21 b 476 40 472 5 476 21 b 465 90 476 60 473 76 b 431 128 458 104 447 117 b 373 162 416 140 397 151 b 290 199 349 172 322 185 b 223 232 266 209 244 220 b 169 275 202 244 184 258 b 133 333 153 292 141 311 b 119 410 124 354 119 380 b 134 485 119 438 124 463 b 172 547 144 508 156 528 b 226 592 188 565 206 580 b 286 621 246 605 266 614 b 246 670 272 631 259 647 b 226 751 233 693 226 720 b 257 869 226 797 237 836 b 334 949 277 902 303 928 b 437 994 365 969 399 984 b 544 1008 474 1003 510 1008 b 703 979 601 1008 654 999 b 818 892 752 960 790 931 l 694 796 m 499 265 b 592 379 561 284 592 322 b 563 455 592 412 582 437 b 494 501 543 473 520 488 l 378 558 b 299 513 344 551 317 536 b 271 438 280 489 271 464 b 299 365 271 405 280 381 b 364 325 317 350 339 336 l 499 265 "},"š":{"ha":617,"x_min":0,"x_max":0,"o":"m 93 192 b 155 130 107 165 128 144 b 246 108 182 116 213 108 b 337 131 284 108 314 116 b 371 192 359 145 371 166 b 344 245 371 216 362 234 b 257 282 326 257 297 269 b 174 313 225 292 198 303 b 115 351 151 324 131 336 b 80 400 100 365 88 381 b 68 465 72 419 68 440 b 90 554 68 498 75 527 b 151 624 105 581 125 604 b 243 669 177 643 208 658 b 358 685 278 679 317 685 b 499 656 410 685 457 675 b 599 569 541 637 575 608 l 472 494 b 425 541 460 513 444 528 b 346 560 406 553 379 560 b 303 556 332 560 318 558 b 265 542 289 553 276 548 b 238 518 254 536 245 528 b 228 481 231 508 228 495 b 255 433 228 459 237 444 b 335 403 273 423 300 413 b 479 331 397 385 445 361 b 531 203 513 301 531 258 b 507 105 531 166 523 133 b 444 33 491 77 470 53 b 352 -10 417 14 387 -1 b 242 -25 317 -20 281 -25 b 67 13 169 -25 111 -12 b -33 108 23 39 -10 70 l 93 192 m 279 783 l 157 983 l 308 983 l 382 857 l 501 983 l 656 983 l 461 783 "},"©":{"ha":1111,"x_min":0,"x_max":0,"o":"m 714 615 b 658 657 701 632 682 646 b 581 674 633 668 607 674 b 506 658 553 674 528 669 b 452 617 484 648 466 634 b 419 558 438 600 427 581 b 408 490 412 536 408 513 b 420 420 408 466 412 443 b 455 360 428 397 440 378 b 512 319 470 343 489 329 b 590 303 534 308 561 303 b 662 317 614 303 638 307 b 719 356 685 326 705 339 l 800 261 b 706 199 776 234 744 214 b 581 178 667 185 625 178 b 456 198 536 178 495 184 b 355 258 418 211 384 231 b 286 355 326 284 303 316 b 261 488 269 393 261 438 b 286 618 261 536 269 579 b 355 716 303 657 326 690 b 457 777 384 742 418 763 b 581 799 496 791 537 799 b 706 774 625 799 667 790 b 801 703 746 757 777 733 l 714 615 m 28 490 b 69 695 28 563 42 632 b 183 861 97 759 135 814 b 351 973 230 908 286 946 b 557 1014 415 1000 484 1014 b 761 973 629 1014 697 1000 b 928 861 825 946 881 908 b 1042 695 976 814 1014 759 b 1083 490 1069 632 1083 563 b 1042 287 1083 418 1069 350 b 928 121 1014 223 976 168 b 761 10 881 74 825 37 b 557 -31 697 -17 629 -31 b 351 10 484 -31 415 -17 b 183 121 286 37 230 74 b 69 287 135 168 97 223 b 28 490 42 350 28 418 m 111 490 b 147 318 111 429 123 372 b 242 177 170 264 202 217 b 384 82 283 137 330 105 b 557 47 438 59 496 47 b 729 82 618 47 675 59 b 870 177 783 105 830 137 b 965 318 910 217 942 264 b 1000 490 988 372 1000 429 b 965 663 1000 551 988 609 b 870 805 942 717 910 765 b 729 901 830 845 783 877 b 557 936 675 924 618 936 b 384 901 496 936 438 924 b 242 805 330 877 283 845 b 147 663 202 765 170 717 b 111 490 123 609 111 551 "},"ª":{"ha":528,"x_min":0,"x_max":0,"o":"m 379 776 b 326 774 363 776 345 776 b 276 766 308 773 291 770 b 238 748 260 762 248 756 b 224 715 228 740 224 729 b 242 678 224 697 230 684 b 282 669 254 672 267 669 b 349 694 309 669 331 678 b 383 754 367 710 379 730 l 389 776 l 379 776 m 369 640 b 324 603 357 625 342 612 b 253 589 305 594 281 589 b 157 619 211 589 179 599 b 124 697 135 640 124 666 b 192 817 124 754 147 794 b 396 853 238 841 306 853 b 399 869 398 858 399 864 b 383 906 399 887 394 899 b 333 917 373 913 356 917 b 281 907 318 917 300 913 b 226 879 261 900 243 891 l 185 950 b 272 993 215 971 244 986 b 347 1004 300 1000 325 1004 b 464 968 401 1004 440 992 b 500 881 488 944 500 915 b 499 858 500 872 500 865 b 494 836 498 851 496 844 l 469 689 b 464 640 467 674 465 658 b 463 599 463 623 463 609 l 368 599 b 372 640 368 608 369 622 l 369 640 "},"«":{"ha":719,"x_min":0,"x_max":0,"o":"m 388 579 l 181 333 l 299 90 l 188 26 l 29 343 l 294 654 m 692 579 l 485 333 l 603 90 l 492 26 l 333 343 l 599 654 "},"¬":{"ha":925,"x_min":0,"x_max":0,"o":"m 86 475 l 86 617 l 839 617 l 839 204 l 697 204 l 697 475 "},"­":{"ha":444,"x_min":0,"x_max":0,"o":"m 54 411 l 386 411 l 361 272 l 29 272 "},"®":{"ha":833,"x_min":0,"x_max":0,"o":"m 789 685 b 764 563 789 641 781 600 b 697 464 747 525 725 492 b 597 398 668 436 635 414 b 474 374 558 382 517 374 b 350 398 430 374 389 382 b 249 464 311 414 277 436 b 181 563 220 492 197 525 b 156 685 164 600 156 641 b 181 808 156 728 164 769 b 249 908 197 846 220 879 b 350 975 277 936 311 958 b 474 1000 389 992 430 1000 b 597 975 517 1000 558 992 b 697 908 635 958 668 936 b 764 808 725 879 747 846 b 789 685 781 769 789 728 m 739 685 b 718 789 739 722 732 756 b 661 874 704 821 685 850 b 577 932 637 899 609 918 b 474 953 545 946 511 953 b 369 932 437 953 402 946 b 284 874 337 918 309 899 b 226 789 259 850 240 821 b 206 685 213 756 206 722 b 226 582 206 649 213 614 b 284 497 240 550 259 521 b 369 440 309 473 337 454 b 474 419 402 426 437 419 b 577 440 511 419 545 426 b 661 497 609 454 637 473 b 718 582 685 521 704 550 b 739 685 732 614 739 649 m 471 644 l 431 644 l 431 511 l 332 511 l 332 872 l 488 872 b 540 867 505 872 523 870 b 588 848 558 863 574 857 b 623 813 603 839 614 827 b 636 758 632 798 636 780 b 616 697 636 734 629 714 b 564 660 603 679 585 667 l 656 511 l 540 511 m 532 757 b 516 783 532 769 527 778 b 483 792 505 789 494 792 l 431 792 l 431 717 l 483 717 b 517 728 496 717 508 720 b 532 757 527 735 532 745 "},"¯":{"ha":361,"x_min":0,"x_max":0,"o":"m 49 933 l 490 933 l 471 826 l 31 826 "},"°":{"ha":556,"x_min":0,"x_max":0,"o":"m 103 778 b 120 864 103 808 109 837 b 168 935 132 891 148 914 b 239 983 188 955 212 971 b 325 1000 266 994 294 1000 b 411 983 356 1000 384 994 b 482 935 438 971 462 955 b 530 864 502 914 518 891 b 547 778 541 837 547 808 b 530 692 547 747 541 719 b 482 621 518 665 502 641 b 411 573 462 600 438 584 b 325 556 384 561 356 556 b 239 573 294 556 266 561 b 168 621 212 584 188 600 b 120 692 148 641 132 665 b 103 778 109 719 103 747 m 211 778 b 244 697 211 746 222 719 b 325 664 267 675 294 664 b 406 697 356 664 383 675 b 439 778 428 719 439 746 b 406 858 439 809 428 836 b 325 892 383 881 356 892 b 244 858 294 892 267 881 b 211 778 222 836 211 809 "},"±":{"ha":925,"x_min":0,"x_max":0,"o":"m 531 797 l 531 599 l 814 599 l 814 457 l 531 457 l 531 258 l 397 258 l 397 457 l 111 457 l 111 599 l 397 599 l 397 797 m 814 186 l 814 44 l 111 44 l 111 186 "},"²":{"ha":556,"x_min":0,"x_max":0,"o":"m 150 843 b 234 958 169 894 197 932 b 361 996 272 983 314 996 b 496 953 417 996 462 982 b 547 836 530 925 547 886 b 540 776 547 814 545 794 b 515 726 534 759 526 742 b 473 678 504 709 490 694 b 411 626 456 662 435 645 l 253 503 l 485 503 l 464 393 l 76 393 l 96 500 l 351 710 b 432 829 405 754 432 794 b 411 879 432 852 425 869 b 356 894 397 889 379 894 b 294 873 330 894 309 887 b 258 813 278 859 267 838 l 150 843 l 150 843 "},"³":{"ha":556,"x_min":0,"x_max":0,"o":"m 275 750 b 394 843 355 750 394 781 b 376 888 394 863 388 878 b 329 901 363 897 348 901 b 276 888 308 901 290 897 b 235 839 261 879 248 863 l 144 892 b 228 976 168 931 196 959 b 338 1001 261 993 298 1001 b 412 988 365 1001 390 997 b 467 953 434 979 452 968 b 500 903 481 938 493 921 b 511 846 507 884 511 865 b 479 752 511 808 500 777 b 400 704 458 728 431 712 b 465 657 428 694 450 678 b 489 585 481 636 489 612 b 472 497 489 551 483 522 b 424 435 460 472 444 451 b 355 397 404 418 381 406 b 271 385 328 389 300 385 b 142 422 218 385 175 397 b 71 521 108 446 85 479 l 182 554 b 217 503 189 530 201 513 b 272 489 234 494 252 489 b 345 513 305 489 329 497 b 369 575 361 529 369 550 b 339 636 369 602 359 622 b 260 657 319 650 292 657 l 228 657 l 243 750 l 275 750 l 275 750 "},"Ž":{"ha":817,"x_min":0,"x_max":0,"o":"m -29 154 l 618 833 l 151 833 l 178 983 l 868 983 l 840 829 l 197 153 l 736 153 l 708 0 l -56 0 m 433 1061 l 311 1261 l 463 1261 l 536 1135 l 656 1261 l 810 1261 l 615 1061 "},"µ":{"ha":797,"x_min":0,"x_max":0,"o":"m 261 329 b 253 285 258 316 256 301 b 249 236 250 268 249 252 b 267 165 249 209 255 185 b 342 133 280 144 305 133 b 415 147 369 133 394 138 b 470 185 437 156 455 169 b 508 239 485 200 498 219 b 531 303 519 259 526 281 l 608 667 l 775 667 l 633 0 l 475 0 l 497 107 l 494 107 b 410 20 472 74 444 45 b 278 -17 375 -4 331 -17 b 229 -8 261 -17 245 -14 b 194 17 213 -3 202 6 l 124 -317 l -43 -317 l 167 667 l 333 667 "},"¶":{"ha":833,"x_min":0,"x_max":0,"o":"m 697 885 l 547 885 l 360 -175 l 236 -175 l 350 468 b 160 526 269 468 205 488 b 92 678 114 565 92 616 b 106 774 92 706 97 739 b 162 874 116 810 134 843 b 276 952 189 905 227 931 b 465 983 324 973 388 983 l 838 983 l 633 -175 l 510 -175 "},"·":{"ha":361,"x_min":0,"x_max":0,"o":"m 279 413 b 249 338 279 384 269 359 b 176 307 229 317 205 307 b 105 333 149 307 125 316 b 75 407 85 350 75 375 b 107 483 75 438 86 463 b 181 513 128 503 153 513 b 251 485 208 513 232 503 b 279 413 270 467 279 443 "},"ž":{"ha":667,"x_min":0,"x_max":0,"o":"m -3 143 l 432 536 l 93 536 l 115 667 l 653 667 l 628 524 l 196 133 l 568 133 l 544 0 l -28 0 m 308 783 l 186 983 l 338 983 l 411 857 l 531 983 l 685 983 l 490 783 "},"¹":{"ha":556,"x_min":0,"x_max":0,"o":"m 306 831 l 189 746 l 132 831 l 347 983 l 460 983 l 356 388 l 226 388 "},"º":{"ha":528,"x_min":0,"x_max":0,"o":"m 419 821 b 397 881 419 845 412 865 b 335 904 382 896 362 904 b 254 866 301 904 275 891 b 224 775 234 841 224 810 b 244 715 224 751 231 731 b 306 692 258 700 279 692 b 388 730 340 692 367 704 b 419 821 409 755 419 786 m 299 592 b 219 606 269 592 243 596 b 160 642 196 615 177 627 b 123 697 144 658 132 676 b 110 763 114 717 110 739 b 128 861 110 799 116 831 b 179 937 141 891 158 916 b 253 985 200 958 225 974 b 344 1003 282 997 312 1003 b 480 956 400 1003 445 987 b 532 832 515 925 532 884 b 513 731 532 794 526 760 b 462 655 501 701 484 676 b 387 608 440 634 415 618 b 299 592 359 597 329 592 "},"»":{"ha":719,"x_min":0,"x_max":0,"o":"m 306 101 l 513 347 l 394 590 l 506 654 l 664 338 l 399 26 m -1 101 l 206 347 l 88 590 l 199 654 l 357 338 l 92 26 "},"Œ":{"ha":1397,"x_min":0,"x_max":0,"o":"m 660 838 b 479 804 591 838 531 826 b 349 715 427 782 384 752 b 271 586 315 677 288 634 b 244 438 253 538 244 488 b 263 326 244 399 251 362 b 322 235 276 291 295 261 b 422 173 348 209 381 188 b 567 150 463 158 511 150 l 649 150 l 769 838 m 1388 833 l 935 833 l 890 579 l 1322 579 l 1296 435 l 865 435 l 815 153 l 1307 153 l 1281 0 l 525 0 b 360 23 469 0 414 8 b 213 95 305 38 256 62 b 107 222 169 128 134 170 b 67 411 80 274 67 337 b 112 646 67 497 82 575 b 238 826 142 716 184 776 b 428 942 291 876 355 915 b 667 983 501 970 581 983 l 1414 983 "},"œ":{"ha":1332,"x_min":0,"x_max":0,"o":"m 635 108 b 520 15 605 68 567 36 b 354 -18 473 -7 418 -18 b 226 3 308 -18 265 -11 b 126 63 188 17 154 37 b 61 154 99 88 77 119 b 38 272 45 189 37 229 b 67 431 38 328 47 381 b 151 562 87 481 115 524 b 281 651 188 599 231 629 b 446 685 331 674 386 685 b 603 652 510 685 562 674 b 697 553 644 630 675 597 b 818 650 730 594 770 627 b 976 685 866 673 919 685 b 1087 668 1016 685 1053 679 b 1175 618 1121 657 1150 640 b 1233 535 1200 596 1219 568 b 1254 418 1247 501 1254 463 b 1250 356 1254 403 1253 383 b 1238 282 1247 330 1243 305 l 743 282 b 742 267 742 277 742 272 b 755 206 742 244 746 224 b 792 158 764 187 776 171 b 847 126 807 144 826 134 b 917 114 869 118 892 114 b 1026 138 959 114 996 122 b 1107 201 1056 153 1083 175 l 1200 114 b 899 -19 1118 25 1017 -19 b 740 13 838 -19 785 -9 b 635 108 694 34 659 66 m 1104 399 b 1106 417 1105 405 1106 411 b 1107 433 1107 422 1107 428 b 1069 525 1107 469 1094 500 b 961 563 1043 550 1007 563 b 883 547 932 563 906 557 b 823 508 860 537 840 524 b 781 454 806 491 792 474 b 758 399 769 435 762 416 l 1104 399 m 600 379 b 554 503 600 429 585 470 b 429 551 524 535 482 551 b 337 530 396 551 365 544 b 264 472 309 516 284 496 b 216 389 244 448 228 420 b 199 289 204 357 199 324 b 243 165 199 239 213 198 b 368 117 273 133 314 117 b 461 138 401 117 432 124 b 535 194 490 151 514 170 b 583 278 555 219 571 247 b 600 379 594 310 600 344 "},"Ÿ":{"ha":799,"x_min":0,"x_max":0,"o":"m 400 0 l 229 0 l 304 426 l 58 983 l 250 983 l 414 567 l 743 983 l 951 983 l 476 426 m 469 1175 b 442 1106 469 1148 460 1125 b 374 1076 424 1086 401 1076 b 306 1101 347 1076 324 1084 b 279 1169 288 1117 279 1140 b 308 1241 279 1199 289 1223 b 378 1268 328 1259 351 1268 b 444 1244 405 1268 427 1260 b 469 1175 461 1228 469 1205 m 744 1175 b 717 1106 744 1148 735 1125 b 649 1076 699 1086 676 1076 b 581 1101 622 1076 599 1084 b 554 1169 563 1117 554 1140 b 583 1241 554 1199 564 1223 b 653 1268 603 1259 626 1268 b 719 1244 680 1268 702 1260 b 744 1175 736 1228 744 1205 "},"¿":{"ha":718,"x_min":0,"x_max":0,"o":"m 149 194 b 202 234 170 209 188 222 b 238 270 216 246 228 258 b 262 310 248 283 256 296 b 275 363 268 325 272 342 l 281 399 l 440 399 l 432 344 b 417 284 428 322 423 302 b 393 233 411 266 403 249 b 356 188 383 218 370 202 b 303 140 341 173 323 157 l 231 83 b 199 57 220 75 210 66 b 168 26 188 48 177 37 b 146 -13 159 14 151 1 b 138 -61 140 -28 138 -44 b 261 -172 138 -135 179 -172 b 322 -160 283 -172 304 -168 b 370 -128 341 -153 357 -142 b 403 -82 384 -115 395 -100 b 424 -26 412 -64 419 -46 l 581 -53 b 540 -157 572 -90 559 -125 b 467 -242 521 -189 497 -218 b 367 -300 438 -267 405 -286 b 242 -321 329 -314 287 -321 b 138 -308 206 -321 171 -317 b 49 -267 104 -300 75 -286 b -11 -190 24 -247 4 -222 b -33 -74 -26 -159 -33 -120 b 13 72 -33 -17 -18 31 b 149 194 43 112 88 153 m 278 588 b 308 662 278 616 288 641 b 381 693 328 683 352 693 b 452 667 408 693 432 684 b 482 593 472 650 482 625 b 450 517 482 563 471 537 b 376 488 429 497 404 488 b 306 515 349 488 325 497 b 278 588 287 533 278 557 "},"À":{"ha":928,"x_min":0,"x_max":0,"o":"m 643 226 l 222 226 l 82 0 l -121 0 l 521 983 l 669 983 l 865 0 l 683 0 m 306 374 l 619 374 l 554 786 m 533 1061 l 338 1261 l 521 1261 l 658 1061 "},"Á":{"ha":928,"x_min":0,"x_max":0,"o":"m 643 226 l 222 226 l 82 0 l -121 0 l 521 983 l 669 983 l 865 0 l 683 0 m 306 374 l 619 374 l 554 786 m 544 1061 l 718 1261 l 903 1261 l 674 1061 "},"Â":{"ha":928,"x_min":0,"x_max":0,"o":"m 643 226 l 222 226 l 82 0 l -121 0 l 521 983 l 669 983 l 865 0 l 683 0 m 306 374 l 619 374 l 554 786 m 629 1188 l 510 1061 l 354 1061 l 549 1261 l 732 1261 l 854 1061 l 704 1061 "},"Ã":{"ha":928,"x_min":0,"x_max":0,"o":"m 643 226 l 222 226 l 82 0 l -121 0 l 521 983 l 669 983 l 865 0 l 683 0 m 306 374 l 619 374 l 554 786 m 349 1067 b 376 1131 356 1089 365 1110 b 415 1187 386 1152 399 1171 b 467 1226 430 1203 447 1216 b 536 1240 487 1235 510 1240 b 590 1233 555 1240 573 1238 b 640 1215 608 1229 625 1223 b 685 1197 656 1208 671 1202 b 726 1189 700 1191 713 1189 b 772 1208 745 1189 760 1195 b 800 1250 783 1220 793 1234 l 892 1250 b 865 1185 884 1228 875 1206 b 826 1130 854 1165 841 1146 b 774 1091 812 1114 794 1101 b 706 1076 754 1081 731 1076 b 656 1083 688 1076 671 1078 b 610 1100 640 1087 625 1093 b 560 1121 592 1108 575 1115 b 515 1129 544 1126 529 1129 b 469 1110 497 1129 481 1123 b 440 1067 457 1097 448 1082 l 349 1067 "},"Ä":{"ha":928,"x_min":0,"x_max":0,"o":"m 643 226 l 222 226 l 82 0 l -121 0 l 521 983 l 669 983 l 865 0 l 683 0 m 306 374 l 619 374 l 554 786 m 578 1175 b 551 1106 578 1148 569 1125 b 482 1076 533 1086 510 1076 b 415 1101 455 1076 433 1084 b 388 1169 397 1117 388 1140 b 417 1241 388 1199 397 1223 b 486 1268 436 1259 459 1268 b 552 1244 513 1268 535 1260 b 578 1175 569 1228 578 1205 m 853 1175 b 826 1106 853 1148 844 1125 b 757 1076 808 1086 785 1076 b 690 1101 730 1076 708 1084 b 663 1169 672 1117 663 1140 b 692 1241 663 1199 672 1223 b 761 1268 711 1259 734 1268 b 827 1244 788 1268 810 1260 b 853 1175 844 1228 853 1205 "},"Å":{"ha":928,"x_min":0,"x_max":0,"o":"m 643 226 l 222 226 l 82 0 l -121 0 l 521 983 l 669 983 l 865 0 l 683 0 m 306 374 l 619 374 l 554 786 m 607 1046 b 517 1080 570 1046 540 1057 b 482 1165 494 1103 482 1131 b 494 1228 482 1188 486 1209 b 527 1281 502 1248 513 1266 b 578 1315 541 1295 558 1307 b 642 1328 597 1324 619 1328 b 731 1294 679 1328 709 1317 b 765 1210 754 1272 765 1244 b 721 1092 765 1163 750 1123 b 607 1046 691 1061 653 1046 m 697 1197 b 681 1246 697 1216 692 1232 b 635 1267 669 1260 654 1267 b 574 1240 610 1267 589 1258 b 550 1174 558 1223 550 1200 b 566 1126 550 1155 555 1139 b 611 1107 577 1113 592 1107 b 674 1133 637 1107 658 1116 b 697 1197 689 1150 697 1171 "},"Æ":{"ha":1435,"x_min":0,"x_max":0,"o":"m 972 833 l 928 579 l 1360 579 l 1333 435 l 903 435 l 853 153 l 1344 153 l 1318 0 l 660 0 l 704 260 l 350 260 l 153 0 l -44 0 l 724 983 l 1451 983 l 1425 833 m 785 833 l 458 401 l 729 401 l 806 833 "},"Ç":{"ha":946,"x_min":0,"x_max":0,"o":"m 622 -192 b 603 -259 622 -219 616 -241 b 553 -303 590 -277 573 -292 b 488 -326 534 -314 512 -322 b 422 -333 465 -331 443 -333 b 340 -323 395 -333 368 -330 b 271 -297 313 -316 289 -307 l 308 -231 b 417 -258 341 -249 377 -258 b 445 -256 425 -258 434 -258 b 474 -248 456 -255 466 -252 b 497 -231 483 -244 491 -238 b 507 -201 504 -223 507 -213 b 486 -160 507 -180 500 -166 b 442 -151 472 -154 457 -151 b 415 -153 434 -151 425 -152 b 386 -160 405 -155 395 -157 l 361 -125 l 450 -22 b 292 20 392 -17 339 -3 b 171 108 244 43 204 72 b 94 236 138 144 112 187 b 67 397 76 285 67 339 b 111 636 67 482 81 562 b 234 830 141 710 182 775 b 418 960 286 885 348 928 b 646 1008 488 992 564 1008 b 751 997 682 1008 717 1005 b 845 967 784 990 816 980 b 924 919 874 954 900 938 b 981 858 947 901 966 881 l 846 757 b 817 792 838 768 829 780 b 772 826 805 805 790 816 b 713 851 755 837 735 845 b 640 861 691 858 667 861 b 480 824 582 861 528 849 b 355 724 431 799 390 765 b 274 582 320 682 293 635 b 244 419 254 529 244 475 b 263 305 244 379 251 341 b 317 212 276 269 294 238 b 406 149 341 185 370 164 b 526 125 441 133 481 125 b 667 156 575 125 622 135 b 786 251 711 176 751 208 l 896 154 b 748 32 858 107 809 66 b 526 -24 687 -2 613 -21 l 469 -90 b 485 -87 476 -88 481 -87 l 497 -87 b 538 -92 510 -87 524 -89 b 578 -110 553 -96 566 -101 b 610 -142 591 -118 601 -129 b 622 -192 618 -156 622 -172 "},"È":{"ha":811,"x_min":0,"x_max":0,"o":"m 208 983 l 828 983 l 801 833 l 349 833 l 304 579 l 736 579 l 710 435 l 279 435 l 229 153 l 721 153 l 694 0 l 35 0 m 514 1061 l 318 1261 l 501 1261 l 639 1061 "},"É":{"ha":811,"x_min":0,"x_max":0,"o":"m 208 983 l 828 983 l 801 833 l 349 833 l 304 579 l 736 579 l 710 435 l 279 435 l 229 153 l 721 153 l 694 0 l 35 0 m 439 1061 l 613 1261 l 797 1261 l 568 1061 "},"Ê":{"ha":811,"x_min":0,"x_max":0,"o":"m 208 983 l 828 983 l 801 833 l 349 833 l 304 579 l 736 579 l 710 435 l 279 435 l 229 153 l 721 153 l 694 0 l 35 0 m 558 1188 l 439 1061 l 283 1061 l 478 1261 l 661 1261 l 783 1061 l 633 1061 "},"Ë":{"ha":811,"x_min":0,"x_max":0,"o":"m 208 983 l 828 983 l 801 833 l 349 833 l 304 579 l 736 579 l 710 435 l 279 435 l 229 153 l 721 153 l 694 0 l 35 0 m 500 1175 b 473 1106 500 1148 491 1125 b 404 1076 455 1086 432 1076 b 337 1101 377 1076 355 1084 b 310 1169 319 1117 310 1140 b 339 1241 310 1199 319 1223 b 408 1268 358 1259 381 1268 b 474 1244 435 1268 457 1260 b 500 1175 491 1228 500 1205 m 775 1175 b 748 1106 775 1148 766 1125 b 679 1076 730 1086 707 1076 b 612 1101 652 1076 630 1084 b 585 1169 594 1117 585 1140 b 614 1241 585 1199 594 1223 b 683 1268 633 1259 656 1268 b 749 1244 710 1268 732 1260 b 775 1175 766 1228 775 1205 "},"Ì":{"ha":404,"x_min":0,"x_max":0,"o":"m 208 983 l 379 983 l 206 0 l 35 0 m 260 1061 l 64 1261 l 247 1261 l 385 1061 "},"Í":{"ha":404,"x_min":0,"x_max":0,"o":"m 208 983 l 379 983 l 206 0 l 35 0 m 218 1061 l 392 1261 l 576 1261 l 347 1061 "},"Î":{"ha":404,"x_min":0,"x_max":0,"o":"m 208 983 l 379 983 l 206 0 l 35 0 m 331 1188 l 211 1061 l 56 1061 l 250 1261 l 433 1261 l 556 1061 l 406 1061 "},"Ï":{"ha":404,"x_min":0,"x_max":0,"o":"m 208 983 l 379 983 l 206 0 l 35 0 m 279 1175 b 252 1106 279 1148 270 1125 b 183 1076 234 1086 211 1076 b 116 1101 156 1076 134 1084 b 89 1169 98 1117 89 1140 b 118 1241 89 1199 99 1223 b 188 1268 138 1259 161 1268 b 253 1244 214 1268 236 1260 b 279 1175 271 1228 279 1205 m 554 1175 b 527 1106 554 1148 545 1125 b 458 1076 509 1086 486 1076 b 391 1101 431 1076 409 1084 b 364 1169 373 1117 364 1140 b 393 1241 364 1199 374 1223 b 463 1268 413 1259 436 1268 b 528 1244 489 1268 511 1260 b 554 1175 546 1228 554 1205 "},"Ð":{"ha":1051,"x_min":0,"x_max":0,"o":"m 46 567 l 135 567 l 208 983 l 544 983 b 710 960 600 983 655 976 b 857 888 764 945 813 921 b 963 760 900 855 936 813 b 1003 572 989 708 1003 645 b 958 338 1003 486 988 408 b 832 157 928 267 886 207 b 642 41 778 107 715 68 b 403 0 569 14 489 0 l 35 0 l 114 451 l 25 451 m 575 451 l 283 451 l 231 150 l 410 150 b 590 183 478 150 538 161 b 720 273 642 206 685 235 b 799 401 755 310 781 353 b 825 550 816 448 825 498 b 806 661 825 589 819 626 b 747 753 793 696 773 727 b 647 815 720 779 687 799 b 503 838 606 830 558 838 l 351 838 l 304 567 l 596 567 "},"Ñ":{"ha":1094,"x_min":0,"x_max":0,"o":"m 343 764 l 340 764 l 206 0 l 35 0 l 208 983 l 431 983 l 747 243 l 750 243 l 881 983 l 1051 983 l 878 0 l 665 0 m 388 1067 b 415 1131 395 1089 404 1110 b 453 1187 425 1152 438 1171 b 506 1226 469 1203 486 1216 b 575 1240 526 1235 549 1240 b 629 1233 594 1240 612 1238 b 679 1215 647 1229 663 1223 b 724 1197 695 1208 710 1202 b 765 1189 739 1191 752 1189 b 810 1208 784 1189 799 1195 b 839 1250 822 1220 831 1234 l 931 1250 b 903 1185 923 1228 914 1206 b 865 1130 893 1165 880 1146 b 813 1091 850 1114 833 1101 b 744 1076 793 1081 770 1076 b 694 1083 727 1076 710 1078 b 649 1100 679 1087 663 1093 b 599 1121 631 1108 614 1115 b 554 1129 583 1126 568 1129 b 508 1110 536 1129 520 1123 b 479 1067 496 1097 487 1082 l 388 1067 "},"Ò":{"ha":1151,"x_min":0,"x_max":0,"o":"m 638 1008 b 828 978 708 1008 772 998 b 975 894 885 959 934 930 b 1069 760 1016 857 1047 813 b 1103 582 1092 707 1103 648 b 1060 346 1103 499 1089 420 b 943 153 1032 272 993 207 b 765 23 893 98 834 55 b 540 -25 697 -9 622 -25 b 344 4 468 -25 403 -15 b 195 89 286 24 236 52 b 100 224 154 126 122 171 b 67 401 78 276 67 336 b 110 638 67 485 81 563 b 231 831 140 712 180 776 b 411 960 281 885 342 928 b 638 1008 481 992 556 1008 m 540 125 b 705 163 602 125 657 138 b 826 263 753 188 793 221 b 901 404 859 304 884 351 b 926 567 918 457 926 511 b 907 681 926 606 920 644 b 850 774 894 717 875 748 b 757 838 825 801 794 822 b 629 861 720 853 677 861 b 469 824 570 861 516 849 b 347 724 421 799 381 765 b 270 582 314 682 288 635 b 243 419 252 529 243 475 b 263 305 243 379 250 341 b 319 212 275 269 294 238 b 413 149 344 185 375 164 b 540 125 450 133 492 125 m 676 1061 l 481 1261 l 664 1261 l 801 1061 "},"Ó":{"ha":1151,"x_min":0,"x_max":0,"o":"m 638 1008 b 828 978 708 1008 772 998 b 975 894 885 959 934 930 b 1069 760 1016 857 1047 813 b 1103 582 1092 707 1103 648 b 1060 346 1103 499 1089 420 b 943 153 1032 272 993 207 b 765 23 893 98 834 55 b 540 -25 697 -9 622 -25 b 344 4 468 -25 403 -15 b 195 89 286 24 236 52 b 100 224 154 126 122 171 b 67 401 78 276 67 336 b 110 638 67 485 81 563 b 231 831 140 712 180 776 b 411 960 281 885 342 928 b 638 1008 481 992 556 1008 m 540 125 b 705 163 602 125 657 138 b 826 263 753 188 793 221 b 901 404 859 304 884 351 b 926 567 918 457 926 511 b 907 681 926 606 920 644 b 850 774 894 717 875 748 b 757 838 825 801 794 822 b 629 861 720 853 677 861 b 469 824 570 861 516 849 b 347 724 421 799 381 765 b 270 582 314 682 288 635 b 243 419 252 529 243 475 b 263 305 243 379 250 341 b 319 212 275 269 294 238 b 413 149 344 185 375 164 b 540 125 450 133 492 125 m 550 1061 l 724 1261 l 908 1261 l 679 1061 "},"Ô":{"ha":1151,"x_min":0,"x_max":0,"o":"m 638 1008 b 828 978 708 1008 772 998 b 975 894 885 959 934 930 b 1069 760 1016 857 1047 813 b 1103 582 1092 707 1103 648 b 1060 346 1103 499 1089 420 b 943 153 1032 272 993 207 b 765 23 893 98 834 55 b 540 -25 697 -9 622 -25 b 344 4 468 -25 403 -15 b 195 89 286 24 236 52 b 100 224 154 126 122 171 b 67 401 78 276 67 336 b 110 638 67 485 81 563 b 231 831 140 712 180 776 b 411 960 281 885 342 928 b 638 1008 481 992 556 1008 m 540 125 b 705 163 602 125 657 138 b 826 263 753 188 793 221 b 901 404 859 304 884 351 b 926 567 918 457 926 511 b 907 681 926 606 920 644 b 850 774 894 717 875 748 b 757 838 825 801 794 822 b 629 861 720 853 677 861 b 469 824 570 861 516 849 b 347 724 421 799 381 765 b 270 582 314 682 288 635 b 243 419 252 529 243 475 b 263 305 243 379 250 341 b 319 212 275 269 294 238 b 413 149 344 185 375 164 b 540 125 450 133 492 125 m 721 1188 l 601 1061 l 446 1061 l 640 1261 l 824 1261 l 946 1061 l 796 1061 "},"Õ":{"ha":1151,"x_min":0,"x_max":0,"o":"m 638 1008 b 828 978 708 1008 772 998 b 975 894 885 959 934 930 b 1069 760 1016 857 1047 813 b 1103 582 1092 707 1103 648 b 1060 346 1103 499 1089 420 b 943 153 1032 272 993 207 b 765 23 893 98 834 55 b 540 -25 697 -9 622 -25 b 344 4 468 -25 403 -15 b 195 89 286 24 236 52 b 100 224 154 126 122 171 b 67 401 78 276 67 336 b 110 638 67 485 81 563 b 231 831 140 712 180 776 b 411 960 281 885 342 928 b 638 1008 481 992 556 1008 m 540 125 b 705 163 602 125 657 138 b 826 263 753 188 793 221 b 901 404 859 304 884 351 b 926 567 918 457 926 511 b 907 681 926 606 920 644 b 850 774 894 717 875 748 b 757 838 825 801 794 822 b 629 861 720 853 677 861 b 469 824 570 861 516 849 b 347 724 421 799 381 765 b 270 582 314 682 288 635 b 243 419 252 529 243 475 b 263 305 243 379 250 341 b 319 212 275 269 294 238 b 413 149 344 185 375 164 b 540 125 450 133 492 125 m 421 1067 b 448 1131 428 1089 437 1110 b 487 1187 459 1152 472 1171 b 540 1226 502 1203 520 1216 b 608 1240 559 1235 582 1240 b 663 1233 627 1240 645 1238 b 713 1215 680 1229 697 1223 b 758 1197 728 1208 743 1202 b 799 1189 772 1191 786 1189 b 844 1208 817 1189 832 1195 b 872 1250 855 1220 865 1234 l 964 1250 b 937 1185 956 1228 947 1206 b 899 1130 926 1165 913 1146 b 847 1091 884 1114 866 1101 b 778 1076 827 1081 804 1076 b 728 1083 760 1076 744 1078 b 682 1100 712 1087 697 1093 b 632 1121 664 1108 648 1115 b 588 1129 616 1126 601 1129 b 542 1110 569 1129 554 1123 b 513 1067 530 1097 520 1082 l 421 1067 "},"Ö":{"ha":1151,"x_min":0,"x_max":0,"o":"m 638 1008 b 828 978 708 1008 772 998 b 975 894 885 959 934 930 b 1069 760 1016 857 1047 813 b 1103 582 1092 707 1103 648 b 1060 346 1103 499 1089 420 b 943 153 1032 272 993 207 b 765 23 893 98 834 55 b 540 -25 697 -9 622 -25 b 344 4 468 -25 403 -15 b 195 89 286 24 236 52 b 100 224 154 126 122 171 b 67 401 78 276 67 336 b 110 638 67 485 81 563 b 231 831 140 712 180 776 b 411 960 281 885 342 928 b 638 1008 481 992 556 1008 m 540 125 b 705 163 602 125 657 138 b 826 263 753 188 793 221 b 901 404 859 304 884 351 b 926 567 918 457 926 511 b 907 681 926 606 920 644 b 850 774 894 717 875 748 b 757 838 825 801 794 822 b 629 861 720 853 677 861 b 469 824 570 861 516 849 b 347 724 421 799 381 765 b 270 582 314 682 288 635 b 243 419 252 529 243 475 b 263 305 243 379 250 341 b 319 212 275 269 294 238 b 413 149 344 185 375 164 b 540 125 450 133 492 125 m 653 1175 b 626 1106 653 1148 644 1125 b 557 1076 608 1086 585 1076 b 490 1101 530 1076 508 1084 b 463 1169 472 1117 463 1140 b 492 1241 463 1199 472 1223 b 561 1268 511 1259 534 1268 b 627 1244 588 1268 610 1260 b 653 1175 644 1228 653 1205 m 928 1175 b 901 1106 928 1148 919 1125 b 832 1076 883 1086 860 1076 b 765 1101 805 1076 783 1084 b 738 1169 747 1117 738 1140 b 767 1241 738 1199 747 1223 b 836 1268 786 1259 809 1268 b 902 1244 863 1268 885 1260 b 928 1175 919 1228 928 1205 "},"×":{"ha":925,"x_min":0,"x_max":0,"o":"m 715 772 l 813 675 l 561 424 l 818 165 l 715 63 l 461 314 l 210 63 l 107 164 l 364 417 l 108 675 l 208 774 l 463 519 "},"Ø":{"ha":1151,"x_min":0,"x_max":0,"o":"m 1146 974 l 1014 853 b 1080 733 1043 818 1065 778 b 1103 582 1095 688 1103 638 b 1060 346 1103 499 1089 420 b 943 153 1032 272 993 207 b 765 23 893 98 834 55 b 540 -25 697 -9 622 -25 b 342 6 467 -25 401 -15 b 190 94 282 26 232 56 l 58 -25 l 0 35 l 135 158 b 67 401 89 225 67 306 b 110 638 67 485 81 563 b 231 831 140 712 180 776 b 411 960 281 885 342 928 b 638 1008 481 992 556 1008 b 813 983 701 1008 760 1000 b 956 911 866 967 914 943 l 1088 1033 m 315 208 b 408 143 340 181 371 159 b 539 119 445 127 489 119 b 706 158 602 119 658 132 b 829 259 755 183 796 217 b 905 403 863 301 888 349 b 931 568 922 456 931 512 b 889 733 931 629 917 684 l 315 208 m 836 799 b 747 849 810 820 780 837 b 631 868 713 862 674 868 b 466 829 569 868 515 855 b 342 727 417 803 376 769 b 264 583 309 685 282 637 b 236 417 245 528 236 473 b 243 344 236 392 238 367 b 265 278 248 320 255 298 l 836 799 "},"Ù":{"ha":992,"x_min":0,"x_max":0,"o":"m 879 361 b 830 202 869 303 853 250 b 743 81 807 154 778 114 b 617 3 708 47 666 21 b 449 -25 568 -16 512 -25 b 296 -3 392 -25 341 -18 b 181 58 250 11 212 31 b 108 155 149 85 125 117 b 83 282 92 192 83 235 b 85 321 83 295 84 308 b 90 361 86 334 88 347 l 200 983 l 371 983 l 263 368 b 258 336 261 358 259 347 b 257 304 257 325 257 314 b 267 236 257 280 260 257 b 301 179 274 215 286 196 b 362 140 317 163 337 149 b 451 125 386 130 416 125 b 565 147 497 125 535 132 b 640 203 596 161 621 180 b 685 281 660 226 675 252 b 708 368 695 310 703 339 l 817 983 l 989 983 l 879 361 m 564 1061 l 368 1261 l 551 1261 l 689 1061 "},"Ú":{"ha":992,"x_min":0,"x_max":0,"o":"m 879 361 b 830 202 869 303 853 250 b 743 81 807 154 778 114 b 617 3 708 47 666 21 b 449 -25 568 -16 512 -25 b 296 -3 392 -25 341 -18 b 181 58 250 11 212 31 b 108 155 149 85 125 117 b 83 282 92 192 83 235 b 85 321 83 295 84 308 b 90 361 86 334 88 347 l 200 983 l 371 983 l 263 368 b 258 336 261 358 259 347 b 257 304 257 325 257 314 b 267 236 257 280 260 257 b 301 179 274 215 286 196 b 362 140 317 163 337 149 b 451 125 386 130 416 125 b 565 147 497 125 535 132 b 640 203 596 161 621 180 b 685 281 660 226 675 252 b 708 368 695 310 703 339 l 817 983 l 989 983 l 879 361 m 503 1061 l 676 1261 l 861 1261 l 632 1061 "},"Û":{"ha":992,"x_min":0,"x_max":0,"o":"m 879 361 b 830 202 869 303 853 250 b 743 81 807 154 778 114 b 617 3 708 47 666 21 b 449 -25 568 -16 512 -25 b 296 -3 392 -25 341 -18 b 181 58 250 11 212 31 b 108 155 149 85 125 117 b 83 282 92 192 83 235 b 85 321 83 295 84 308 b 90 361 86 334 88 347 l 200 983 l 371 983 l 263 368 b 258 336 261 358 259 347 b 257 304 257 325 257 314 b 267 236 257 280 260 257 b 301 179 274 215 286 196 b 362 140 317 163 337 149 b 451 125 386 130 416 125 b 565 147 497 125 535 132 b 640 203 596 161 621 180 b 685 281 660 226 675 252 b 708 368 695 310 703 339 l 817 983 l 989 983 l 879 361 m 628 1188 l 508 1061 l 353 1061 l 547 1261 l 731 1261 l 853 1061 l 703 1061 "},"Ü":{"ha":992,"x_min":0,"x_max":0,"o":"m 879 361 b 830 202 869 303 853 250 b 743 81 807 154 778 114 b 617 3 708 47 666 21 b 449 -25 568 -16 512 -25 b 296 -3 392 -25 341 -18 b 181 58 250 11 212 31 b 108 155 149 85 125 117 b 83 282 92 192 83 235 b 85 321 83 295 84 308 b 90 361 86 334 88 347 l 200 983 l 371 983 l 263 368 b 258 336 261 358 259 347 b 257 304 257 325 257 314 b 267 236 257 280 260 257 b 301 179 274 215 286 196 b 362 140 317 163 337 149 b 451 125 386 130 416 125 b 565 147 497 125 535 132 b 640 203 596 161 621 180 b 685 281 660 226 675 252 b 708 368 695 310 703 339 l 817 983 l 989 983 l 879 361 m 571 1175 b 544 1106 571 1148 562 1125 b 475 1076 526 1086 503 1076 b 408 1101 448 1076 426 1084 b 381 1169 390 1117 381 1140 b 410 1241 381 1199 390 1223 b 479 1268 429 1259 452 1268 b 545 1244 506 1268 528 1260 b 571 1175 562 1228 571 1205 m 846 1175 b 819 1106 846 1148 837 1125 b 750 1076 801 1086 778 1076 b 683 1101 723 1076 701 1084 b 656 1169 665 1117 656 1140 b 685 1241 656 1199 665 1223 b 754 1268 704 1259 727 1268 b 820 1244 781 1268 803 1260 b 846 1175 837 1228 846 1205 "},"Ý":{"ha":799,"x_min":0,"x_max":0,"o":"m 400 0 l 229 0 l 304 426 l 58 983 l 250 983 l 414 567 l 743 983 l 951 983 l 476 426 m 428 1061 l 601 1261 l 786 1261 l 557 1061 "},"Þ":{"ha":846,"x_min":0,"x_max":0,"o":"m 471 792 b 719 724 579 792 662 769 b 806 533 777 678 806 615 b 776 395 806 481 796 434 b 691 297 756 356 728 323 b 560 238 654 270 611 250 b 392 218 509 225 453 218 l 243 218 l 204 0 l 35 0 l 208 983 l 378 983 l 344 792 l 471 792 m 399 363 b 572 400 474 363 531 375 b 633 517 613 425 633 464 b 582 619 633 566 616 600 b 444 647 548 638 502 647 l 319 647 l 268 363 l 399 363 "},"ß":{"ha":871,"x_min":0,"x_max":0,"o":"m 406 -17 b 342 -13 386 -17 365 -16 b 278 -1 320 -11 298 -7 l 303 136 b 349 126 314 131 329 128 b 399 122 368 123 385 122 b 492 138 432 122 463 127 b 566 181 520 148 545 162 b 615 249 587 199 603 222 b 632 342 626 277 632 307 b 617 411 632 368 627 391 b 576 463 606 431 593 449 b 517 497 559 478 539 489 b 446 508 494 504 471 508 l 428 508 l 453 647 l 472 647 b 531 656 492 647 511 650 b 585 684 551 662 569 672 b 623 732 600 697 613 713 b 638 803 633 751 638 775 b 604 886 638 833 626 861 b 508 924 582 911 550 924 b 424 903 475 924 447 917 b 368 849 402 889 383 871 b 334 776 353 826 342 802 b 315 699 326 749 320 724 l 192 0 l 28 0 l 153 707 b 190 843 161 754 173 800 b 257 958 206 887 228 925 b 364 1037 286 991 321 1017 b 518 1067 406 1057 458 1067 b 628 1050 557 1067 594 1061 b 717 1001 662 1039 692 1023 b 778 924 743 980 763 954 b 800 819 793 893 800 858 b 785 733 800 787 795 758 b 744 666 775 707 761 685 b 686 618 728 647 708 631 b 615 589 664 605 640 595 l 615 586 b 749 498 671 571 716 542 b 800 344 783 454 800 403 b 772 201 800 293 791 245 b 691 86 753 157 726 119 b 566 10 656 54 615 28 b 406 -17 517 -8 464 -17 "},"à":{"ha":749,"x_min":0,"x_max":0,"o":"m 496 422 b 499 448 498 433 499 442 b 500 465 500 454 500 460 b 469 535 500 498 490 521 b 376 556 448 549 417 556 b 276 537 344 556 310 549 b 183 489 241 524 210 508 l 121 599 b 251 662 159 625 202 647 b 400 685 299 677 349 685 b 494 674 431 685 463 681 b 577 640 525 667 553 656 b 636 578 602 625 621 604 b 658 483 651 553 658 521 b 657 453 658 475 658 465 b 653 421 656 441 655 430 l 604 150 b 592 69 600 124 596 97 b 588 0 589 42 588 19 l 438 0 b 446 79 438 25 440 51 l 443 79 b 226 -14 391 17 319 -14 b 154 -6 203 -14 179 -11 b 86 23 129 0 106 9 b 36 77 66 36 49 54 b 17 163 23 100 17 128 b 60 295 17 217 31 261 b 174 374 90 329 127 355 b 328 413 220 393 272 406 b 496 422 385 419 441 422 m 461 306 b 363 302 430 306 397 304 b 270 286 329 300 298 294 b 201 251 242 278 219 266 b 174 189 183 235 174 215 b 183 149 174 173 177 160 b 207 124 189 139 197 130 b 242 110 217 117 229 113 b 282 106 255 107 268 106 b 352 118 307 106 330 110 b 409 152 374 126 393 138 b 449 202 425 166 439 183 b 472 264 460 221 468 242 l 481 306 l 461 306 m 368 783 l 172 983 l 356 983 l 493 783 "},"á":{"ha":749,"x_min":0,"x_max":0,"o":"m 496 422 b 499 448 498 433 499 442 b 500 465 500 454 500 460 b 469 535 500 498 490 521 b 376 556 448 549 417 556 b 276 537 344 556 310 549 b 183 489 241 524 210 508 l 121 599 b 251 662 159 625 202 647 b 400 685 299 677 349 685 b 494 674 431 685 463 681 b 577 640 525 667 553 656 b 636 578 602 625 621 604 b 658 483 651 553 658 521 b 657 453 658 475 658 465 b 653 421 656 441 655 430 l 604 150 b 592 69 600 124 596 97 b 588 0 589 42 588 19 l 438 0 b 446 79 438 25 440 51 l 443 79 b 226 -14 391 17 319 -14 b 154 -6 203 -14 179 -11 b 86 23 129 0 106 9 b 36 77 66 36 49 54 b 17 163 23 100 17 128 b 60 295 17 217 31 261 b 174 374 90 329 127 355 b 328 413 220 393 272 406 b 496 422 385 419 441 422 m 461 306 b 363 302 430 306 397 304 b 270 286 329 300 298 294 b 201 251 242 278 219 266 b 174 189 183 235 174 215 b 183 149 174 173 177 160 b 207 124 189 139 197 130 b 242 110 217 117 229 113 b 282 106 255 107 268 106 b 352 118 307 106 330 110 b 409 152 374 126 393 138 b 449 202 425 166 439 183 b 472 264 460 221 468 242 l 481 306 l 461 306 m 342 783 l 515 983 l 700 983 l 471 783 "},"â":{"ha":749,"x_min":0,"x_max":0,"o":"m 496 422 b 499 448 498 433 499 442 b 500 465 500 454 500 460 b 469 535 500 498 490 521 b 376 556 448 549 417 556 b 276 537 344 556 310 549 b 183 489 241 524 210 508 l 121 599 b 251 662 159 625 202 647 b 400 685 299 677 349 685 b 494 674 431 685 463 681 b 577 640 525 667 553 656 b 636 578 602 625 621 604 b 658 483 651 553 658 521 b 657 453 658 475 658 465 b 653 421 656 441 655 430 l 604 150 b 592 69 600 124 596 97 b 588 0 589 42 588 19 l 438 0 b 446 79 438 25 440 51 l 443 79 b 226 -14 391 17 319 -14 b 154 -6 203 -14 179 -11 b 86 23 129 0 106 9 b 36 77 66 36 49 54 b 17 163 23 100 17 128 b 60 295 17 217 31 261 b 174 374 90 329 127 355 b 328 413 220 393 272 406 b 496 422 385 419 441 422 m 461 306 b 363 302 430 306 397 304 b 270 286 329 300 298 294 b 201 251 242 278 219 266 b 174 189 183 235 174 215 b 183 149 174 173 177 160 b 207 124 189 139 197 130 b 242 110 217 117 229 113 b 282 106 255 107 268 106 b 352 118 307 106 330 110 b 409 152 374 126 393 138 b 449 202 425 166 439 183 b 472 264 460 221 468 242 l 481 306 l 461 306 m 454 910 l 335 783 l 179 783 l 374 983 l 557 983 l 679 783 l 529 783 "},"ã":{"ha":749,"x_min":0,"x_max":0,"o":"m 496 422 b 499 448 498 433 499 442 b 500 465 500 454 500 460 b 469 535 500 498 490 521 b 376 556 448 549 417 556 b 276 537 344 556 310 549 b 183 489 241 524 210 508 l 121 599 b 251 662 159 625 202 647 b 400 685 299 677 349 685 b 494 674 431 685 463 681 b 577 640 525 667 553 656 b 636 578 602 625 621 604 b 658 483 651 553 658 521 b 657 453 658 475 658 465 b 653 421 656 441 655 430 l 604 150 b 592 69 600 124 596 97 b 588 0 589 42 588 19 l 438 0 b 446 79 438 25 440 51 l 443 79 b 226 -14 391 17 319 -14 b 154 -6 203 -14 179 -11 b 86 23 129 0 106 9 b 36 77 66 36 49 54 b 17 163 23 100 17 128 b 60 295 17 217 31 261 b 174 374 90 329 127 355 b 328 413 220 393 272 406 b 496 422 385 419 441 422 m 461 306 b 363 302 430 306 397 304 b 270 286 329 300 298 294 b 201 251 242 278 219 266 b 174 189 183 235 174 215 b 183 149 174 173 177 160 b 207 124 189 139 197 130 b 242 110 217 117 229 113 b 282 106 255 107 268 106 b 352 118 307 106 330 110 b 409 152 374 126 393 138 b 449 202 425 166 439 183 b 472 264 460 221 468 242 l 481 306 l 461 306 m 164 789 b 191 853 171 811 180 833 b 230 909 202 874 215 893 b 283 948 245 925 263 938 b 351 963 303 958 325 963 b 406 956 370 963 388 960 b 456 938 423 951 440 945 b 501 919 471 930 486 924 b 542 911 515 914 529 911 b 587 930 560 911 575 917 b 615 972 598 942 608 956 l 707 972 b 680 908 700 950 691 928 b 642 852 669 887 656 868 b 590 813 627 836 609 823 b 521 799 570 803 547 799 b 471 805 503 799 487 801 b 425 822 455 809 440 815 b 375 843 407 831 391 838 b 331 851 359 849 344 851 b 285 832 312 851 297 845 b 256 789 273 819 263 805 l 164 789 "},"ä":{"ha":749,"x_min":0,"x_max":0,"o":"m 496 422 b 499 448 498 433 499 442 b 500 465 500 454 500 460 b 469 535 500 498 490 521 b 376 556 448 549 417 556 b 276 537 344 556 310 549 b 183 489 241 524 210 508 l 121 599 b 251 662 159 625 202 647 b 400 685 299 677 349 685 b 494 674 431 685 463 681 b 577 640 525 667 553 656 b 636 578 602 625 621 604 b 658 483 651 553 658 521 b 657 453 658 475 658 465 b 653 421 656 441 655 430 l 604 150 b 592 69 600 124 596 97 b 588 0 589 42 588 19 l 438 0 b 446 79 438 25 440 51 l 443 79 b 226 -14 391 17 319 -14 b 154 -6 203 -14 179 -11 b 86 23 129 0 106 9 b 36 77 66 36 49 54 b 17 163 23 100 17 128 b 60 295 17 217 31 261 b 174 374 90 329 127 355 b 328 413 220 393 272 406 b 496 422 385 419 441 422 m 461 306 b 363 302 430 306 397 304 b 270 286 329 300 298 294 b 201 251 242 278 219 266 b 174 189 183 235 174 215 b 183 149 174 173 177 160 b 207 124 189 139 197 130 b 242 110 217 117 229 113 b 282 106 255 107 268 106 b 352 118 307 106 330 110 b 409 152 374 126 393 138 b 449 202 425 166 439 183 b 472 264 460 221 468 242 l 481 306 l 461 306 m 394 897 b 367 828 394 870 385 847 b 299 799 349 808 326 799 b 231 823 272 799 249 807 b 204 892 213 839 204 862 b 233 963 204 921 214 945 b 303 990 253 981 276 990 b 369 966 330 990 352 982 b 394 897 386 950 394 927 m 669 897 b 642 828 669 870 660 847 b 574 799 624 808 601 799 b 506 823 547 799 524 807 b 479 892 488 839 479 862 b 508 963 479 921 489 945 b 578 990 528 981 551 990 b 644 966 605 990 627 982 b 669 897 661 950 669 927 "},"å":{"ha":749,"x_min":0,"x_max":0,"o":"m 496 422 b 499 448 498 433 499 442 b 500 465 500 454 500 460 b 469 535 500 498 490 521 b 376 556 448 549 417 556 b 276 537 344 556 310 549 b 183 489 241 524 210 508 l 121 599 b 251 662 159 625 202 647 b 400 685 299 677 349 685 b 494 674 431 685 463 681 b 577 640 525 667 553 656 b 636 578 602 625 621 604 b 658 483 651 553 658 521 b 657 453 658 475 658 465 b 653 421 656 441 655 430 l 604 150 b 592 69 600 124 596 97 b 588 0 589 42 588 19 l 438 0 b 446 79 438 25 440 51 l 443 79 b 226 -14 391 17 319 -14 b 154 -6 203 -14 179 -11 b 86 23 129 0 106 9 b 36 77 66 36 49 54 b 17 163 23 100 17 128 b 60 295 17 217 31 261 b 174 374 90 329 127 355 b 328 413 220 393 272 406 b 496 422 385 419 441 422 m 461 306 b 363 302 430 306 397 304 b 270 286 329 300 298 294 b 201 251 242 278 219 266 b 174 189 183 235 174 215 b 183 149 174 173 177 160 b 207 124 189 139 197 130 b 242 110 217 117 229 113 b 282 106 255 107 268 106 b 352 118 307 106 330 110 b 409 152 374 126 393 138 b 449 202 425 166 439 183 b 472 264 460 221 468 242 l 481 306 l 461 306 m 422 768 b 332 802 385 768 355 779 b 297 888 309 825 297 853 b 309 951 297 910 301 931 b 342 1003 317 971 328 988 b 393 1038 357 1018 374 1029 b 457 1050 413 1046 434 1050 b 547 1017 494 1050 524 1039 b 581 932 569 994 581 966 b 536 815 581 885 566 846 b 422 768 506 784 469 768 m 513 919 b 496 968 513 938 507 954 b 450 989 485 982 469 989 b 389 963 425 989 405 980 b 365 896 373 945 365 923 b 381 849 365 877 371 862 b 426 829 392 836 407 829 b 489 855 452 829 473 838 b 513 919 505 872 513 894 "},"æ":{"ha":1229,"x_min":0,"x_max":0,"o":"m 874 685 b 984 668 913 685 950 679 b 1072 618 1018 657 1047 640 b 1131 535 1097 596 1117 568 b 1151 418 1144 501 1151 463 b 1147 356 1151 403 1150 383 b 1135 282 1144 330 1140 305 l 640 282 b 639 267 639 277 639 272 b 652 206 639 244 643 224 b 689 158 661 187 673 171 b 744 126 705 144 723 134 b 814 114 766 118 789 114 b 923 138 856 114 893 122 b 1004 201 953 153 980 175 l 1097 114 b 796 -19 1015 25 914 -19 b 636 15 736 -19 682 -8 b 536 118 590 38 556 73 b 497 71 526 102 513 87 b 440 28 481 55 462 41 b 360 -2 417 16 390 6 b 254 -14 329 -10 294 -14 b 176 -6 230 -14 204 -11 b 99 22 149 -1 123 8 b 40 78 76 36 56 55 b 17 167 25 101 17 131 b 60 294 17 220 31 263 b 174 363 90 325 127 348 b 331 392 220 378 272 388 b 506 399 389 397 447 399 b 512 435 508 410 510 422 b 514 463 513 448 514 457 b 478 535 514 498 502 522 b 390 556 455 549 425 556 b 290 537 358 556 324 549 b 197 489 255 524 224 508 l 135 599 b 265 662 173 625 216 647 b 414 685 313 677 363 685 b 558 654 477 685 525 675 b 625 571 591 634 613 606 b 724 651 649 601 682 628 b 874 685 765 673 815 685 m 442 282 b 333 278 402 282 366 281 b 249 263 301 275 273 270 b 194 235 226 256 207 247 b 175 188 181 223 175 207 b 208 124 175 157 186 136 b 286 107 231 113 256 107 b 422 147 344 107 390 120 b 483 258 455 174 475 211 l 488 282 m 1001 399 b 1003 417 1002 405 1003 411 b 1004 433 1004 422 1004 428 b 966 525 1004 469 991 500 b 858 563 941 550 905 563 b 781 547 830 563 804 557 b 720 508 757 537 737 524 b 678 454 703 491 689 474 b 656 399 667 435 659 416 l 1001 399 "},"ç":{"ha":683,"x_min":0,"x_max":0,"o":"m 492 -192 b 472 -259 492 -219 485 -241 b 423 -303 459 -277 443 -292 b 358 -326 403 -314 381 -322 b 292 -333 334 -331 312 -333 b 210 -323 265 -333 238 -330 b 140 -297 182 -316 159 -307 l 178 -231 b 286 -258 210 -249 246 -258 b 315 -256 294 -258 304 -258 b 344 -248 325 -255 335 -252 b 367 -231 353 -244 360 -238 b 376 -201 373 -223 376 -213 b 356 -160 376 -180 369 -166 b 311 -151 342 -154 327 -151 b 285 -153 304 -151 295 -152 b 256 -160 275 -155 265 -157 l 231 -125 l 324 -17 b 206 11 280 -13 241 -4 b 115 71 170 26 140 46 b 58 159 90 96 71 125 b 38 271 44 193 38 230 b 67 426 38 325 47 376 b 149 559 86 476 113 521 b 277 651 184 597 227 628 b 444 685 328 673 383 685 b 587 658 494 685 542 676 b 690 572 632 640 666 611 l 574 478 b 518 530 562 498 543 516 b 436 551 493 544 466 551 b 341 531 402 551 370 544 b 266 474 312 517 287 498 b 217 390 245 450 229 422 b 199 292 205 359 199 326 b 208 226 199 269 202 247 b 239 170 215 205 225 186 b 292 131 253 154 270 141 b 368 117 313 122 338 117 b 469 138 410 117 443 124 b 539 192 494 153 518 170 l 632 97 b 531 23 601 68 568 43 b 404 -15 494 3 451 -10 l 339 -90 b 355 -87 345 -88 351 -87 l 367 -87 b 408 -92 380 -87 393 -89 b 448 -110 422 -96 435 -101 b 479 -142 460 -118 471 -129 b 492 -192 488 -156 492 -172 "},"è":{"ha":783,"x_min":0,"x_max":0,"o":"m 194 282 b 193 267 194 277 193 272 b 206 206 193 244 197 224 b 243 158 215 187 227 171 b 299 126 259 144 277 134 b 368 114 320 118 343 114 b 477 138 411 114 447 122 b 558 201 507 153 534 175 l 651 114 b 350 -19 569 25 469 -19 b 225 1 305 -19 263 -13 b 126 58 187 14 154 33 b 61 151 99 83 77 114 b 38 276 45 187 37 229 b 67 437 38 334 47 387 b 148 567 86 486 113 530 b 272 653 183 604 224 633 b 428 685 319 674 371 685 b 538 668 468 685 504 679 b 626 618 572 657 601 640 b 685 535 651 596 671 568 b 706 418 699 501 706 463 b 701 356 706 403 704 383 b 689 282 699 330 694 305 l 194 282 m 556 399 b 558 417 556 405 557 411 b 558 433 558 422 558 428 b 520 525 558 469 546 500 b 413 563 495 550 459 563 b 335 547 384 563 358 557 b 274 508 312 537 291 524 b 232 454 257 491 243 474 b 210 399 221 435 213 416 l 556 399 m 382 783 l 186 983 l 369 983 l 507 783 "},"é":{"ha":783,"x_min":0,"x_max":0,"o":"m 194 282 b 193 267 194 277 193 272 b 206 206 193 244 197 224 b 243 158 215 187 227 171 b 299 126 259 144 277 134 b 368 114 320 118 343 114 b 477 138 411 114 447 122 b 558 201 507 153 534 175 l 651 114 b 350 -19 569 25 469 -19 b 225 1 305 -19 263 -13 b 126 58 187 14 154 33 b 61 151 99 83 77 114 b 38 276 45 187 37 229 b 67 437 38 334 47 387 b 148 567 86 486 113 530 b 272 653 183 604 224 633 b 428 685 319 674 371 685 b 538 668 468 685 504 679 b 626 618 572 657 601 640 b 685 535 651 596 671 568 b 706 418 699 501 706 463 b 701 356 706 403 704 383 b 689 282 699 330 694 305 l 194 282 m 556 399 b 558 417 556 405 557 411 b 558 433 558 422 558 428 b 520 525 558 469 546 500 b 413 563 495 550 459 563 b 335 547 384 563 358 557 b 274 508 312 537 291 524 b 232 454 257 491 243 474 b 210 399 221 435 213 416 l 556 399 m 342 783 l 515 983 l 700 983 l 471 783 "},"ê":{"ha":783,"x_min":0,"x_max":0,"o":"m 194 282 b 193 267 194 277 193 272 b 206 206 193 244 197 224 b 243 158 215 187 227 171 b 299 126 259 144 277 134 b 368 114 320 118 343 114 b 477 138 411 114 447 122 b 558 201 507 153 534 175 l 651 114 b 350 -19 569 25 469 -19 b 225 1 305 -19 263 -13 b 126 58 187 14 154 33 b 61 151 99 83 77 114 b 38 276 45 187 37 229 b 67 437 38 334 47 387 b 148 567 86 486 113 530 b 272 653 183 604 224 633 b 428 685 319 674 371 685 b 538 668 468 685 504 679 b 626 618 572 657 601 640 b 685 535 651 596 671 568 b 706 418 699 501 706 463 b 701 356 706 403 704 383 b 689 282 699 330 694 305 l 194 282 m 556 399 b 558 417 556 405 557 411 b 558 433 558 422 558 428 b 520 525 558 469 546 500 b 413 563 495 550 459 563 b 335 547 384 563 358 557 b 274 508 312 537 291 524 b 232 454 257 491 243 474 b 210 399 221 435 213 416 l 556 399 m 497 910 l 378 783 l 222 783 l 417 983 l 600 983 l 722 783 l 572 783 "},"ë":{"ha":783,"x_min":0,"x_max":0,"o":"m 194 282 b 193 267 194 277 193 272 b 206 206 193 244 197 224 b 243 158 215 187 227 171 b 299 126 259 144 277 134 b 368 114 320 118 343 114 b 477 138 411 114 447 122 b 558 201 507 153 534 175 l 651 114 b 350 -19 569 25 469 -19 b 225 1 305 -19 263 -13 b 126 58 187 14 154 33 b 61 151 99 83 77 114 b 38 276 45 187 37 229 b 67 437 38 334 47 387 b 148 567 86 486 113 530 b 272 653 183 604 224 633 b 428 685 319 674 371 685 b 538 668 468 685 504 679 b 626 618 572 657 601 640 b 685 535 651 596 671 568 b 706 418 699 501 706 463 b 701 356 706 403 704 383 b 689 282 699 330 694 305 l 194 282 m 556 399 b 558 417 556 405 557 411 b 558 433 558 422 558 428 b 520 525 558 469 546 500 b 413 563 495 550 459 563 b 335 547 384 563 358 557 b 274 508 312 537 291 524 b 232 454 257 491 243 474 b 210 399 221 435 213 416 l 556 399 m 435 897 b 408 828 435 870 426 847 b 339 799 390 808 367 799 b 272 823 312 799 290 807 b 244 892 253 839 244 862 b 274 963 244 921 254 945 b 343 990 293 981 316 990 b 409 966 370 990 392 982 b 435 897 426 950 435 927 m 710 897 b 683 828 710 870 701 847 b 614 799 665 808 642 799 b 547 823 587 799 565 807 b 519 892 528 839 519 862 b 549 963 519 921 529 945 b 618 990 568 981 591 990 b 684 966 645 990 667 982 b 710 897 701 950 710 927 "},"ì":{"ha":371,"x_min":0,"x_max":0,"o":"m 146 667 l 310 667 l 192 0 l 29 0 m 192 783 l -4 983 l 179 983 l 317 783 "},"í":{"ha":371,"x_min":0,"x_max":0,"o":"m 146 667 l 310 667 l 192 0 l 29 0 m 160 783 l 333 983 l 518 983 l 289 783 "},"î":{"ha":371,"x_min":0,"x_max":0,"o":"m 146 667 l 310 667 l 192 0 l 29 0 m 268 910 l 149 783 l -7 783 l 188 983 l 371 983 l 493 783 l 343 783 "},"ï":{"ha":371,"x_min":0,"x_max":0,"o":"m 146 667 l 310 667 l 192 0 l 29 0 m 219 897 b 192 828 219 870 210 847 b 124 799 174 808 151 799 b 56 823 97 799 74 807 b 29 892 38 839 29 862 b 58 963 29 921 39 945 b 128 990 78 981 101 990 b 194 966 155 990 177 982 b 219 897 211 950 219 927 m 494 897 b 467 828 494 870 485 847 b 399 799 449 808 426 799 b 331 823 372 799 349 807 b 304 892 313 839 304 862 b 333 963 304 921 314 945 b 403 990 353 981 376 990 b 469 966 430 990 452 982 b 494 897 486 950 494 927 "},"ð":{"ha":839,"x_min":0,"x_max":0,"o":"m 768 433 b 744 269 768 378 760 323 b 671 124 729 215 704 166 b 544 22 638 82 595 48 b 360 -18 492 -5 431 -18 b 231 3 313 -18 271 -11 b 129 63 192 17 158 37 b 62 154 100 88 78 119 b 38 272 46 189 38 229 b 65 424 38 324 47 375 b 142 556 83 474 108 518 b 265 649 175 595 216 626 b 429 685 313 673 368 685 b 521 673 462 685 492 681 b 588 639 550 665 572 654 l 590 642 b 535 749 575 675 557 711 b 454 851 513 787 486 821 l 292 781 l 224 858 l 389 929 b 347 974 378 943 364 958 b 296 1019 329 989 313 1005 l 429 1092 b 490 1034 450 1073 471 1054 b 532 989 509 1014 523 999 l 701 1063 l 775 986 l 600 911 b 722 701 650 851 691 781 b 768 433 753 621 768 531 m 600 379 b 554 503 600 429 585 470 b 429 551 524 535 482 551 b 334 530 394 551 362 544 b 262 472 306 516 282 496 b 215 389 242 448 226 420 b 199 289 204 357 199 324 b 243 165 199 239 213 198 b 368 117 273 133 314 117 b 464 138 403 117 435 124 b 537 194 493 151 517 170 b 583 278 557 219 572 247 b 600 379 594 310 600 344 "},"ñ":{"ha":811,"x_min":0,"x_max":0,"o":"m 285 563 b 373 651 308 599 337 628 b 501 685 409 673 451 685 b 598 668 538 685 571 679 b 666 624 625 657 648 642 b 706 558 684 605 697 583 b 719 478 715 532 719 506 b 714 415 719 455 718 434 l 640 0 l 478 0 l 542 367 b 547 400 544 378 545 389 b 549 433 548 411 549 422 b 525 512 549 463 541 489 b 439 546 509 534 481 546 b 368 531 412 546 388 541 b 315 490 348 520 330 507 b 277 432 299 472 287 453 b 257 367 267 411 261 389 l 192 0 l 29 0 l 121 524 b 133 592 125 541 128 564 b 142 667 137 619 140 644 l 294 667 b 289 619 294 656 292 641 b 282 563 286 597 284 578 l 285 563 m 214 789 b 241 853 221 811 230 833 b 280 909 252 874 265 893 b 333 948 295 925 313 938 b 401 963 353 958 375 963 b 456 956 420 963 438 960 b 506 938 473 951 490 945 b 551 919 521 930 536 924 b 592 911 565 914 579 911 b 637 930 610 911 625 917 b 665 972 648 942 658 956 l 757 972 b 730 908 750 950 741 928 b 692 852 719 887 706 868 b 640 813 677 836 659 823 b 571 799 620 803 597 799 b 521 805 553 799 537 801 b 475 822 505 809 490 815 b 425 843 457 831 441 838 b 381 851 409 849 394 851 b 335 832 362 851 347 845 b 306 789 323 819 313 805 l 214 789 "},"ò":{"ha":839,"x_min":0,"x_max":0,"o":"m 360 -18 b 231 3 313 -18 271 -11 b 129 63 192 17 158 37 b 62 154 100 88 78 119 b 38 272 46 189 38 229 b 66 428 38 327 47 379 b 147 560 85 478 112 522 b 274 651 182 598 225 628 b 440 685 324 673 379 685 b 570 664 488 685 531 678 b 672 605 609 650 644 630 b 740 513 701 579 723 549 b 764 396 756 478 764 438 b 735 238 764 340 754 288 b 654 106 716 188 689 144 b 526 15 619 68 576 38 b 360 -18 476 -7 421 -18 m 600 379 b 554 503 600 429 585 470 b 429 551 524 535 482 551 b 334 530 394 551 362 544 b 262 472 306 516 282 496 b 215 389 242 448 226 420 b 199 289 204 357 199 324 b 243 165 199 239 213 198 b 368 117 273 133 314 117 b 464 138 403 117 435 124 b 537 194 493 151 517 170 b 583 278 557 219 572 247 b 600 379 594 310 600 344 m 396 783 l 200 983 l 383 983 l 521 783 "},"ó":{"ha":839,"x_min":0,"x_max":0,"o":"m 360 -18 b 231 3 313 -18 271 -11 b 129 63 192 17 158 37 b 62 154 100 88 78 119 b 38 272 46 189 38 229 b 66 428 38 327 47 379 b 147 560 85 478 112 522 b 274 651 182 598 225 628 b 440 685 324 673 379 685 b 570 664 488 685 531 678 b 672 605 609 650 644 630 b 740 513 701 579 723 549 b 764 396 756 478 764 438 b 735 238 764 340 754 288 b 654 106 716 188 689 144 b 526 15 619 68 576 38 b 360 -18 476 -7 421 -18 m 600 379 b 554 503 600 429 585 470 b 429 551 524 535 482 551 b 334 530 394 551 362 544 b 262 472 306 516 282 496 b 215 389 242 448 226 420 b 199 289 204 357 199 324 b 243 165 199 239 213 198 b 368 117 273 133 314 117 b 464 138 403 117 435 124 b 537 194 493 151 517 170 b 583 278 557 219 572 247 b 600 379 594 310 600 344 m 375 783 l 549 983 l 733 983 l 504 783 "},"ô":{"ha":839,"x_min":0,"x_max":0,"o":"m 360 -18 b 231 3 313 -18 271 -11 b 129 63 192 17 158 37 b 62 154 100 88 78 119 b 38 272 46 189 38 229 b 66 428 38 327 47 379 b 147 560 85 478 112 522 b 274 651 182 598 225 628 b 440 685 324 673 379 685 b 570 664 488 685 531 678 b 672 605 609 650 644 630 b 740 513 701 579 723 549 b 764 396 756 478 764 438 b 735 238 764 340 754 288 b 654 106 716 188 689 144 b 526 15 619 68 576 38 b 360 -18 476 -7 421 -18 m 600 379 b 554 503 600 429 585 470 b 429 551 524 535 482 551 b 334 530 394 551 362 544 b 262 472 306 516 282 496 b 215 389 242 448 226 420 b 199 289 204 357 199 324 b 243 165 199 239 213 198 b 368 117 273 133 314 117 b 464 138 403 117 435 124 b 537 194 493 151 517 170 b 583 278 557 219 572 247 b 600 379 594 310 600 344 m 507 910 l 388 783 l 232 783 l 426 983 l 610 983 l 732 783 l 582 783 "},"õ":{"ha":839,"x_min":0,"x_max":0,"o":"m 360 -18 b 231 3 313 -18 271 -11 b 129 63 192 17 158 37 b 62 154 100 88 78 119 b 38 272 46 189 38 229 b 66 428 38 327 47 379 b 147 560 85 478 112 522 b 274 651 182 598 225 628 b 440 685 324 673 379 685 b 570 664 488 685 531 678 b 672 605 609 650 644 630 b 740 513 701 579 723 549 b 764 396 756 478 764 438 b 735 238 764 340 754 288 b 654 106 716 188 689 144 b 526 15 619 68 576 38 b 360 -18 476 -7 421 -18 m 600 379 b 554 503 600 429 585 470 b 429 551 524 535 482 551 b 334 530 394 551 362 544 b 262 472 306 516 282 496 b 215 389 242 448 226 420 b 199 289 204 357 199 324 b 243 165 199 239 213 198 b 368 117 273 133 314 117 b 464 138 403 117 435 124 b 537 194 493 151 517 170 b 583 278 557 219 572 247 b 600 379 594 310 600 344 m 219 789 b 247 853 227 811 236 833 b 285 909 257 874 270 893 b 338 948 301 925 318 938 b 407 963 358 958 381 963 b 461 956 425 963 444 960 b 511 938 479 951 495 945 b 556 919 527 930 542 924 b 597 911 571 914 584 911 b 642 930 616 911 631 917 b 671 972 654 942 663 956 l 763 972 b 735 908 755 950 746 928 b 697 852 725 887 712 868 b 645 813 682 836 665 823 b 576 799 625 803 602 799 b 526 805 559 799 542 801 b 481 822 511 809 495 815 b 431 843 463 831 446 838 b 386 851 415 849 400 851 b 340 832 368 851 352 845 b 311 789 328 819 319 805 l 219 789 "},"ö":{"ha":839,"x_min":0,"x_max":0,"o":"m 360 -18 b 231 3 313 -18 271 -11 b 129 63 192 17 158 37 b 62 154 100 88 78 119 b 38 272 46 189 38 229 b 66 428 38 327 47 379 b 147 560 85 478 112 522 b 274 651 182 598 225 628 b 440 685 324 673 379 685 b 570 664 488 685 531 678 b 672 605 609 650 644 630 b 740 513 701 579 723 549 b 764 396 756 478 764 438 b 735 238 764 340 754 288 b 654 106 716 188 689 144 b 526 15 619 68 576 38 b 360 -18 476 -7 421 -18 m 600 379 b 554 503 600 429 585 470 b 429 551 524 535 482 551 b 334 530 394 551 362 544 b 262 472 306 516 282 496 b 215 389 242 448 226 420 b 199 289 204 357 199 324 b 243 165 199 239 213 198 b 368 117 273 133 314 117 b 464 138 403 117 435 124 b 537 194 493 151 517 170 b 583 278 557 219 572 247 b 600 379 594 310 600 344 m 450 897 b 423 828 450 870 441 847 b 354 799 405 808 382 799 b 287 823 327 799 305 807 b 260 892 269 839 260 862 b 289 963 260 921 269 945 b 358 990 308 981 331 990 b 424 966 385 990 407 982 b 450 897 441 950 450 927 m 725 897 b 698 828 725 870 716 847 b 629 799 680 808 657 799 b 562 823 602 799 580 807 b 535 892 544 839 535 862 b 564 963 535 921 544 945 b 633 990 583 981 606 990 b 699 966 660 990 682 982 b 725 897 716 950 725 927 "},"÷":{"ha":925,"x_min":0,"x_max":0,"o":"m 358 671 b 389 744 358 700 369 724 b 463 775 409 765 434 775 b 536 744 491 775 516 765 b 567 671 556 724 567 700 b 536 597 567 642 556 618 b 463 567 516 577 491 567 b 389 597 434 567 409 577 b 358 671 369 618 358 642 m 358 171 b 389 244 358 200 369 224 b 463 275 409 265 434 275 b 536 244 491 275 516 265 b 567 171 556 224 567 200 b 536 97 567 142 556 118 b 463 67 516 77 491 67 b 389 97 434 67 409 77 b 358 171 369 118 358 142 m 111 496 l 814 496 l 814 347 l 111 347 "},"ø":{"ha":839,"x_min":0,"x_max":0,"o":"m -19 19 l 86 111 b 50 185 70 133 58 158 b 38 272 42 212 38 241 b 66 428 38 327 47 379 b 147 560 85 478 112 522 b 274 651 182 598 225 628 b 440 685 324 673 379 685 b 563 666 485 685 525 678 b 663 614 600 653 633 636 l 772 708 l 821 653 l 714 560 b 751 485 730 537 742 512 b 764 396 759 458 764 428 b 735 238 764 340 754 288 b 654 106 716 188 689 144 b 526 15 619 68 576 38 b 360 -18 476 -7 421 -18 b 236 1 315 -18 274 -12 b 136 56 198 13 165 31 l 26 -37 m 546 510 b 429 551 515 538 476 551 b 334 530 394 551 362 544 b 262 472 306 516 282 496 b 215 389 242 448 226 420 b 199 289 204 357 199 324 b 211 218 199 262 203 238 l 546 510 m 249 160 b 301 128 263 147 281 136 b 368 117 321 121 343 117 b 464 138 403 117 435 124 b 537 194 493 151 517 170 b 583 278 557 219 572 247 b 600 379 594 310 600 344 b 586 451 600 408 595 432 l 249 160 "},"ù":{"ha":811,"x_min":0,"x_max":0,"o":"m 483 104 b 395 16 460 68 431 39 b 267 -18 359 -7 317 -18 b 170 -1 230 -18 197 -12 b 102 43 143 10 120 25 b 62 109 84 62 71 84 b 49 189 53 134 49 161 b 54 251 49 212 50 233 l 128 667 l 290 667 l 226 300 b 222 267 225 289 223 278 b 219 233 220 256 219 244 b 243 155 219 204 227 178 b 329 121 259 132 288 121 b 399 136 355 121 378 126 b 453 177 420 146 438 160 b 491 235 469 194 481 213 b 511 300 501 256 507 278 l 576 667 l 739 667 l 647 143 b 635 75 644 125 640 103 b 626 0 631 47 628 22 l 474 0 b 479 48 475 10 476 26 b 486 104 482 70 484 88 l 483 104 m 371 783 l 175 983 l 358 983 l 496 783 "},"ú":{"ha":811,"x_min":0,"x_max":0,"o":"m 483 104 b 395 16 460 68 431 39 b 267 -18 359 -7 317 -18 b 170 -1 230 -18 197 -12 b 102 43 143 10 120 25 b 62 109 84 62 71 84 b 49 189 53 134 49 161 b 54 251 49 212 50 233 l 128 667 l 290 667 l 226 300 b 222 267 225 289 223 278 b 219 233 220 256 219 244 b 243 155 219 204 227 178 b 329 121 259 132 288 121 b 399 136 355 121 378 126 b 453 177 420 146 438 160 b 491 235 469 194 481 213 b 511 300 501 256 507 278 l 576 667 l 739 667 l 647 143 b 635 75 644 125 640 103 b 626 0 631 47 628 22 l 474 0 b 479 48 475 10 476 26 b 486 104 482 70 484 88 l 483 104 m 369 783 l 543 983 l 728 983 l 499 783 "},"û":{"ha":811,"x_min":0,"x_max":0,"o":"m 483 104 b 395 16 460 68 431 39 b 267 -18 359 -7 317 -18 b 170 -1 230 -18 197 -12 b 102 43 143 10 120 25 b 62 109 84 62 71 84 b 49 189 53 134 49 161 b 54 251 49 212 50 233 l 128 667 l 290 667 l 226 300 b 222 267 225 289 223 278 b 219 233 220 256 219 244 b 243 155 219 204 227 178 b 329 121 259 132 288 121 b 399 136 355 121 378 126 b 453 177 420 146 438 160 b 491 235 469 194 481 213 b 511 300 501 256 507 278 l 576 667 l 739 667 l 647 143 b 635 75 644 125 640 103 b 626 0 631 47 628 22 l 474 0 b 479 48 475 10 476 26 b 486 104 482 70 484 88 l 483 104 m 479 910 l 360 783 l 204 783 l 399 983 l 582 983 l 704 783 l 554 783 "},"ü":{"ha":811,"x_min":0,"x_max":0,"o":"m 483 104 b 395 16 460 68 431 39 b 267 -18 359 -7 317 -18 b 170 -1 230 -18 197 -12 b 102 43 143 10 120 25 b 62 109 84 62 71 84 b 49 189 53 134 49 161 b 54 251 49 212 50 233 l 128 667 l 290 667 l 226 300 b 222 267 225 289 223 278 b 219 233 220 256 219 244 b 243 155 219 204 227 178 b 329 121 259 132 288 121 b 399 136 355 121 378 126 b 453 177 420 146 438 160 b 491 235 469 194 481 213 b 511 300 501 256 507 278 l 576 667 l 739 667 l 647 143 b 635 75 644 125 640 103 b 626 0 631 47 628 22 l 474 0 b 479 48 475 10 476 26 b 486 104 482 70 484 88 l 483 104 m 426 897 b 399 828 426 870 417 847 b 331 799 381 808 358 799 b 263 823 304 799 281 807 b 236 892 245 839 236 862 b 265 963 236 921 246 945 b 335 990 285 981 308 990 b 401 966 362 990 384 982 b 426 897 418 950 426 927 m 701 897 b 674 828 701 870 692 847 b 606 799 656 808 633 799 b 538 823 579 799 556 807 b 511 892 520 839 511 862 b 540 963 511 921 521 945 b 610 990 560 981 583 990 b 676 966 637 990 659 982 b 701 897 693 950 701 927 "},"ý":{"ha":703,"x_min":0,"x_max":0,"o":"m 282 -144 b 232 -224 265 -174 249 -201 b 177 -284 215 -248 197 -268 b 111 -321 157 -300 135 -312 b 26 -333 87 -329 59 -333 b -16 -331 13 -333 -2 -333 b -58 -324 -30 -330 -44 -327 l -37 -182 b -6 -190 -27 -186 -17 -188 b 24 -192 4 -191 14 -192 b 95 -166 54 -192 78 -183 b 151 -87 112 -149 131 -123 l 201 -1 l 51 667 l 226 667 l 313 178 l 315 178 l 582 667 l 754 667 l 282 -144 m 342 783 l 515 983 l 700 983 l 471 783 "},"þ":{"ha":874,"x_min":0,"x_max":0,"o":"m -33 -333 l 211 1050 l 374 1050 l 283 560 l 288 560 b 388 650 313 599 346 629 b 525 682 429 671 475 682 b 641 661 568 682 606 675 b 730 602 676 647 705 628 b 787 511 754 577 773 546 b 807 394 800 476 807 437 b 780 233 807 337 798 283 b 704 102 762 183 737 140 b 588 13 672 65 633 35 b 440 -19 543 -9 494 -19 b 292 14 379 -19 330 -8 b 207 106 255 36 226 67 l 204 106 l 131 -333 m 640 375 b 598 499 640 424 626 465 b 476 549 570 532 529 549 b 385 528 444 549 413 542 b 310 471 356 514 331 495 b 261 387 290 447 273 419 b 243 286 249 355 243 321 b 289 161 243 235 258 194 b 413 113 319 129 361 113 b 506 133 447 113 478 119 b 578 190 534 147 559 166 b 624 273 598 213 614 241 b 640 375 635 305 640 339 "},"ÿ":{"ha":703,"x_min":0,"x_max":0,"o":"m 282 -144 b 232 -224 265 -174 249 -201 b 177 -284 215 -248 197 -268 b 111 -321 157 -300 135 -312 b 26 -333 87 -329 59 -333 b -16 -331 13 -333 -2 -333 b -58 -324 -30 -330 -44 -327 l -37 -182 b -6 -190 -27 -186 -17 -188 b 24 -192 4 -191 14 -192 b 95 -166 54 -192 78 -183 b 151 -87 112 -149 131 -123 l 201 -1 l 51 667 l 226 667 l 313 178 l 315 178 l 582 667 l 754 667 l 282 -144 m 397 897 b 370 828 397 870 388 847 b 301 799 352 808 329 799 b 234 823 275 799 252 807 b 207 892 216 839 207 862 b 236 963 207 921 217 945 b 306 990 256 981 279 990 b 372 966 332 990 354 982 b 397 897 389 950 397 927 m 672 897 b 645 828 672 870 663 847 b 576 799 627 808 604 799 b 509 823 550 799 527 807 b 482 892 491 839 482 862 b 511 963 482 921 492 945 b 581 990 531 981 554 990 b 647 966 607 990 629 982 b 672 897 664 950 672 927 "},"¤":{"ha":847,"x_min":0,"x_max":0,"o":"m 706 583 b 760 394 742 529 760 466 b 744 290 760 358 755 324 b 703 200 734 257 720 227 l 818 83 l 731 -6 l 611 113 b 425 58 559 76 497 58 b 326 74 391 58 358 63 b 239 114 294 84 265 97 l 118 -6 l 29 83 l 149 204 b 109 292 133 230 120 259 b 93 394 98 325 93 359 b 107 494 93 430 98 463 b 144 581 116 525 129 554 l 29 696 l 118 783 l 233 671 b 323 712 260 688 290 701 b 425 728 356 722 390 728 b 528 713 461 728 496 723 b 615 671 561 702 590 688 l 729 783 l 818 696 l 706 583 m 425 594 b 345 578 395 594 369 589 b 285 535 322 568 301 553 b 247 472 268 517 255 496 b 233 394 238 448 233 422 b 247 316 233 367 238 341 b 285 252 255 291 268 270 b 345 209 301 234 322 220 b 425 193 369 198 395 193 b 506 209 455 193 481 198 b 567 252 530 220 550 234 b 605 316 583 270 596 291 b 618 394 614 341 618 367 b 605 472 618 422 614 448 b 567 535 596 496 583 517 b 506 578 550 553 530 568 b 425 594 481 589 455 594 "},"¦":{"ha":308,"x_min":0,"x_max":0,"o":"m 225 451 l 83 451 l 83 938 l 225 938 m 225 -243 l 83 -243 l 83 243 l 225 243 "},"¨":{"ha":361,"x_min":0,"x_max":0,"o":"m 219 897 b 192 828 219 870 210 847 b 124 799 174 808 151 799 b 56 823 97 799 74 807 b 29 892 38 839 29 862 b 58 963 29 921 39 945 b 128 990 78 981 101 990 b 194 966 155 990 177 982 b 219 897 211 950 219 927 m 494 897 b 467 828 494 870 485 847 b 399 799 449 808 426 799 b 331 823 372 799 349 807 b 304 892 313 839 304 862 b 333 963 304 921 314 945 b 403 990 353 981 376 990 b 469 966 430 990 452 982 b 494 897 486 950 494 927 "},"´":{"ha":361,"x_min":0,"x_max":0,"o":"m 176 783 l 350 983 l 535 983 l 306 783 "},"¸":{"ha":361,"x_min":0,"x_max":0,"o":"m 244 -192 b 225 -259 244 -219 238 -241 b 176 -303 212 -277 196 -292 b 110 -326 156 -314 134 -322 b 44 -333 87 -331 65 -333 b -37 -323 18 -333 -10 -330 b -107 -297 -65 -316 -88 -307 l -69 -231 b 39 -258 -37 -249 -1 -258 b 67 -256 47 -258 57 -258 b 97 -248 78 -255 88 -252 b 119 -231 105 -244 113 -238 b 129 -201 126 -223 129 -213 b 108 -160 129 -180 122 -166 b 64 -151 94 -154 80 -151 b 38 -153 56 -151 48 -152 b 8 -160 27 -155 18 -157 l -17 -125 l 92 0 l 171 0 l 92 -90 b 108 -87 98 -88 103 -87 l 119 -87 b 160 -92 132 -87 146 -89 b 201 -110 175 -96 188 -101 b 232 -142 213 -118 224 -129 b 244 -192 240 -156 244 -172 "},"¼":{"ha":1250,"x_min":0,"x_max":0,"o":"m 993 0 l 875 0 l 896 124 l 629 124 l 646 221 l 953 596 l 1093 596 l 1029 226 l 1110 226 l 1090 124 l 1014 124 m 944 443 l 775 226 l 911 226 l 951 443 m 306 831 l 189 746 l 132 831 l 347 983 l 460 983 l 356 388 l 226 388 m 186 8 l 946 1028 l 1032 974 l 272 -46 "},"½":{"ha":1250,"x_min":0,"x_max":0,"o":"m 306 831 l 189 746 l 132 831 l 347 983 l 460 983 l 356 388 l 226 388 m 761 450 b 845 565 780 501 808 539 b 972 603 883 590 925 603 b 1107 560 1028 603 1073 589 b 1158 443 1141 532 1158 493 b 1151 383 1158 421 1156 401 b 1126 333 1146 366 1138 349 b 1084 285 1115 316 1101 300 b 1022 233 1067 269 1046 252 l 864 110 l 1096 110 l 1075 0 l 688 0 l 707 107 l 963 317 b 1043 436 1016 361 1043 401 b 1022 486 1043 459 1036 476 b 967 501 1008 496 990 501 b 905 480 941 501 920 494 b 869 419 890 466 878 445 l 761 450 m 186 8 l 946 1028 l 1032 974 l 272 -46 "},"¾":{"ha":1250,"x_min":0,"x_max":0,"o":"m 993 0 l 875 0 l 896 124 l 629 124 l 646 221 l 953 596 l 1093 596 l 1029 226 l 1110 226 l 1090 124 l 1014 124 m 944 443 l 775 226 l 911 226 l 951 443 m 186 8 l 946 1028 l 1032 974 l 272 -46 m 275 750 b 394 843 355 750 394 781 b 376 888 394 863 388 878 b 329 901 363 897 348 901 b 276 888 308 901 290 897 b 235 839 261 879 248 863 l 144 892 b 228 976 168 931 196 959 b 338 1001 261 993 298 1001 b 412 988 365 1001 390 997 b 467 953 434 979 452 968 b 500 903 481 938 493 921 b 511 846 507 884 511 865 b 479 752 511 808 500 777 b 400 704 458 728 431 712 b 465 657 428 694 450 678 b 489 585 481 636 489 612 b 472 497 489 551 483 522 b 424 435 460 472 444 451 b 355 397 404 418 381 406 b 271 385 328 389 300 385 b 142 422 218 385 175 397 b 71 521 108 446 85 479 l 182 554 b 217 503 189 530 201 513 b 272 489 234 494 252 489 b 345 513 305 489 329 497 b 369 575 361 529 369 550 b 339 636 369 602 359 622 b 260 657 319 650 292 657 l 228 657 l 243 750 l 275 750 "},"Ā":{"ha":928,"x_min":0,"x_max":0,"o":"m 643 226 l 222 226 l 82 0 l -121 0 l 521 983 l 669 983 l 865 0 l 683 0 m 306 374 l 619 374 l 554 786 m 411 1211 l 853 1211 l 833 1104 l 393 1104 "},"ā":{"ha":749,"x_min":0,"x_max":0,"o":"m 496 422 b 499 448 498 433 499 442 b 500 465 500 454 500 460 b 469 535 500 498 490 521 b 376 556 448 549 417 556 b 276 537 344 556 310 549 b 183 489 241 524 210 508 l 121 599 b 251 662 159 625 202 647 b 400 685 299 677 349 685 b 494 674 431 685 463 681 b 577 640 525 667 553 656 b 636 578 602 625 621 604 b 658 483 651 553 658 521 b 657 453 658 475 658 465 b 653 421 656 441 655 430 l 604 150 b 592 69 600 124 596 97 b 588 0 589 42 588 19 l 438 0 b 446 79 438 25 440 51 l 443 79 b 226 -14 391 17 319 -14 b 154 -6 203 -14 179 -11 b 86 23 129 0 106 9 b 36 77 66 36 49 54 b 17 163 23 100 17 128 b 60 295 17 217 31 261 b 174 374 90 329 127 355 b 328 413 220 393 272 406 b 496 422 385 419 441 422 m 461 306 b 363 302 430 306 397 304 b 270 286 329 300 298 294 b 201 251 242 278 219 266 b 174 189 183 235 174 215 b 183 149 174 173 177 160 b 207 124 189 139 197 130 b 242 110 217 117 229 113 b 282 106 255 107 268 106 b 352 118 307 106 330 110 b 409 152 374 126 393 138 b 449 202 425 166 439 183 b 472 264 460 221 468 242 l 481 306 l 461 306 m 226 933 l 668 933 l 649 826 l 208 826 "},"Ă":{"ha":928,"x_min":0,"x_max":0,"o":"m 643 226 l 222 226 l 82 0 l -121 0 l 521 983 l 669 983 l 865 0 l 683 0 m 306 374 l 619 374 l 554 786 m 854 1261 b 761 1111 838 1194 806 1144 b 594 1063 716 1079 660 1063 b 440 1110 529 1063 477 1078 b 385 1261 403 1141 385 1192 l 476 1261 b 514 1188 476 1226 489 1202 b 604 1168 539 1175 569 1168 b 703 1185 643 1168 676 1174 b 764 1261 731 1197 751 1222 l 854 1261 "},"ă":{"ha":749,"x_min":0,"x_max":0,"o":"m 496 422 b 499 448 498 433 499 442 b 500 465 500 454 500 460 b 469 535 500 498 490 521 b 376 556 448 549 417 556 b 276 537 344 556 310 549 b 183 489 241 524 210 508 l 121 599 b 251 662 159 625 202 647 b 400 685 299 677 349 685 b 494 674 431 685 463 681 b 577 640 525 667 553 656 b 636 578 602 625 621 604 b 658 483 651 553 658 521 b 657 453 658 475 658 465 b 653 421 656 441 655 430 l 604 150 b 592 69 600 124 596 97 b 588 0 589 42 588 19 l 438 0 b 446 79 438 25 440 51 l 443 79 b 226 -14 391 17 319 -14 b 154 -6 203 -14 179 -11 b 86 23 129 0 106 9 b 36 77 66 36 49 54 b 17 163 23 100 17 128 b 60 295 17 217 31 261 b 174 374 90 329 127 355 b 328 413 220 393 272 406 b 496 422 385 419 441 422 m 461 306 b 363 302 430 306 397 304 b 270 286 329 300 298 294 b 201 251 242 278 219 266 b 174 189 183 235 174 215 b 183 149 174 173 177 160 b 207 124 189 139 197 130 b 242 110 217 117 229 113 b 282 106 255 107 268 106 b 352 118 307 106 330 110 b 409 152 374 126 393 138 b 449 202 425 166 439 183 b 472 264 460 221 468 242 l 481 306 l 461 306 m 674 983 b 581 833 657 916 626 866 b 414 785 535 801 480 785 b 260 832 348 785 297 800 b 204 983 223 863 204 914 l 296 983 b 333 910 296 948 308 924 b 424 890 358 897 388 890 b 523 908 463 890 496 896 b 583 983 550 919 570 944 l 674 983 "},"Ą":{"ha":928,"x_min":0,"x_max":0,"o":"m 788 -271 b 718 -309 765 -287 742 -299 b 640 -324 694 -319 668 -324 b 552 -297 603 -324 574 -315 b 519 -212 530 -278 519 -250 b 534 -152 519 -192 524 -172 b 572 -95 544 -132 556 -113 b 625 -44 588 -77 606 -60 b 683 0 644 -28 664 -13 l 643 226 l 222 226 l 82 0 l -121 0 l 521 983 l 669 983 l 865 0 l 768 0 b 720 -42 752 -13 736 -27 b 676 -87 704 -56 689 -72 b 644 -135 663 -103 653 -119 b 632 -185 636 -152 632 -168 b 688 -233 632 -217 650 -233 b 728 -225 701 -233 715 -231 b 765 -204 742 -219 754 -212 l 788 -271 m 306 374 l 619 374 l 554 786 "},"ą":{"ha":749,"x_min":0,"x_max":0,"o":"m 538 -271 b 468 -309 515 -287 492 -299 b 390 -324 444 -319 418 -324 b 302 -297 353 -324 324 -315 b 269 -212 280 -278 269 -250 b 285 -151 269 -192 275 -172 b 324 -93 295 -131 308 -112 b 378 -41 341 -75 359 -57 b 438 3 398 -25 418 -10 b 446 79 438 27 440 52 l 443 79 b 226 -14 391 17 319 -14 b 154 -6 203 -14 179 -11 b 86 23 129 0 106 9 b 36 77 66 36 49 54 b 17 163 23 100 17 128 b 60 295 17 217 31 261 b 174 374 90 329 127 355 b 328 413 220 393 272 406 b 496 422 385 419 441 422 b 499 448 498 433 499 442 b 500 465 500 454 500 460 b 469 535 500 498 490 521 b 376 556 448 549 417 556 b 276 537 344 556 310 549 b 183 489 241 524 210 508 l 121 599 b 251 662 159 625 202 647 b 400 685 299 677 349 685 b 494 674 431 685 463 681 b 577 640 525 667 553 656 b 636 578 602 625 621 604 b 658 483 651 553 658 521 b 657 453 658 475 658 465 b 653 421 656 441 655 430 l 604 150 b 592 69 600 124 596 97 b 588 0 589 42 588 19 l 518 0 b 470 -42 502 -13 486 -27 b 426 -87 454 -56 439 -72 b 394 -135 413 -103 403 -119 b 382 -185 386 -152 382 -168 b 438 -233 382 -217 400 -233 b 478 -225 451 -233 465 -231 b 515 -204 492 -219 504 -212 l 538 -271 m 461 306 b 363 302 430 306 397 304 b 270 286 329 300 298 294 b 201 251 242 278 219 266 b 174 189 183 235 174 215 b 183 149 174 173 177 160 b 207 124 189 139 197 130 b 242 110 217 117 229 113 b 282 106 255 107 268 106 b 352 118 307 106 330 110 b 409 152 374 126 393 138 b 449 202 425 166 439 183 b 472 264 460 221 468 242 l 481 306 l 461 306 "},"Ć":{"ha":946,"x_min":0,"x_max":0,"o":"m 896 154 b 828 84 876 129 854 106 b 740 27 802 62 773 43 b 633 -11 708 11 672 -2 b 506 -25 594 -20 552 -25 b 326 6 440 -25 380 -15 b 188 92 273 26 227 55 b 99 225 150 129 120 173 b 67 397 77 277 67 334 b 111 636 67 482 81 562 b 234 830 141 710 182 775 b 418 960 286 885 348 928 b 646 1008 488 992 564 1008 b 751 997 682 1008 717 1005 b 845 967 784 990 816 980 b 924 919 874 954 900 938 b 981 858 947 901 966 881 l 846 757 b 817 792 838 768 829 780 b 772 826 805 805 790 816 b 713 851 755 837 735 845 b 640 861 691 858 667 861 b 480 824 582 861 528 849 b 355 724 431 799 390 765 b 274 582 320 682 293 635 b 244 419 254 529 244 475 b 263 305 244 379 251 341 b 317 212 276 269 294 238 b 406 149 341 185 370 164 b 526 125 441 133 481 125 b 667 156 575 125 622 135 b 786 251 711 176 751 208 l 896 154 m 542 1061 l 715 1261 l 900 1261 l 671 1061 "},"ć":{"ha":683,"x_min":0,"x_max":0,"o":"m 574 478 b 518 530 562 498 543 516 b 436 551 493 544 466 551 b 341 531 402 551 370 544 b 266 474 312 517 287 498 b 217 390 245 450 229 422 b 199 292 205 359 199 326 b 208 226 199 269 202 247 b 239 170 215 205 225 186 b 292 131 253 154 270 141 b 368 117 313 122 338 117 b 469 138 410 117 443 124 b 539 192 494 153 518 170 l 632 97 b 513 13 597 62 557 34 b 358 -18 468 -8 417 -18 b 227 3 310 -18 266 -11 b 126 62 188 17 154 36 b 60 153 97 87 76 118 b 38 271 45 188 38 227 b 67 426 38 325 47 376 b 149 559 86 476 113 521 b 277 651 184 597 227 628 b 444 685 328 673 383 685 b 587 658 494 685 542 676 b 690 572 632 640 666 611 l 574 478 m 361 783 l 535 983 l 719 983 l 490 783 "},"Ĉ":{"ha":946,"x_min":0,"x_max":0,"o":"m 896 154 b 828 84 876 129 854 106 b 740 27 802 62 773 43 b 633 -11 708 11 672 -2 b 506 -25 594 -20 552 -25 b 326 6 440 -25 380 -15 b 188 92 273 26 227 55 b 99 225 150 129 120 173 b 67 397 77 277 67 334 b 111 636 67 482 81 562 b 234 830 141 710 182 775 b 418 960 286 885 348 928 b 646 1008 488 992 564 1008 b 751 997 682 1008 717 1005 b 845 967 784 990 816 980 b 924 919 874 954 900 938 b 981 858 947 901 966 881 l 846 757 b 817 792 838 768 829 780 b 772 826 805 805 790 816 b 713 851 755 837 735 845 b 640 861 691 858 667 861 b 480 824 582 861 528 849 b 355 724 431 799 390 765 b 274 582 320 682 293 635 b 244 419 254 529 244 475 b 263 305 244 379 251 341 b 317 212 276 269 294 238 b 406 149 341 185 370 164 b 526 125 441 133 481 125 b 667 156 575 125 622 135 b 786 251 711 176 751 208 l 896 154 m 696 1188 l 576 1061 l 421 1061 l 615 1261 l 799 1261 l 921 1061 l 771 1061 "},"ĉ":{"ha":683,"x_min":0,"x_max":0,"o":"m 574 478 b 518 530 562 498 543 516 b 436 551 493 544 466 551 b 341 531 402 551 370 544 b 266 474 312 517 287 498 b 217 390 245 450 229 422 b 199 292 205 359 199 326 b 208 226 199 269 202 247 b 239 170 215 205 225 186 b 292 131 253 154 270 141 b 368 117 313 122 338 117 b 469 138 410 117 443 124 b 539 192 494 153 518 170 l 632 97 b 513 13 597 62 557 34 b 358 -18 468 -8 417 -18 b 227 3 310 -18 266 -11 b 126 62 188 17 154 36 b 60 153 97 87 76 118 b 38 271 45 188 38 227 b 67 426 38 325 47 376 b 149 559 86 476 113 521 b 277 651 184 597 227 628 b 444 685 328 673 383 685 b 587 658 494 685 542 676 b 690 572 632 640 666 611 l 574 478 m 489 910 l 369 783 l 214 783 l 408 983 l 592 983 l 714 783 l 564 783 "},"Ċ":{"ha":946,"x_min":0,"x_max":0,"o":"m 896 154 b 828 84 876 129 854 106 b 740 27 802 62 773 43 b 633 -11 708 11 672 -2 b 506 -25 594 -20 552 -25 b 326 6 440 -25 380 -15 b 188 92 273 26 227 55 b 99 225 150 129 120 173 b 67 397 77 277 67 334 b 111 636 67 482 81 562 b 234 830 141 710 182 775 b 418 960 286 885 348 928 b 646 1008 488 992 564 1008 b 751 997 682 1008 717 1005 b 845 967 784 990 816 980 b 924 919 874 954 900 938 b 981 858 947 901 966 881 l 846 757 b 817 792 838 768 829 780 b 772 826 805 805 790 816 b 713 851 755 837 735 845 b 640 861 691 858 667 861 b 480 824 582 861 528 849 b 355 724 431 799 390 765 b 274 582 320 682 293 635 b 244 419 254 529 244 475 b 263 305 244 379 251 341 b 317 212 276 269 294 238 b 406 149 341 185 370 164 b 526 125 441 133 481 125 b 667 156 575 125 622 135 b 786 251 711 176 751 208 l 896 154 m 789 1174 b 760 1103 789 1147 779 1123 b 690 1072 741 1082 718 1072 b 622 1097 663 1072 641 1081 b 593 1168 603 1114 593 1138 b 624 1241 593 1198 603 1222 b 694 1269 644 1260 668 1269 b 762 1244 721 1269 744 1261 b 789 1174 780 1227 789 1203 "},"ċ":{"ha":683,"x_min":0,"x_max":0,"o":"m 574 478 b 518 530 562 498 543 516 b 436 551 493 544 466 551 b 341 531 402 551 370 544 b 266 474 312 517 287 498 b 217 390 245 450 229 422 b 199 292 205 359 199 326 b 208 226 199 269 202 247 b 239 170 215 205 225 186 b 292 131 253 154 270 141 b 368 117 313 122 338 117 b 469 138 410 117 443 124 b 539 192 494 153 518 170 l 632 97 b 513 13 597 62 557 34 b 358 -18 468 -8 417 -18 b 227 3 310 -18 266 -11 b 126 62 188 17 154 36 b 60 153 97 87 76 118 b 38 271 45 188 38 227 b 67 426 38 325 47 376 b 149 559 86 476 113 521 b 277 651 184 597 227 628 b 444 685 328 673 383 685 b 587 658 494 685 542 676 b 690 572 632 640 666 611 l 574 478 m 590 896 b 562 825 590 869 581 845 b 492 794 543 805 519 794 b 423 819 465 794 442 803 b 394 890 404 836 394 860 b 425 963 394 920 405 944 b 496 992 445 982 469 992 b 563 966 523 992 545 983 b 590 896 581 949 590 925 "},"Č":{"ha":946,"x_min":0,"x_max":0,"o":"m 896 154 b 828 84 876 129 854 106 b 740 27 802 62 773 43 b 633 -11 708 11 672 -2 b 506 -25 594 -20 552 -25 b 326 6 440 -25 380 -15 b 188 92 273 26 227 55 b 99 225 150 129 120 173 b 67 397 77 277 67 334 b 111 636 67 482 81 562 b 234 830 141 710 182 775 b 418 960 286 885 348 928 b 646 1008 488 992 564 1008 b 751 997 682 1008 717 1005 b 845 967 784 990 816 980 b 924 919 874 954 900 938 b 981 858 947 901 966 881 l 846 757 b 817 792 838 768 829 780 b 772 826 805 805 790 816 b 713 851 755 837 735 845 b 640 861 691 858 667 861 b 480 824 582 861 528 849 b 355 724 431 799 390 765 b 274 582 320 682 293 635 b 244 419 254 529 244 475 b 263 305 244 379 251 341 b 317 212 276 269 294 238 b 406 149 341 185 370 164 b 526 125 441 133 481 125 b 667 156 575 125 622 135 b 786 251 711 176 751 208 l 896 154 m 581 1061 l 458 1261 l 610 1261 l 683 1135 l 803 1261 l 957 1261 l 763 1061 "},"č":{"ha":683,"x_min":0,"x_max":0,"o":"m 574 478 b 518 530 562 498 543 516 b 436 551 493 544 466 551 b 341 531 402 551 370 544 b 266 474 312 517 287 498 b 217 390 245 450 229 422 b 199 292 205 359 199 326 b 208 226 199 269 202 247 b 239 170 215 205 225 186 b 292 131 253 154 270 141 b 368 117 313 122 338 117 b 469 138 410 117 443 124 b 539 192 494 153 518 170 l 632 97 b 513 13 597 62 557 34 b 358 -18 468 -8 417 -18 b 227 3 310 -18 266 -11 b 126 62 188 17 154 36 b 60 153 97 87 76 118 b 38 271 45 188 38 227 b 67 426 38 325 47 376 b 149 559 86 476 113 521 b 277 651 184 597 227 628 b 444 685 328 673 383 685 b 587 658 494 685 542 676 b 690 572 632 640 666 611 l 574 478 m 363 783 l 240 983 l 392 983 l 465 857 l 585 983 l 739 983 l 544 783 "},"Ď":{"ha":1051,"x_min":0,"x_max":0,"o":"m 544 983 b 710 960 600 983 655 976 b 857 888 764 945 813 921 b 963 760 900 855 936 813 b 1003 572 989 708 1003 645 b 958 338 1003 486 988 408 b 832 157 928 267 886 207 b 642 41 778 107 715 68 b 403 0 569 14 489 0 l 35 0 l 208 983 m 410 150 b 590 183 478 150 538 161 b 720 273 642 206 685 235 b 799 401 755 310 781 353 b 825 550 816 448 825 498 b 806 661 825 589 819 626 b 747 753 793 696 773 727 b 647 815 720 779 687 799 b 503 838 606 830 558 838 l 351 838 l 231 150 m 481 1061 l 358 1261 l 510 1261 l 583 1135 l 703 1261 l 857 1261 l 663 1061 "},"ď":{"ha":881,"x_min":0,"x_max":0,"o":"m 888 1050 l 701 0 l 547 0 l 564 106 l 560 106 b 457 15 533 67 499 37 b 319 -17 415 -6 369 -17 b 203 4 277 -17 238 -10 b 115 63 169 18 139 38 b 58 154 90 89 71 119 b 38 271 44 189 38 228 b 65 432 38 328 47 382 b 140 563 83 482 108 526 b 256 652 173 601 211 630 b 404 685 301 674 350 685 b 552 651 465 685 515 674 b 638 560 590 629 618 599 l 640 560 l 724 1050 m 204 290 b 247 167 204 241 218 200 b 368 117 275 133 315 117 b 460 138 400 117 431 124 b 534 194 488 151 513 170 b 583 278 555 219 571 247 b 601 379 595 310 601 344 b 556 504 601 430 586 472 b 432 553 525 537 484 553 b 338 532 398 553 366 546 b 266 476 310 518 286 499 b 220 392 246 452 231 424 b 204 290 209 360 204 326 m 867 713 l 1015 983 l 1174 983 l 1003 713 "},"Đ":{"ha":1051,"x_min":0,"x_max":0,"o":"m 46 567 l 135 567 l 208 983 l 544 983 b 710 960 600 983 655 976 b 857 888 764 945 813 921 b 963 760 900 855 936 813 b 1003 572 989 708 1003 645 b 958 338 1003 486 988 408 b 832 157 928 267 886 207 b 642 41 778 107 715 68 b 403 0 569 14 489 0 l 35 0 l 114 451 l 25 451 m 575 451 l 283 451 l 231 150 l 410 150 b 590 183 478 150 538 161 b 720 273 642 206 685 235 b 799 401 755 310 781 353 b 825 550 816 448 825 498 b 806 661 825 589 819 626 b 747 753 793 696 773 727 b 647 815 720 779 687 799 b 503 838 606 830 558 838 l 351 838 l 304 567 l 596 567 "},"đ":{"ha":881,"x_min":0,"x_max":0,"o":"m 842 792 l 701 0 l 547 0 l 564 106 l 560 106 b 457 15 533 67 499 37 b 319 -17 415 -6 369 -17 b 203 4 277 -17 238 -10 b 115 63 169 18 139 38 b 58 154 90 89 71 119 b 38 271 44 189 38 228 b 65 432 38 328 47 382 b 140 563 83 482 108 526 b 256 652 173 601 211 630 b 404 685 301 674 350 685 b 552 651 465 685 515 674 b 638 560 590 629 618 599 l 640 560 l 679 792 l 454 792 l 474 896 l 697 896 l 724 1050 l 888 1050 l 860 896 l 951 896 l 932 792 m 204 290 b 247 167 204 241 218 200 b 368 117 275 133 315 117 b 460 138 400 117 431 124 b 534 194 488 151 513 170 b 583 278 555 219 571 247 b 601 379 595 310 601 344 b 556 504 601 430 586 472 b 432 553 525 537 484 553 b 338 532 398 553 366 546 b 266 476 310 518 286 499 b 220 392 246 452 231 424 b 204 290 209 360 204 326 "},"Ē":{"ha":811,"x_min":0,"x_max":0,"o":"m 208 983 l 828 983 l 801 833 l 349 833 l 304 579 l 736 579 l 710 435 l 279 435 l 229 153 l 721 153 l 694 0 l 35 0 m 326 1211 l 768 1211 l 749 1104 l 308 1104 "},"ē":{"ha":783,"x_min":0,"x_max":0,"o":"m 194 282 b 193 267 194 277 193 272 b 206 206 193 244 197 224 b 243 158 215 187 227 171 b 299 126 259 144 277 134 b 368 114 320 118 343 114 b 477 138 411 114 447 122 b 558 201 507 153 534 175 l 651 114 b 350 -19 569 25 469 -19 b 225 1 305 -19 263 -13 b 126 58 187 14 154 33 b 61 151 99 83 77 114 b 38 276 45 187 37 229 b 67 437 38 334 47 387 b 148 567 86 486 113 530 b 272 653 183 604 224 633 b 428 685 319 674 371 685 b 538 668 468 685 504 679 b 626 618 572 657 601 640 b 685 535 651 596 671 568 b 706 418 699 501 706 463 b 701 356 706 403 704 383 b 689 282 699 330 694 305 l 194 282 m 556 399 b 558 417 556 405 557 411 b 558 433 558 422 558 428 b 520 525 558 469 546 500 b 413 563 495 550 459 563 b 335 547 384 563 358 557 b 274 508 312 537 291 524 b 232 454 257 491 243 474 b 210 399 221 435 213 416 l 556 399 m 263 933 l 704 933 l 685 826 l 244 826 "},"Ĕ":{"ha":811,"x_min":0,"x_max":0,"o":"m 208 983 l 828 983 l 801 833 l 349 833 l 304 579 l 736 579 l 710 435 l 279 435 l 229 153 l 721 153 l 694 0 l 35 0 m 782 1261 b 689 1111 765 1194 734 1144 b 522 1063 644 1079 588 1063 b 368 1110 456 1063 405 1078 b 313 1261 331 1141 313 1192 l 404 1261 b 442 1188 404 1226 417 1202 b 532 1168 467 1175 497 1168 b 631 1185 571 1168 604 1174 b 692 1261 659 1197 679 1222 l 782 1261 "},"ĕ":{"ha":783,"x_min":0,"x_max":0,"o":"m 194 282 b 193 267 194 277 193 272 b 206 206 193 244 197 224 b 243 158 215 187 227 171 b 299 126 259 144 277 134 b 368 114 320 118 343 114 b 477 138 411 114 447 122 b 558 201 507 153 534 175 l 651 114 b 350 -19 569 25 469 -19 b 225 1 305 -19 263 -13 b 126 58 187 14 154 33 b 61 151 99 83 77 114 b 38 276 45 187 37 229 b 67 437 38 334 47 387 b 148 567 86 486 113 530 b 272 653 183 604 224 633 b 428 685 319 674 371 685 b 538 668 468 685 504 679 b 626 618 572 657 601 640 b 685 535 651 596 671 568 b 706 418 699 501 706 463 b 701 356 706 403 704 383 b 689 282 699 330 694 305 l 194 282 m 556 399 b 558 417 556 405 557 411 b 558 433 558 422 558 428 b 520 525 558 469 546 500 b 413 563 495 550 459 563 b 335 547 384 563 358 557 b 274 508 312 537 291 524 b 232 454 257 491 243 474 b 210 399 221 435 213 416 l 556 399 m 722 983 b 629 833 706 916 675 866 b 463 785 584 801 528 785 b 308 832 397 785 345 800 b 253 983 271 863 253 914 l 344 983 b 382 910 344 948 357 924 b 472 890 407 897 437 890 b 572 908 511 890 544 896 b 632 983 599 919 619 944 l 722 983 "},"Ė":{"ha":811,"x_min":0,"x_max":0,"o":"m 208 983 l 828 983 l 801 833 l 349 833 l 304 579 l 736 579 l 710 435 l 279 435 l 229 153 l 721 153 l 694 0 l 35 0 m 650 1174 b 622 1103 650 1147 641 1123 b 551 1072 603 1082 579 1072 b 483 1097 525 1072 502 1081 b 454 1168 464 1114 454 1138 b 485 1241 454 1198 464 1222 b 556 1269 505 1260 529 1269 b 623 1244 582 1269 605 1261 b 650 1174 641 1227 650 1203 "},"ė":{"ha":783,"x_min":0,"x_max":0,"o":"m 194 282 b 193 267 194 277 193 272 b 206 206 193 244 197 224 b 243 158 215 187 227 171 b 299 126 259 144 277 134 b 368 114 320 118 343 114 b 477 138 411 114 447 122 b 558 201 507 153 534 175 l 651 114 b 350 -19 569 25 469 -19 b 225 1 305 -19 263 -13 b 126 58 187 14 154 33 b 61 151 99 83 77 114 b 38 276 45 187 37 229 b 67 437 38 334 47 387 b 148 567 86 486 113 530 b 272 653 183 604 224 633 b 428 685 319 674 371 685 b 538 668 468 685 504 679 b 626 618 572 657 601 640 b 685 535 651 596 671 568 b 706 418 699 501 706 463 b 701 356 706 403 704 383 b 689 282 699 330 694 305 l 194 282 m 556 399 b 558 417 556 405 557 411 b 558 433 558 422 558 428 b 520 525 558 469 546 500 b 413 563 495 550 459 563 b 335 547 384 563 358 557 b 274 508 312 537 291 524 b 232 454 257 491 243 474 b 210 399 221 435 213 416 l 556 399 m 572 896 b 544 825 572 869 563 845 b 474 794 525 805 501 794 b 405 819 447 794 424 803 b 376 890 386 836 376 860 b 407 963 376 920 387 944 b 478 992 427 982 451 992 b 545 966 505 992 527 983 b 572 896 563 949 572 925 "},"Ę":{"ha":811,"x_min":0,"x_max":0,"o":"m 671 -271 b 601 -309 649 -287 625 -299 b 524 -324 577 -319 551 -324 b 435 -297 487 -324 457 -315 b 403 -212 414 -278 403 -250 b 417 -153 403 -192 408 -172 b 456 -97 427 -133 440 -115 b 508 -45 471 -78 489 -61 b 565 0 528 -29 547 -14 l 35 0 l 208 983 l 828 983 l 801 833 l 349 833 l 304 579 l 736 579 l 710 435 l 279 435 l 229 153 l 721 153 l 694 0 l 651 0 b 603 -42 636 -13 620 -27 b 560 -87 587 -56 573 -72 b 528 -135 547 -103 536 -119 b 515 -185 519 -152 515 -168 b 571 -233 515 -217 534 -233 b 612 -225 585 -233 598 -231 b 649 -204 625 -219 638 -212 l 671 -271 l 671 -271 "},"ę":{"ha":783,"x_min":0,"x_max":0,"o":"m 467 -271 b 397 -309 444 -287 421 -299 b 319 -324 373 -319 347 -324 b 231 -297 282 -324 253 -315 b 199 -212 209 -278 199 -250 b 210 -160 199 -195 203 -177 b 241 -108 218 -142 228 -125 b 285 -61 253 -92 268 -76 b 335 -19 301 -46 318 -32 b 215 3 291 -19 251 -11 b 122 62 179 17 148 36 b 60 153 95 87 75 118 b 38 276 45 189 38 230 b 67 437 38 334 47 387 b 148 567 86 486 113 530 b 272 653 183 604 224 633 b 428 685 319 674 371 685 b 538 668 468 685 504 679 b 626 618 572 657 601 640 b 685 535 651 596 671 568 b 706 418 699 501 706 463 b 701 356 706 403 704 383 b 689 282 699 330 694 305 l 194 282 b 193 267 194 277 193 272 b 206 206 193 244 197 224 b 243 158 215 187 227 171 b 299 126 259 144 277 134 b 368 114 320 118 343 114 b 477 138 411 114 447 122 b 558 201 507 153 534 175 l 651 114 b 432 -11 588 45 515 4 b 388 -51 417 -24 403 -37 b 349 -94 374 -65 361 -80 b 322 -140 338 -109 328 -124 b 311 -185 315 -155 311 -170 b 367 -233 311 -217 330 -233 b 408 -225 381 -233 394 -231 b 444 -204 421 -219 433 -212 l 467 -271 m 556 399 b 558 417 556 405 557 411 b 558 433 558 422 558 428 b 520 525 558 469 546 500 b 413 563 495 550 459 563 b 335 547 384 563 358 557 b 274 508 312 537 291 524 b 232 454 257 491 243 474 b 210 399 221 435 213 416 l 556 399 "},"Ě":{"ha":811,"x_min":0,"x_max":0,"o":"m 208 983 l 828 983 l 801 833 l 349 833 l 304 579 l 736 579 l 710 435 l 279 435 l 229 153 l 721 153 l 694 0 l 35 0 m 433 1061 l 311 1261 l 463 1261 l 536 1135 l 656 1261 l 810 1261 l 615 1061 "},"ě":{"ha":783,"x_min":0,"x_max":0,"o":"m 194 282 b 193 267 194 277 193 272 b 206 206 193 244 197 224 b 243 158 215 187 227 171 b 299 126 259 144 277 134 b 368 114 320 118 343 114 b 477 138 411 114 447 122 b 558 201 507 153 534 175 l 651 114 b 350 -19 569 25 469 -19 b 225 1 305 -19 263 -13 b 126 58 187 14 154 33 b 61 151 99 83 77 114 b 38 276 45 187 37 229 b 67 437 38 334 47 387 b 148 567 86 486 113 530 b 272 653 183 604 224 633 b 428 685 319 674 371 685 b 538 668 468 685 504 679 b 626 618 572 657 601 640 b 685 535 651 596 671 568 b 706 418 699 501 706 463 b 701 356 706 403 704 383 b 689 282 699 330 694 305 l 194 282 m 556 399 b 558 417 556 405 557 411 b 558 433 558 422 558 428 b 520 525 558 469 546 500 b 413 563 495 550 459 563 b 335 547 384 563 358 557 b 274 508 312 537 291 524 b 232 454 257 491 243 474 b 210 399 221 435 213 416 l 556 399 m 361 783 l 239 983 l 390 983 l 464 857 l 583 983 l 738 983 l 543 783 "},"Ĝ":{"ha":1028,"x_min":0,"x_max":0,"o":"m 546 125 b 642 135 582 126 614 129 b 725 163 671 140 698 150 l 768 413 l 557 413 l 585 561 l 961 561 l 874 53 b 708 -4 825 29 769 10 b 521 -25 646 -18 584 -25 b 334 6 452 -25 390 -15 b 191 92 278 26 230 55 b 99 225 152 129 121 173 b 67 397 78 277 67 334 b 111 636 67 482 81 562 b 234 830 141 710 182 775 b 418 960 286 885 348 928 b 646 1008 488 992 564 1008 b 847 972 718 1008 785 996 b 994 858 908 947 957 909 l 860 757 b 774 831 838 787 810 811 b 640 861 739 851 694 861 b 480 824 582 861 528 849 b 355 724 431 799 390 765 b 274 582 320 682 293 635 b 244 419 254 529 244 475 b 265 301 244 377 251 337 b 324 208 278 265 298 234 b 419 147 350 182 381 162 b 546 125 456 132 499 125 m 689 1188 l 569 1061 l 414 1061 l 608 1261 l 792 1261 l 914 1061 l 764 1061 "},"ĝ":{"ha":878,"x_min":0,"x_max":0,"o":"m 664 667 l 819 667 l 714 57 b 669 -103 704 -1 689 -55 b 592 -226 650 -151 624 -192 b 471 -306 559 -261 519 -287 b 297 -333 423 -324 365 -333 b 211 -326 269 -333 241 -331 b 124 -303 181 -321 152 -313 b 42 -265 95 -293 68 -280 b -24 -214 17 -250 -5 -233 l 85 -96 b 181 -167 111 -126 143 -150 b 301 -192 219 -183 259 -192 b 405 -174 342 -192 377 -186 b 476 -126 433 -163 457 -147 b 522 -53 496 -106 511 -82 b 550 39 533 -25 543 6 l 561 92 l 558 92 b 463 16 534 60 503 35 b 329 -12 424 -3 379 -12 b 213 8 287 -12 248 -6 b 124 67 178 22 149 42 b 67 157 100 92 81 122 b 47 274 54 192 47 231 b 74 433 47 330 56 383 b 150 565 92 483 118 527 b 266 653 182 602 221 631 b 414 685 311 674 360 685 b 561 651 475 685 524 674 b 643 565 598 629 625 600 l 647 565 m 214 293 b 256 169 214 244 228 203 b 378 119 284 136 325 119 b 469 140 410 119 441 126 b 544 197 498 154 523 173 b 593 281 565 221 581 249 b 611 381 605 312 611 345 b 565 506 611 431 596 473 b 442 554 535 538 494 554 b 348 533 407 554 376 547 b 276 477 320 519 296 501 b 230 394 256 453 241 426 b 214 293 219 363 214 329 m 535 910 l 415 783 l 260 783 l 454 983 l 638 983 l 760 783 l 610 783 "},"Ğ":{"ha":1028,"x_min":0,"x_max":0,"o":"m 546 125 b 642 135 582 126 614 129 b 725 163 671 140 698 150 l 768 413 l 557 413 l 585 561 l 961 561 l 874 53 b 708 -4 825 29 769 10 b 521 -25 646 -18 584 -25 b 334 6 452 -25 390 -15 b 191 92 278 26 230 55 b 99 225 152 129 121 173 b 67 397 78 277 67 334 b 111 636 67 482 81 562 b 234 830 141 710 182 775 b 418 960 286 885 348 928 b 646 1008 488 992 564 1008 b 847 972 718 1008 785 996 b 994 858 908 947 957 909 l 860 757 b 774 831 838 787 810 811 b 640 861 739 851 694 861 b 480 824 582 861 528 849 b 355 724 431 799 390 765 b 274 582 320 682 293 635 b 244 419 254 529 244 475 b 265 301 244 377 251 337 b 324 208 278 265 298 234 b 419 147 350 182 381 162 b 546 125 456 132 499 125 m 932 1261 b 839 1111 915 1194 884 1144 b 672 1063 794 1079 738 1063 b 518 1110 606 1063 555 1078 b 463 1261 481 1141 463 1192 l 554 1261 b 592 1188 554 1226 567 1202 b 682 1168 617 1175 647 1168 b 781 1185 721 1168 754 1174 b 842 1261 809 1197 829 1222 l 932 1261 "},"ğ":{"ha":878,"x_min":0,"x_max":0,"o":"m 664 667 l 819 667 l 714 57 b 669 -103 704 -1 689 -55 b 592 -226 650 -151 624 -192 b 471 -306 559 -261 519 -287 b 297 -333 423 -324 365 -333 b 211 -326 269 -333 241 -331 b 124 -303 181 -321 152 -313 b 42 -265 95 -293 68 -280 b -24 -214 17 -250 -5 -233 l 85 -96 b 181 -167 111 -126 143 -150 b 301 -192 219 -183 259 -192 b 405 -174 342 -192 377 -186 b 476 -126 433 -163 457 -147 b 522 -53 496 -106 511 -82 b 550 39 533 -25 543 6 l 561 92 l 558 92 b 463 16 534 60 503 35 b 329 -12 424 -3 379 -12 b 213 8 287 -12 248 -6 b 124 67 178 22 149 42 b 67 157 100 92 81 122 b 47 274 54 192 47 231 b 74 433 47 330 56 383 b 150 565 92 483 118 527 b 266 653 182 602 221 631 b 414 685 311 674 360 685 b 561 651 475 685 524 674 b 643 565 598 629 625 600 l 647 565 m 214 293 b 256 169 214 244 228 203 b 378 119 284 136 325 119 b 469 140 410 119 441 126 b 544 197 498 154 523 173 b 593 281 565 221 581 249 b 611 381 605 312 611 345 b 565 506 611 431 596 473 b 442 554 535 538 494 554 b 348 533 407 554 376 547 b 276 477 320 519 296 501 b 230 394 256 453 241 426 b 214 293 219 363 214 329 m 760 983 b 667 833 743 916 712 866 b 500 785 621 801 566 785 b 346 832 434 785 383 800 b 290 983 309 863 290 914 l 382 983 b 419 910 382 948 394 924 b 510 890 444 897 475 890 b 609 908 549 890 582 896 b 669 983 636 919 656 944 l 760 983 "},"Ġ":{"ha":1028,"x_min":0,"x_max":0,"o":"m 546 125 b 642 135 582 126 614 129 b 725 163 671 140 698 150 l 768 413 l 557 413 l 585 561 l 961 561 l 874 53 b 708 -4 825 29 769 10 b 521 -25 646 -18 584 -25 b 334 6 452 -25 390 -15 b 191 92 278 26 230 55 b 99 225 152 129 121 173 b 67 397 78 277 67 334 b 111 636 67 482 81 562 b 234 830 141 710 182 775 b 418 960 286 885 348 928 b 646 1008 488 992 564 1008 b 847 972 718 1008 785 996 b 994 858 908 947 957 909 l 860 757 b 774 831 838 787 810 811 b 640 861 739 851 694 861 b 480 824 582 861 528 849 b 355 724 431 799 390 765 b 274 582 320 682 293 635 b 244 419 254 529 244 475 b 265 301 244 377 251 337 b 324 208 278 265 298 234 b 419 147 350 182 381 162 b 546 125 456 132 499 125 m 774 1174 b 745 1103 774 1147 764 1123 b 675 1072 726 1082 703 1072 b 606 1097 648 1072 625 1081 b 578 1168 587 1114 578 1138 b 608 1241 578 1198 588 1222 b 679 1269 629 1260 652 1269 b 747 1244 706 1269 728 1261 b 774 1174 765 1227 774 1203 "},"ġ":{"ha":878,"x_min":0,"x_max":0,"o":"m 664 667 l 819 667 l 714 57 b 669 -103 704 -1 689 -55 b 592 -226 650 -151 624 -192 b 471 -306 559 -261 519 -287 b 297 -333 423 -324 365 -333 b 211 -326 269 -333 241 -331 b 124 -303 181 -321 152 -313 b 42 -265 95 -293 68 -280 b -24 -214 17 -250 -5 -233 l 85 -96 b 181 -167 111 -126 143 -150 b 301 -192 219 -183 259 -192 b 405 -174 342 -192 377 -186 b 476 -126 433 -163 457 -147 b 522 -53 496 -106 511 -82 b 550 39 533 -25 543 6 l 561 92 l 558 92 b 463 16 534 60 503 35 b 329 -12 424 -3 379 -12 b 213 8 287 -12 248 -6 b 124 67 178 22 149 42 b 67 157 100 92 81 122 b 47 274 54 192 47 231 b 74 433 47 330 56 383 b 150 565 92 483 118 527 b 266 653 182 602 221 631 b 414 685 311 674 360 685 b 561 651 475 685 524 674 b 643 565 598 629 625 600 l 647 565 m 214 293 b 256 169 214 244 228 203 b 378 119 284 136 325 119 b 469 140 410 119 441 126 b 544 197 498 154 523 173 b 593 281 565 221 581 249 b 611 381 605 312 611 345 b 565 506 611 431 596 473 b 442 554 535 538 494 554 b 348 533 407 554 376 547 b 276 477 320 519 296 501 b 230 394 256 453 241 426 b 214 293 219 363 214 329 m 621 896 b 592 825 621 869 611 845 b 522 794 573 805 550 794 b 453 819 495 794 472 803 b 425 890 434 836 425 860 b 456 963 425 920 435 944 b 526 992 476 982 500 992 b 594 966 553 992 576 983 b 621 896 612 949 621 925 "},"Ģ":{"ha":1028,"x_min":0,"x_max":0,"o":"m 546 125 b 642 135 582 126 614 129 b 725 163 671 140 698 150 l 768 413 l 557 413 l 585 561 l 961 561 l 874 53 b 708 -4 825 29 769 10 b 521 -25 646 -18 584 -25 b 334 6 452 -25 390 -15 b 191 92 278 26 230 55 b 99 225 152 129 121 173 b 67 397 78 277 67 334 b 111 636 67 482 81 562 b 234 830 141 710 182 775 b 418 960 286 885 348 928 b 646 1008 488 992 564 1008 b 847 972 718 1008 785 996 b 994 858 908 947 957 909 l 860 757 b 774 831 838 787 810 811 b 640 861 739 851 694 861 b 480 824 582 861 528 849 b 355 724 431 799 390 765 b 274 582 320 682 293 635 b 244 419 254 529 244 475 b 265 301 244 377 251 337 b 324 208 278 265 298 234 b 419 147 350 182 381 162 b 546 125 456 132 499 125 m 256 -333 l 404 -62 l 563 -62 l 392 -333 "},"ģ":{"ha":878,"x_min":0,"x_max":0,"o":"m 664 667 l 819 667 l 714 57 b 669 -103 704 -1 689 -55 b 592 -226 650 -151 624 -192 b 471 -306 559 -261 519 -287 b 297 -333 423 -324 365 -333 b 211 -326 269 -333 241 -331 b 124 -303 181 -321 152 -313 b 42 -265 95 -293 68 -280 b -24 -214 17 -250 -5 -233 l 85 -96 b 181 -167 111 -126 143 -150 b 301 -192 219 -183 259 -192 b 405 -174 342 -192 377 -186 b 476 -126 433 -163 457 -147 b 522 -53 496 -106 511 -82 b 550 39 533 -25 543 6 l 561 92 l 558 92 b 463 16 534 60 503 35 b 329 -12 424 -3 379 -12 b 213 8 287 -12 248 -6 b 124 67 178 22 149 42 b 67 157 100 92 81 122 b 47 274 54 192 47 231 b 74 433 47 330 56 383 b 150 565 92 483 118 527 b 266 653 182 602 221 631 b 414 685 311 674 360 685 b 561 651 475 685 524 674 b 643 565 598 629 625 600 l 647 565 m 214 293 b 256 169 214 244 228 203 b 378 119 284 136 325 119 b 469 140 410 119 441 126 b 544 197 498 154 523 173 b 593 281 565 221 581 249 b 611 381 605 312 611 345 b 565 506 611 431 596 473 b 442 554 535 538 494 554 b 348 533 407 554 376 547 b 276 477 320 519 296 501 b 230 394 256 453 241 426 b 214 293 219 363 214 329 m 683 1054 l 535 783 l 376 783 l 547 1054 "},"Ĥ":{"ha":1013,"x_min":0,"x_max":0,"o":"m 733 438 l 283 438 l 206 0 l 35 0 l 208 983 l 379 983 l 308 585 l 760 585 l 831 983 l 1001 983 l 828 0 l 657 0 m 635 1188 l 515 1061 l 360 1061 l 554 1261 l 738 1261 l 860 1061 l 710 1061 "},"ĥ":{"ha":811,"x_min":0,"x_max":0,"o":"m 542 367 b 547 400 544 378 545 389 b 549 433 548 411 549 422 b 525 512 549 463 541 489 b 439 546 509 534 481 546 b 367 531 412 546 388 541 b 313 490 347 520 328 507 b 276 431 298 472 285 453 b 256 363 266 408 259 386 l 192 0 l 29 0 l 214 1050 l 378 1050 l 293 572 l 296 572 b 375 651 314 602 341 628 b 501 685 409 673 451 685 b 598 668 538 685 571 679 b 666 624 625 657 648 642 b 706 558 684 605 697 583 b 719 478 715 532 719 506 b 714 415 719 455 718 434 l 640 0 l 478 0 m 558 1232 l 439 1106 l 283 1106 l 478 1306 l 661 1306 l 783 1106 l 633 1106 "},"Ħ":{"ha":1013,"x_min":0,"x_max":0,"o":"m 733 438 l 283 438 l 206 0 l 35 0 l 208 983 l 379 983 l 346 799 l 797 799 l 831 983 l 1001 983 l 828 0 l 657 0 m 779 694 l 328 694 l 308 585 l 760 585 "},"ħ":{"ha":811,"x_min":0,"x_max":0,"o":"m 332 792 l 293 572 l 296 572 b 375 651 314 602 341 628 b 501 685 409 673 451 685 b 598 668 538 685 571 679 b 666 624 625 657 648 642 b 706 558 684 605 697 583 b 719 478 715 532 719 506 b 714 415 719 455 718 434 l 640 0 l 478 0 l 542 367 b 547 400 544 378 545 389 b 549 433 548 411 549 422 b 525 512 549 463 541 489 b 439 546 509 534 481 546 b 367 531 412 546 388 541 b 313 490 347 520 328 507 b 276 431 298 472 285 453 b 256 363 266 408 259 386 l 192 0 l 29 0 l 168 792 l 65 792 l 85 896 l 186 896 l 214 1050 l 378 1050 l 350 896 l 563 896 l 543 792 "},"Ĩ":{"ha":404,"x_min":0,"x_max":0,"o":"m 208 983 l 379 983 l 206 0 l 35 0 m 47 1067 b 74 1131 55 1089 64 1110 b 113 1187 85 1152 98 1171 b 166 1226 128 1203 146 1216 b 235 1240 186 1235 209 1240 b 289 1233 253 1240 271 1238 b 339 1215 306 1229 323 1223 b 384 1197 355 1208 370 1202 b 425 1189 398 1191 412 1189 b 470 1208 444 1189 459 1195 b 499 1250 482 1220 491 1234 l 590 1250 b 563 1185 583 1228 574 1206 b 525 1130 553 1165 540 1146 b 473 1091 510 1114 493 1101 b 404 1076 453 1081 430 1076 b 354 1083 387 1076 370 1078 b 308 1100 338 1087 323 1093 b 258 1121 291 1108 274 1115 b 214 1129 243 1126 228 1129 b 168 1110 195 1129 180 1123 b 139 1067 156 1097 146 1082 l 47 1067 "},"ĩ":{"ha":371,"x_min":0,"x_max":0,"o":"m 146 667 l 310 667 l 192 0 l 29 0 m -15 789 b 12 853 -8 811 1 833 b 51 909 22 874 35 893 b 103 948 66 925 84 938 b 172 963 123 958 146 963 b 226 956 191 963 209 960 b 276 938 244 951 261 945 b 322 919 292 930 307 924 b 363 911 336 914 350 911 b 408 930 381 911 396 917 b 436 972 419 942 429 956 l 528 972 b 501 908 520 950 511 928 b 463 852 490 887 477 868 b 410 813 448 836 430 823 b 342 799 391 803 368 799 b 292 805 324 799 307 801 b 246 822 276 809 261 815 b 196 843 228 831 212 838 b 151 851 180 849 165 851 b 106 832 133 851 118 845 b 76 789 94 819 84 805 l -15 789 "},"Ī":{"ha":404,"x_min":0,"x_max":0,"o":"m 208 983 l 379 983 l 206 0 l 35 0 m 107 1211 l 549 1211 l 529 1104 l 89 1104 "},"ī":{"ha":371,"x_min":0,"x_max":0,"o":"m 146 667 l 310 667 l 192 0 l 29 0 m 46 933 l 488 933 l 468 826 l 28 826 "},"Į":{"ha":390,"x_min":0,"x_max":0,"o":"m 213 -271 b 143 -309 190 -287 167 -299 b 65 -324 119 -319 93 -324 b -23 -297 28 -324 -1 -315 b -56 -212 -45 -278 -56 -250 b -41 -153 -56 -192 -51 -172 b -3 -97 -31 -133 -19 -115 b 50 -45 13 -78 31 -61 b 107 0 69 -29 88 -14 l 35 0 l 208 983 l 379 983 l 206 0 l 193 0 b 145 -42 177 -13 161 -27 b 101 -87 129 -56 114 -72 b 69 -135 88 -103 78 -119 b 57 -185 61 -152 57 -168 b 113 -233 57 -217 75 -233 b 153 -225 126 -233 140 -231 b 190 -204 167 -219 179 -212 l 213 -271 l 213 -271 "},"į":{"ha":371,"x_min":0,"x_max":0,"o":"m 200 -271 b 131 -309 178 -287 155 -299 b 53 -324 106 -319 81 -324 b -35 -297 16 -324 -14 -315 b -68 -212 -57 -278 -68 -250 b -53 -153 -68 -192 -63 -172 b -15 -97 -44 -133 -31 -115 b 38 -45 0 -78 18 -61 b 94 0 57 -29 76 -14 l 29 0 l 146 667 l 310 667 l 192 0 l 181 0 b 133 -42 165 -13 149 -27 b 89 -87 116 -56 102 -72 b 57 -135 76 -103 65 -119 b 44 -185 49 -152 44 -168 b 100 -233 44 -217 63 -233 b 141 -225 114 -233 128 -231 b 178 -204 154 -219 167 -212 l 200 -271 m 364 896 b 335 825 364 869 354 845 b 265 794 316 805 293 794 b 197 819 238 794 216 803 b 168 890 178 836 168 860 b 199 963 168 920 178 944 b 269 992 219 982 243 992 b 337 966 296 992 319 983 b 364 896 355 949 364 925 "},"İ":{"ha":404,"x_min":0,"x_max":0,"o":"m 208 983 l 379 983 l 206 0 l 35 0 m 417 1174 b 388 1103 417 1147 407 1123 b 318 1072 369 1082 346 1072 b 249 1097 291 1072 268 1081 b 221 1168 230 1114 221 1138 b 251 1241 221 1198 231 1222 b 322 1269 272 1260 295 1269 b 390 1244 349 1269 372 1261 b 417 1174 408 1227 417 1203 "},"ı":{"ha":371,"x_min":0,"x_max":0,"o":"m 146 667 l 310 667 l 192 0 l 29 0 "},"Ĳ":{"ha":1086,"x_min":0,"x_max":0,"o":"m 208 983 l 379 983 l 206 0 l 35 0 m 963 317 b 934 199 956 279 947 240 b 878 89 922 159 903 122 b 783 7 854 56 822 28 b 633 -25 743 -14 694 -25 b 443 35 555 -25 491 -5 b 358 190 395 75 367 126 l 518 236 b 553 158 522 206 533 180 b 629 126 572 137 598 126 b 697 141 656 126 679 131 b 744 182 716 151 731 164 b 774 244 756 200 766 220 b 792 322 781 269 787 294 l 908 983 l 1081 983 l 963 317 "},"ĳ":{"ha":749,"x_min":0,"x_max":0,"o":"m 146 667 l 310 667 l 192 0 l 29 0 m 364 896 b 335 825 364 869 354 845 b 265 794 316 805 293 794 b 197 819 238 794 216 803 b 168 890 178 836 168 860 b 199 963 168 920 178 944 b 269 992 219 982 243 992 b 337 966 296 992 319 983 b 364 896 355 949 364 925 m 563 -44 b 534 -156 555 -83 546 -120 b 485 -248 522 -191 506 -222 b 405 -310 465 -274 438 -295 b 282 -333 372 -326 331 -333 b 241 -331 268 -333 254 -332 b 208 -325 228 -329 217 -327 l 240 -186 b 263 -190 248 -188 255 -189 b 285 -192 271 -191 278 -192 b 333 -181 304 -192 320 -188 b 365 -150 346 -173 357 -163 b 385 -105 374 -137 380 -122 b 397 -50 389 -88 394 -69 l 524 667 l 688 667 l 563 -44 m 742 896 b 713 825 742 869 732 845 b 643 794 694 805 671 794 b 574 819 616 794 593 803 b 546 890 555 836 546 860 b 576 963 546 920 556 944 b 647 992 597 982 620 992 b 715 966 674 992 697 983 b 742 896 733 949 742 925 "},"Ĵ":{"ha":694,"x_min":0,"x_max":0,"o":"m 571 317 b 542 199 564 279 555 240 b 487 89 530 159 511 122 b 391 7 462 56 430 28 b 242 -25 352 -14 302 -25 b 51 35 163 -25 100 -5 b -33 190 3 75 -25 126 l 126 236 b 161 158 130 206 142 180 b 238 126 181 137 206 126 b 306 141 264 126 287 131 b 352 182 324 151 340 164 b 382 244 365 200 375 220 b 400 322 389 269 395 294 l 517 983 l 689 983 l 571 317 m 636 1188 l 517 1061 l 361 1061 l 556 1261 l 739 1261 l 861 1061 l 711 1061 "},"ĵ":{"ha":371,"x_min":0,"x_max":0,"o":"m 185 -44 b 156 -156 177 -83 168 -120 b 108 -248 145 -191 128 -222 b 27 -310 87 -274 60 -295 b -96 -333 -6 -326 -47 -333 b -137 -331 -110 -333 -123 -332 b -169 -325 -150 -329 -161 -327 l -137 -186 b -115 -190 -130 -188 -122 -189 b -93 -192 -107 -191 -100 -192 b -44 -181 -74 -192 -57 -188 b -12 -150 -31 -173 -21 -163 b 7 -105 -4 -137 2 -122 b 19 -50 12 -88 16 -69 l 146 667 l 310 667 l 185 -44 m 268 910 l 149 783 l -7 783 l 188 983 l 371 983 l 493 783 l 343 783 "},"Ķ":{"ha":897,"x_min":0,"x_max":0,"o":"m 294 494 l 290 494 l 204 0 l 35 0 l 208 983 l 378 983 l 300 547 l 304 547 l 747 983 l 978 983 l 468 519 l 850 0 l 626 0 m 174 -333 l 322 -62 l 481 -62 l 310 -333 "},"ķ":{"ha":724,"x_min":0,"x_max":0,"o":"m 257 342 l 253 342 l 192 0 l 29 0 l 214 1050 l 378 1050 l 260 385 l 264 385 l 565 667 l 779 667 l 425 357 l 668 0 l 467 0 m 81 -333 l 229 -62 l 388 -62 l 217 -333 "},"Ĺ":{"ha":710,"x_min":0,"x_max":0,"o":"m 208 983 l 379 983 l 232 153 l 653 153 l 626 0 l 35 0 m 233 1061 l 407 1261 l 592 1261 l 363 1061 "},"ĺ":{"ha":371,"x_min":0,"x_max":0,"o":"m 214 1050 l 378 1050 l 192 0 l 29 0 m 221 1100 l 394 1300 l 579 1300 l 350 1100 "},"Ļ":{"ha":710,"x_min":0,"x_max":0,"o":"m 208 983 l 379 983 l 232 153 l 653 153 l 626 0 l 35 0 m 94 -333 l 243 -62 l 401 -62 l 231 -333 "},"ļ":{"ha":371,"x_min":0,"x_max":0,"o":"m 214 1050 l 378 1050 l 192 0 l 29 0 m -117 -333 l 32 -62 l 190 -62 l 19 -333 "},"Ľ":{"ha":710,"x_min":0,"x_max":0,"o":"m 208 983 l 379 983 l 232 153 l 653 153 l 626 0 l 35 0 m 421 713 l 569 983 l 728 983 l 557 713 "},"ľ":{"ha":371,"x_min":0,"x_max":0,"o":"m 214 1050 l 378 1050 l 192 0 l 29 0 m 364 713 l 513 983 l 671 983 l 500 713 "},"Ŀ":{"ha":710,"x_min":0,"x_max":0,"o":"m 208 983 l 379 983 l 232 153 l 653 153 l 626 0 l 35 0 m 654 482 b 626 411 654 455 645 431 b 556 381 607 391 583 381 b 487 406 529 381 506 389 b 458 476 468 422 458 446 b 489 549 458 506 469 530 b 560 578 509 568 533 578 b 627 552 587 578 609 569 b 654 482 645 535 654 512 "},"ŀ":{"ha":543,"x_min":0,"x_max":0,"o":"m 214 1050 l 378 1050 l 192 0 l 29 0 m 563 479 b 534 408 563 452 553 429 b 464 378 515 388 492 378 b 395 403 437 378 414 386 b 367 474 376 419 367 443 b 397 547 367 503 377 528 b 468 575 418 566 441 575 b 535 549 495 575 517 566 b 563 479 553 532 563 509 "},"Ł":{"ha":719,"x_min":0,"x_max":0,"o":"m 85 282 l -29 196 l -3 346 l 111 432 l 208 983 l 379 983 l 306 564 l 636 815 l 610 667 l 279 414 l 232 153 l 653 153 l 626 0 l 35 0 "},"ł":{"ha":371,"x_min":0,"x_max":0,"o":"m 192 0 l 29 0 l 103 417 l -11 319 l 15 468 l 129 565 l 214 1050 l 378 1050 l 314 693 l 428 790 l 401 643 l 289 549 "},"Ń":{"ha":1094,"x_min":0,"x_max":0,"o":"m 343 764 l 340 764 l 206 0 l 35 0 l 208 983 l 431 983 l 747 243 l 750 243 l 881 983 l 1051 983 l 878 0 l 665 0 m 535 1061 l 708 1261 l 893 1261 l 664 1061 "},"ń":{"ha":811,"x_min":0,"x_max":0,"o":"m 285 563 b 373 651 308 599 337 628 b 501 685 409 673 451 685 b 598 668 538 685 571 679 b 666 624 625 657 648 642 b 706 558 684 605 697 583 b 719 478 715 532 719 506 b 714 415 719 455 718 434 l 640 0 l 478 0 l 542 367 b 547 400 544 378 545 389 b 549 433 548 411 549 422 b 525 512 549 463 541 489 b 439 546 509 534 481 546 b 368 531 412 546 388 541 b 315 490 348 520 330 507 b 277 432 299 472 287 453 b 257 367 267 411 261 389 l 192 0 l 29 0 l 121 524 b 133 592 125 541 128 564 b 142 667 137 619 140 644 l 294 667 b 289 619 294 656 292 641 b 282 563 286 597 284 578 l 285 563 m 351 783 l 525 983 l 710 983 l 481 783 "},"Ņ":{"ha":1094,"x_min":0,"x_max":0,"o":"m 343 764 l 340 764 l 206 0 l 35 0 l 208 983 l 431 983 l 747 243 l 750 243 l 881 983 l 1051 983 l 878 0 l 665 0 m 221 -333 l 369 -62 l 528 -62 l 357 -333 "},"ņ":{"ha":811,"x_min":0,"x_max":0,"o":"m 285 563 b 373 651 308 599 337 628 b 501 685 409 673 451 685 b 598 668 538 685 571 679 b 666 624 625 657 648 642 b 706 558 684 605 697 583 b 719 478 715 532 719 506 b 714 415 719 455 718 434 l 640 0 l 478 0 l 542 367 b 547 400 544 378 545 389 b 549 433 548 411 549 422 b 525 512 549 463 541 489 b 439 546 509 534 481 546 b 368 531 412 546 388 541 b 315 490 348 520 330 507 b 277 432 299 472 287 453 b 257 367 267 411 261 389 l 192 0 l 29 0 l 121 524 b 133 592 125 541 128 564 b 142 667 137 619 140 644 l 294 667 b 289 619 294 656 292 641 b 282 563 286 597 284 578 l 285 563 m 104 -333 l 253 -62 l 411 -62 l 240 -333 "},"Ň":{"ha":1094,"x_min":0,"x_max":0,"o":"m 343 764 l 340 764 l 206 0 l 35 0 l 208 983 l 431 983 l 747 243 l 750 243 l 881 983 l 1051 983 l 878 0 l 665 0 m 540 1061 l 418 1261 l 569 1261 l 643 1135 l 763 1261 l 917 1261 l 722 1061 "},"ň":{"ha":811,"x_min":0,"x_max":0,"o":"m 285 563 b 373 651 308 599 337 628 b 501 685 409 673 451 685 b 598 668 538 685 571 679 b 666 624 625 657 648 642 b 706 558 684 605 697 583 b 719 478 715 532 719 506 b 714 415 719 455 718 434 l 640 0 l 478 0 l 542 367 b 547 400 544 378 545 389 b 549 433 548 411 549 422 b 525 512 549 463 541 489 b 439 546 509 534 481 546 b 368 531 412 546 388 541 b 315 490 348 520 330 507 b 277 432 299 472 287 453 b 257 367 267 411 261 389 l 192 0 l 29 0 l 121 524 b 133 592 125 541 128 564 b 142 667 137 619 140 644 l 294 667 b 289 619 294 656 292 641 b 282 563 286 597 284 578 l 285 563 m 367 783 l 244 983 l 396 983 l 469 857 l 589 983 l 743 983 l 549 783 "},"ŉ":{"ha":860,"x_min":0,"x_max":0,"o":"m 333 563 b 422 651 356 599 386 628 b 550 685 457 673 500 685 b 647 668 587 685 619 679 b 715 624 674 657 697 642 b 755 558 733 605 746 583 b 768 478 764 532 768 506 b 763 415 768 455 766 434 l 689 0 l 526 0 l 590 367 b 595 400 592 378 594 389 b 597 433 597 411 597 422 b 574 512 597 463 589 489 b 488 546 558 534 529 546 b 417 531 461 546 437 541 b 363 490 396 520 378 507 b 326 432 348 472 335 453 b 306 367 316 411 309 389 l 240 0 l 78 0 l 169 524 b 181 592 173 541 177 564 b 190 667 185 619 188 644 l 343 667 b 338 619 342 656 340 641 b 331 563 335 597 332 578 l 333 563 m 39 713 l 188 983 l 346 983 l 175 713 "},"Ō":{"ha":1151,"x_min":0,"x_max":0,"o":"m 638 1008 b 828 978 708 1008 772 998 b 975 894 885 959 934 930 b 1069 760 1016 857 1047 813 b 1103 582 1092 707 1103 648 b 1060 346 1103 499 1089 420 b 943 153 1032 272 993 207 b 765 23 893 98 834 55 b 540 -25 697 -9 622 -25 b 344 4 468 -25 403 -15 b 195 89 286 24 236 52 b 100 224 154 126 122 171 b 67 401 78 276 67 336 b 110 638 67 485 81 563 b 231 831 140 712 180 776 b 411 960 281 885 342 928 b 638 1008 481 992 556 1008 m 540 125 b 705 163 602 125 657 138 b 826 263 753 188 793 221 b 901 404 859 304 884 351 b 926 567 918 457 926 511 b 907 681 926 606 920 644 b 850 774 894 717 875 748 b 757 838 825 801 794 822 b 629 861 720 853 677 861 b 469 824 570 861 516 849 b 347 724 421 799 381 765 b 270 582 314 682 288 635 b 243 419 252 529 243 475 b 263 305 243 379 250 341 b 319 212 275 269 294 238 b 413 149 344 185 375 164 b 540 125 450 133 492 125 m 483 1211 l 925 1211 l 906 1104 l 465 1104 "},"ō":{"ha":839,"x_min":0,"x_max":0,"o":"m 360 -18 b 231 3 313 -18 271 -11 b 129 63 192 17 158 37 b 62 154 100 88 78 119 b 38 272 46 189 38 229 b 66 428 38 327 47 379 b 147 560 85 478 112 522 b 274 651 182 598 225 628 b 440 685 324 673 379 685 b 570 664 488 685 531 678 b 672 605 609 650 644 630 b 740 513 701 579 723 549 b 764 396 756 478 764 438 b 735 238 764 340 754 288 b 654 106 716 188 689 144 b 526 15 619 68 576 38 b 360 -18 476 -7 421 -18 m 600 379 b 554 503 600 429 585 470 b 429 551 524 535 482 551 b 334 530 394 551 362 544 b 262 472 306 516 282 496 b 215 389 242 448 226 420 b 199 289 204 357 199 324 b 243 165 199 239 213 198 b 368 117 273 133 314 117 b 464 138 403 117 435 124 b 537 194 493 151 517 170 b 583 278 557 219 572 247 b 600 379 594 310 600 344 m 283 933 l 725 933 l 706 826 l 265 826 "},"Ŏ":{"ha":1151,"x_min":0,"x_max":0,"o":"m 638 1008 b 828 978 708 1008 772 998 b 975 894 885 959 934 930 b 1069 760 1016 857 1047 813 b 1103 582 1092 707 1103 648 b 1060 346 1103 499 1089 420 b 943 153 1032 272 993 207 b 765 23 893 98 834 55 b 540 -25 697 -9 622 -25 b 344 4 468 -25 403 -15 b 195 89 286 24 236 52 b 100 224 154 126 122 171 b 67 401 78 276 67 336 b 110 638 67 485 81 563 b 231 831 140 712 180 776 b 411 960 281 885 342 928 b 638 1008 481 992 556 1008 m 540 125 b 705 163 602 125 657 138 b 826 263 753 188 793 221 b 901 404 859 304 884 351 b 926 567 918 457 926 511 b 907 681 926 606 920 644 b 850 774 894 717 875 748 b 757 838 825 801 794 822 b 629 861 720 853 677 861 b 469 824 570 861 516 849 b 347 724 421 799 381 765 b 270 582 314 682 288 635 b 243 419 252 529 243 475 b 263 305 243 379 250 341 b 319 212 275 269 294 238 b 413 149 344 185 375 164 b 540 125 450 133 492 125 m 931 1261 b 838 1111 914 1194 883 1144 b 671 1063 792 1079 737 1063 b 517 1110 605 1063 554 1078 b 461 1261 480 1141 461 1192 l 553 1261 b 590 1188 553 1226 565 1202 b 681 1168 615 1175 645 1168 b 780 1185 719 1168 753 1174 b 840 1261 807 1197 827 1222 l 931 1261 "},"ŏ":{"ha":839,"x_min":0,"x_max":0,"o":"m 360 -18 b 231 3 313 -18 271 -11 b 129 63 192 17 158 37 b 62 154 100 88 78 119 b 38 272 46 189 38 229 b 66 428 38 327 47 379 b 147 560 85 478 112 522 b 274 651 182 598 225 628 b 440 685 324 673 379 685 b 570 664 488 685 531 678 b 672 605 609 650 644 630 b 740 513 701 579 723 549 b 764 396 756 478 764 438 b 735 238 764 340 754 288 b 654 106 716 188 689 144 b 526 15 619 68 576 38 b 360 -18 476 -7 421 -18 m 600 379 b 554 503 600 429 585 470 b 429 551 524 535 482 551 b 334 530 394 551 362 544 b 262 472 306 516 282 496 b 215 389 242 448 226 420 b 199 289 204 357 199 324 b 243 165 199 239 213 198 b 368 117 273 133 314 117 b 464 138 403 117 435 124 b 537 194 493 151 517 170 b 583 278 557 219 572 247 b 600 379 594 310 600 344 m 736 983 b 643 833 719 916 688 866 b 476 785 598 801 542 785 b 322 832 411 785 359 800 b 267 983 285 863 267 914 l 358 983 b 396 910 358 948 371 924 b 486 890 421 897 451 890 b 585 908 525 890 558 896 b 646 983 613 919 633 944 l 736 983 "},"Ő":{"ha":1151,"x_min":0,"x_max":0,"o":"m 638 1008 b 828 978 708 1008 772 998 b 975 894 885 959 934 930 b 1069 760 1016 857 1047 813 b 1103 582 1092 707 1103 648 b 1060 346 1103 499 1089 420 b 943 153 1032 272 993 207 b 765 23 893 98 834 55 b 540 -25 697 -9 622 -25 b 344 4 468 -25 403 -15 b 195 89 286 24 236 52 b 100 224 154 126 122 171 b 67 401 78 276 67 336 b 110 638 67 485 81 563 b 231 831 140 712 180 776 b 411 960 281 885 342 928 b 638 1008 481 992 556 1008 m 540 125 b 705 163 602 125 657 138 b 826 263 753 188 793 221 b 901 404 859 304 884 351 b 926 567 918 457 926 511 b 907 681 926 606 920 644 b 850 774 894 717 875 748 b 757 838 825 801 794 822 b 629 861 720 853 677 861 b 469 824 570 861 516 849 b 347 724 421 799 381 765 b 270 582 314 682 288 635 b 243 419 252 529 243 475 b 263 305 243 379 250 341 b 319 212 275 269 294 238 b 413 149 344 185 375 164 b 540 125 450 133 492 125 m 749 1061 l 922 1261 l 1108 1261 l 878 1061 m 465 1061 l 638 1261 l 824 1261 l 593 1061 "},"ő":{"ha":839,"x_min":0,"x_max":0,"o":"m 360 -18 b 231 3 313 -18 271 -11 b 129 63 192 17 158 37 b 62 154 100 88 78 119 b 38 272 46 189 38 229 b 66 428 38 327 47 379 b 147 560 85 478 112 522 b 274 651 182 598 225 628 b 440 685 324 673 379 685 b 570 664 488 685 531 678 b 672 605 609 650 644 630 b 740 513 701 579 723 549 b 764 396 756 478 764 438 b 735 238 764 340 754 288 b 654 106 716 188 689 144 b 526 15 619 68 576 38 b 360 -18 476 -7 421 -18 m 600 379 b 554 503 600 429 585 470 b 429 551 524 535 482 551 b 334 530 394 551 362 544 b 262 472 306 516 282 496 b 215 389 242 448 226 420 b 199 289 204 357 199 324 b 243 165 199 239 213 198 b 368 117 273 133 314 117 b 464 138 403 117 435 124 b 537 194 493 151 517 170 b 583 278 557 219 572 247 b 600 379 594 310 600 344 m 546 783 l 719 983 l 906 983 l 675 783 m 263 783 l 435 983 l 621 983 l 390 783 "},"Ŕ":{"ha":867,"x_min":0,"x_max":0,"o":"m 592 0 l 406 419 l 275 419 l 203 0 l 35 0 l 208 983 l 500 983 b 751 916 608 983 692 961 b 839 729 809 871 839 809 b 769 538 839 650 816 587 b 581 439 722 490 659 456 l 785 0 m 428 560 b 601 596 503 560 561 572 b 663 711 642 620 663 658 b 611 811 663 759 645 793 b 474 839 577 830 531 839 l 350 839 l 300 560 l 428 560 m 408 1061 l 582 1261 l 767 1261 l 538 1061 "},"ŕ":{"ha":471,"x_min":0,"x_max":0,"o":"m 282 556 b 364 649 305 594 332 626 b 478 685 395 673 433 685 b 499 684 484 685 491 684 b 518 681 506 684 513 682 l 496 529 b 469 535 486 532 477 534 b 446 536 461 536 453 536 b 353 515 408 536 377 529 b 294 465 329 501 309 485 b 263 406 280 446 269 426 b 250 357 256 385 252 369 l 188 0 l 25 0 l 118 524 b 130 592 122 541 126 564 b 139 667 134 619 137 644 l 292 667 b 290 646 292 662 291 655 b 287 615 289 637 288 626 b 283 583 285 604 284 593 b 279 556 281 572 280 563 l 282 556 m 206 783 l 379 983 l 564 983 l 335 783 "},"Ŗ":{"ha":867,"x_min":0,"x_max":0,"o":"m 592 0 l 406 419 l 275 419 l 203 0 l 35 0 l 208 983 l 500 983 b 751 916 608 983 692 961 b 839 729 809 871 839 809 b 769 538 839 650 816 587 b 581 439 722 490 659 456 l 785 0 m 428 560 b 601 596 503 560 561 572 b 663 711 642 620 663 658 b 611 811 663 759 645 793 b 474 839 577 830 531 839 l 350 839 l 300 560 l 428 560 m 143 -333 l 292 -62 l 450 -62 l 279 -333 "},"ŗ":{"ha":471,"x_min":0,"x_max":0,"o":"m 282 556 b 364 649 305 594 332 626 b 478 685 395 673 433 685 b 499 684 484 685 491 684 b 518 681 506 684 513 682 l 496 529 b 469 535 486 532 477 534 b 446 536 461 536 453 536 b 353 515 408 536 377 529 b 294 465 329 501 309 485 b 263 406 280 446 269 426 b 250 357 256 385 252 369 l 188 0 l 25 0 l 118 524 b 130 592 122 541 126 564 b 139 667 134 619 137 644 l 292 667 b 290 646 292 662 291 655 b 287 615 289 637 288 626 b 283 583 285 604 284 593 b 279 556 281 572 280 563 l 282 556 m -122 -333 l 26 -62 l 185 -62 l 14 -333 "},"Ř":{"ha":867,"x_min":0,"x_max":0,"o":"m 592 0 l 406 419 l 275 419 l 203 0 l 35 0 l 208 983 l 500 983 b 751 916 608 983 692 961 b 839 729 809 871 839 809 b 769 538 839 650 816 587 b 581 439 722 490 659 456 l 785 0 m 428 560 b 601 596 503 560 561 572 b 663 711 642 620 663 658 b 611 811 663 759 645 793 b 474 839 577 830 531 839 l 350 839 l 300 560 l 428 560 m 413 1061 l 290 1261 l 442 1261 l 515 1135 l 635 1261 l 789 1261 l 594 1061 "},"ř":{"ha":471,"x_min":0,"x_max":0,"o":"m 282 556 b 364 649 305 594 332 626 b 478 685 395 673 433 685 b 499 684 484 685 491 684 b 518 681 506 684 513 682 l 496 529 b 469 535 486 532 477 534 b 446 536 461 536 453 536 b 353 515 408 536 377 529 b 294 465 329 501 309 485 b 263 406 280 446 269 426 b 250 357 256 385 252 369 l 188 0 l 25 0 l 118 524 b 130 592 122 541 126 564 b 139 667 134 619 137 644 l 292 667 b 290 646 292 662 291 655 b 287 615 289 637 288 626 b 283 583 285 604 284 593 b 279 556 281 572 280 563 l 282 556 m 242 783 l 119 983 l 271 983 l 344 857 l 464 983 l 618 983 l 424 783 "},"Ś":{"ha":797,"x_min":0,"x_max":0,"o":"m 654 781 b 581 846 636 810 611 832 b 483 867 551 860 519 867 b 425 858 466 867 446 864 b 366 833 404 853 384 844 b 321 786 348 821 333 806 b 303 715 309 767 303 743 b 340 633 303 680 315 653 b 439 581 364 614 397 596 b 638 467 525 549 591 511 b 707 289 684 423 707 364 b 674 144 707 232 696 184 b 586 47 651 105 622 72 b 464 -8 550 22 509 4 b 326 -25 419 -19 373 -25 b 228 -15 294 -25 261 -22 b 135 14 196 -9 164 1 b 52 63 105 27 78 43 b -12 135 27 83 5 107 l 126 231 b 210 151 145 198 173 172 b 335 119 248 130 289 119 b 403 128 358 119 381 122 b 465 155 426 133 447 142 b 509 203 483 167 497 184 b 526 278 521 223 526 248 b 512 337 526 300 522 320 b 473 382 502 354 489 369 b 417 417 457 395 438 406 b 349 444 395 427 373 436 b 265 482 319 456 291 468 b 194 533 238 496 215 513 b 147 604 174 553 158 576 b 129 703 135 632 129 665 b 160 833 129 752 140 795 b 243 929 181 871 209 903 b 362 988 277 955 317 975 b 501 1008 407 1002 453 1008 b 578 1000 526 1008 552 1006 b 655 976 605 994 630 986 b 724 936 679 965 703 952 b 779 881 746 920 764 902 l 654 781 m 411 1061 l 585 1261 l 769 1261 l 540 1061 "},"ś":{"ha":617,"x_min":0,"x_max":0,"o":"m 93 192 b 155 130 107 165 128 144 b 246 108 182 116 213 108 b 337 131 284 108 314 116 b 371 192 359 145 371 166 b 344 245 371 216 362 234 b 257 282 326 257 297 269 b 174 313 225 292 198 303 b 115 351 151 324 131 336 b 80 400 100 365 88 381 b 68 465 72 419 68 440 b 90 554 68 498 75 527 b 151 624 105 581 125 604 b 243 669 177 643 208 658 b 358 685 278 679 317 685 b 499 656 410 685 457 675 b 599 569 541 637 575 608 l 472 494 b 425 541 460 513 444 528 b 346 560 406 553 379 560 b 303 556 332 560 318 558 b 265 542 289 553 276 548 b 238 518 254 536 245 528 b 228 481 231 508 228 495 b 255 433 228 459 237 444 b 335 403 273 423 300 413 b 479 331 397 385 445 361 b 531 203 513 301 531 258 b 507 105 531 166 523 133 b 444 33 491 77 470 53 b 352 -10 417 14 387 -1 b 242 -25 317 -20 281 -25 b 67 13 169 -25 111 -12 b -33 108 23 39 -10 70 l 93 192 m 285 783 l 458 983 l 643 983 l 414 783 "},"Ŝ":{"ha":797,"x_min":0,"x_max":0,"o":"m 654 781 b 581 846 636 810 611 832 b 483 867 551 860 519 867 b 425 858 466 867 446 864 b 366 833 404 853 384 844 b 321 786 348 821 333 806 b 303 715 309 767 303 743 b 340 633 303 680 315 653 b 439 581 364 614 397 596 b 638 467 525 549 591 511 b 707 289 684 423 707 364 b 674 144 707 232 696 184 b 586 47 651 105 622 72 b 464 -8 550 22 509 4 b 326 -25 419 -19 373 -25 b 228 -15 294 -25 261 -22 b 135 14 196 -9 164 1 b 52 63 105 27 78 43 b -12 135 27 83 5 107 l 126 231 b 210 151 145 198 173 172 b 335 119 248 130 289 119 b 403 128 358 119 381 122 b 465 155 426 133 447 142 b 509 203 483 167 497 184 b 526 278 521 223 526 248 b 512 337 526 300 522 320 b 473 382 502 354 489 369 b 417 417 457 395 438 406 b 349 444 395 427 373 436 b 265 482 319 456 291 468 b 194 533 238 496 215 513 b 147 604 174 553 158 576 b 129 703 135 632 129 665 b 160 833 129 752 140 795 b 243 929 181 871 209 903 b 362 988 277 955 317 975 b 501 1008 407 1002 453 1008 b 578 1000 526 1008 552 1006 b 655 976 605 994 630 986 b 724 936 679 965 703 952 b 779 881 746 920 764 902 l 654 781 m 556 1217 l 436 1090 l 281 1090 l 475 1290 l 658 1290 l 781 1090 l 631 1090 "},"ŝ":{"ha":617,"x_min":0,"x_max":0,"o":"m 93 192 b 155 130 107 165 128 144 b 246 108 182 116 213 108 b 337 131 284 108 314 116 b 371 192 359 145 371 166 b 344 245 371 216 362 234 b 257 282 326 257 297 269 b 174 313 225 292 198 303 b 115 351 151 324 131 336 b 80 400 100 365 88 381 b 68 465 72 419 68 440 b 90 554 68 498 75 527 b 151 624 105 581 125 604 b 243 669 177 643 208 658 b 358 685 278 679 317 685 b 499 656 410 685 457 675 b 599 569 541 637 575 608 l 472 494 b 425 541 460 513 444 528 b 346 560 406 553 379 560 b 303 556 332 560 318 558 b 265 542 289 553 276 548 b 238 518 254 536 245 528 b 228 481 231 508 228 495 b 255 433 228 459 237 444 b 335 403 273 423 300 413 b 479 331 397 385 445 361 b 531 203 513 301 531 258 b 507 105 531 166 523 133 b 444 33 491 77 470 53 b 352 -10 417 14 387 -1 b 242 -25 317 -20 281 -25 b 67 13 169 -25 111 -12 b -33 108 23 39 -10 70 l 93 192 m 410 910 l 290 783 l 135 783 l 329 983 l 513 983 l 635 783 l 485 783 "},"Ş":{"ha":797,"x_min":0,"x_max":0,"o":"m 468 -192 b 449 -259 468 -219 462 -241 b 399 -303 436 -277 419 -292 b 334 -326 379 -314 358 -322 b 268 -333 310 -331 288 -333 b 186 -323 241 -333 214 -330 b 117 -297 158 -316 135 -307 l 154 -231 b 263 -258 187 -249 223 -258 b 291 -256 271 -258 280 -258 b 320 -248 302 -255 311 -252 b 343 -231 329 -244 337 -238 b 353 -201 350 -223 353 -213 b 332 -160 353 -180 346 -166 b 288 -151 318 -154 303 -151 b 261 -153 280 -151 271 -152 b 232 -160 251 -155 241 -157 l 207 -125 l 294 -24 b 120 20 234 -20 176 -5 b -12 135 64 46 20 84 l 126 231 b 210 151 145 198 173 172 b 335 119 248 130 289 119 b 403 128 358 119 381 122 b 465 155 426 133 447 142 b 509 203 483 167 497 184 b 526 278 521 223 526 248 b 512 337 526 300 522 320 b 473 382 502 354 489 369 b 417 417 457 395 438 406 b 349 444 395 427 373 436 b 265 482 319 456 291 468 b 194 533 238 496 215 513 b 147 604 174 553 158 576 b 129 703 135 632 129 665 b 160 833 129 752 140 795 b 243 929 181 871 209 903 b 362 988 277 955 317 975 b 501 1008 407 1002 453 1008 b 578 1000 526 1008 552 1006 b 655 976 605 994 630 986 b 724 936 679 965 703 952 b 779 881 746 920 764 902 l 654 781 b 581 846 636 810 611 832 b 483 867 551 860 519 867 b 425 858 466 867 446 864 b 366 833 404 853 384 844 b 321 786 348 821 333 806 b 303 715 309 767 303 743 b 340 633 303 680 315 653 b 439 581 364 614 397 596 b 638 467 525 549 591 511 b 707 289 684 423 707 364 b 678 155 707 237 697 192 b 603 61 659 117 634 86 b 497 3 572 36 537 17 b 374 -22 457 -10 416 -19 l 315 -90 b 331 -87 322 -88 327 -87 l 343 -87 b 384 -92 356 -87 370 -89 b 424 -110 398 -96 412 -101 b 456 -142 437 -118 447 -129 b 468 -192 464 -156 468 -172 "},"ş":{"ha":617,"x_min":0,"x_max":0,"o":"m 369 -192 b 350 -259 369 -219 363 -241 b 301 -303 337 -277 321 -292 b 235 -326 281 -314 259 -322 b 169 -333 212 -331 190 -333 b 88 -323 143 -333 115 -330 b 18 -297 60 -316 37 -307 l 56 -231 b 164 -258 88 -249 124 -258 b 192 -256 172 -258 182 -258 b 222 -248 203 -255 213 -252 b 244 -231 230 -244 238 -238 b 254 -201 251 -223 254 -213 b 233 -160 254 -180 247 -166 b 189 -151 219 -154 205 -151 b 163 -153 181 -151 173 -152 b 133 -160 152 -155 143 -157 l 108 -125 l 196 -22 b 53 22 138 -17 90 -2 b -33 108 16 46 -13 75 l 93 192 b 155 130 107 165 128 144 b 246 108 182 116 213 108 b 337 131 284 108 314 116 b 371 192 359 145 371 166 b 344 245 371 216 362 234 b 257 282 326 257 297 269 b 174 313 225 292 198 303 b 115 351 151 324 131 336 b 80 400 100 365 88 381 b 68 465 72 419 68 440 b 90 554 68 498 75 527 b 151 624 105 581 125 604 b 243 669 177 643 208 658 b 358 685 278 679 317 685 b 499 656 410 685 457 675 b 599 569 541 637 575 608 l 472 494 b 425 541 460 513 444 528 b 346 560 406 553 379 560 b 303 556 332 560 318 558 b 265 542 289 553 276 548 b 238 518 254 536 245 528 b 228 481 231 508 228 495 b 255 433 228 459 237 444 b 335 403 273 423 300 413 b 479 331 397 385 445 361 b 531 203 513 301 531 258 b 510 111 531 169 524 138 b 455 42 497 84 478 61 b 373 -3 431 23 404 8 b 275 -24 342 -14 309 -21 l 217 -90 b 233 -87 223 -88 228 -87 l 244 -87 b 285 -92 257 -87 271 -89 b 326 -110 300 -96 313 -101 b 357 -142 338 -118 349 -129 b 369 -192 365 -156 369 -172 "},"Ţ":{"ha":740,"x_min":0,"x_max":0,"o":"m 381 0 l 210 0 l 356 833 l 64 833 l 90 983 l 843 983 l 817 833 l 528 833 m 425 -192 b 406 -259 425 -219 419 -241 b 356 -303 393 -277 376 -292 b 291 -326 336 -314 315 -322 b 225 -333 267 -331 245 -333 b 143 -323 198 -333 171 -330 b 74 -297 115 -316 92 -307 l 111 -231 b 219 -258 144 -249 180 -258 b 248 -256 228 -258 237 -258 b 277 -248 259 -255 268 -252 b 300 -231 286 -244 294 -238 b 310 -201 306 -223 310 -213 b 289 -160 310 -180 303 -166 b 244 -151 275 -154 260 -151 b 218 -153 237 -151 228 -152 b 189 -160 208 -155 198 -157 l 164 -125 l 272 0 l 351 0 l 272 -90 b 288 -87 279 -88 284 -87 l 300 -87 b 341 -92 313 -87 327 -89 b 381 -110 355 -96 369 -101 b 413 -142 394 -118 404 -129 b 425 -192 421 -156 425 -172 "},"ţ":{"ha":472,"x_min":0,"x_max":0,"o":"m 50 667 l 165 667 l 199 861 l 360 861 l 326 667 l 476 667 l 453 535 l 306 535 l 247 221 b 243 182 244 207 243 194 b 265 132 243 158 250 141 b 322 118 279 123 298 118 b 355 121 333 118 344 119 b 385 128 366 123 375 125 l 375 4 b 326 -9 361 -1 345 -6 b 274 -14 307 -12 289 -14 b 124 28 203 -14 153 0 b 79 140 94 57 79 94 b 81 183 79 153 80 167 b 88 225 83 198 85 212 l 144 535 l 26 535 m 397 -192 b 378 -259 397 -219 391 -241 b 328 -303 365 -277 348 -292 b 263 -326 309 -314 287 -322 b 197 -333 240 -331 218 -333 b 115 -323 170 -333 143 -330 b 46 -297 88 -316 64 -307 l 83 -231 b 192 -258 116 -249 152 -258 b 220 -256 200 -258 209 -258 b 249 -248 231 -255 241 -252 b 272 -231 258 -244 266 -238 b 282 -201 279 -223 282 -213 b 261 -160 282 -180 275 -166 b 217 -151 247 -154 232 -151 b 190 -153 209 -151 200 -152 b 161 -160 180 -155 170 -157 l 136 -125 l 244 0 l 324 0 l 244 -90 b 260 -87 251 -88 256 -87 l 272 -87 b 313 -92 285 -87 299 -89 b 353 -110 328 -96 341 -101 b 385 -142 366 -118 376 -129 b 397 -192 393 -156 397 -172 "},"Ť":{"ha":740,"x_min":0,"x_max":0,"o":"m 381 0 l 210 0 l 356 833 l 64 833 l 90 983 l 843 983 l 817 833 l 528 833 m 382 1061 l 260 1261 l 411 1261 l 485 1135 l 604 1261 l 758 1261 l 564 1061 "},"ť":{"ha":472,"x_min":0,"x_max":0,"o":"m 50 667 l 165 667 l 199 861 l 360 861 l 326 667 l 476 667 l 453 535 l 306 535 l 247 221 b 243 182 244 207 243 194 b 265 132 243 158 250 141 b 322 118 279 123 298 118 b 355 121 333 118 344 119 b 385 128 366 123 375 125 l 375 4 b 326 -9 361 -1 345 -6 b 274 -14 307 -12 289 -14 b 124 28 203 -14 153 0 b 79 140 94 57 79 94 b 81 183 79 153 80 167 b 88 225 83 198 85 212 l 144 535 l 26 535 m 386 744 l 535 1015 l 693 1015 l 522 744 "},"Ŧ":{"ha":740,"x_min":0,"x_max":0,"o":"m 486 600 l 381 0 l 210 0 l 314 600 l 100 600 l 119 704 l 332 704 l 356 833 l 64 833 l 90 983 l 843 983 l 817 833 l 528 833 l 504 704 l 722 704 l 703 600 "},"ŧ":{"ha":472,"x_min":0,"x_max":0,"o":"m 263 304 l 247 221 b 243 182 244 207 243 194 b 265 132 243 158 250 141 b 322 118 279 123 298 118 b 355 121 333 118 344 119 b 385 128 366 123 375 125 l 375 4 b 326 -9 361 -1 345 -6 b 274 -14 307 -12 289 -14 b 124 28 203 -14 153 0 b 79 140 94 57 79 94 b 81 183 79 153 80 167 b 88 225 83 198 85 212 l 101 304 l 7 304 l 26 408 l 121 408 l 144 535 l 26 535 l 50 667 l 165 667 l 199 861 l 360 861 l 326 667 l 476 667 l 453 535 l 306 535 l 282 408 l 414 408 l 394 304 "},"Ũ":{"ha":992,"x_min":0,"x_max":0,"o":"m 879 361 b 830 202 869 303 853 250 b 743 81 807 154 778 114 b 617 3 708 47 666 21 b 449 -25 568 -16 512 -25 b 296 -3 392 -25 341 -18 b 181 58 250 11 212 31 b 108 155 149 85 125 117 b 83 282 92 192 83 235 b 85 321 83 295 84 308 b 90 361 86 334 88 347 l 200 983 l 371 983 l 263 368 b 258 336 261 358 259 347 b 257 304 257 325 257 314 b 267 236 257 280 260 257 b 301 179 274 215 286 196 b 362 140 317 163 337 149 b 451 125 386 130 416 125 b 565 147 497 125 535 132 b 640 203 596 161 621 180 b 685 281 660 226 675 252 b 708 368 695 310 703 339 l 817 983 l 989 983 l 879 361 m 351 1067 b 378 1131 359 1089 368 1110 b 417 1187 389 1152 402 1171 b 470 1226 433 1203 450 1216 b 539 1240 490 1235 513 1240 b 593 1233 557 1240 575 1238 b 643 1215 611 1229 627 1223 b 688 1197 659 1208 674 1202 b 729 1189 703 1191 716 1189 b 774 1208 748 1189 763 1195 b 803 1250 786 1220 795 1234 l 894 1250 b 867 1185 887 1228 878 1206 b 829 1130 857 1165 844 1146 b 777 1091 814 1114 797 1101 b 708 1076 757 1081 734 1076 b 658 1083 691 1076 674 1078 b 613 1100 643 1087 627 1093 b 563 1121 595 1108 578 1115 b 518 1129 547 1126 532 1129 b 472 1110 500 1129 484 1123 b 443 1067 460 1097 450 1082 l 351 1067 "},"ũ":{"ha":811,"x_min":0,"x_max":0,"o":"m 483 104 b 395 16 460 68 431 39 b 267 -18 359 -7 317 -18 b 170 -1 230 -18 197 -12 b 102 43 143 10 120 25 b 62 109 84 62 71 84 b 49 189 53 134 49 161 b 54 251 49 212 50 233 l 128 667 l 290 667 l 226 300 b 222 267 225 289 223 278 b 219 233 220 256 219 244 b 243 155 219 204 227 178 b 329 121 259 132 288 121 b 399 136 355 121 378 126 b 453 177 420 146 438 160 b 491 235 469 194 481 213 b 511 300 501 256 507 278 l 576 667 l 739 667 l 647 143 b 635 75 644 125 640 103 b 626 0 631 47 628 22 l 474 0 b 479 48 475 10 476 26 b 486 104 482 70 484 88 l 483 104 m 194 789 b 222 853 202 811 211 833 b 260 909 232 874 245 893 b 313 948 276 925 293 938 b 382 963 333 958 356 963 b 436 956 400 963 419 960 b 486 938 454 951 470 945 b 531 919 502 930 517 924 b 572 911 546 914 559 911 b 617 930 591 911 606 917 b 646 972 629 942 638 956 l 738 972 b 710 908 730 950 721 928 b 672 852 700 887 687 868 b 620 813 657 836 640 823 b 551 799 600 803 577 799 b 501 805 534 799 517 801 b 456 822 486 809 470 815 b 406 843 438 831 421 838 b 361 851 390 849 375 851 b 315 832 343 851 327 845 b 286 789 303 819 294 805 l 194 789 "},"Ū":{"ha":992,"x_min":0,"x_max":0,"o":"m 879 361 b 830 202 869 303 853 250 b 743 81 807 154 778 114 b 617 3 708 47 666 21 b 449 -25 568 -16 512 -25 b 296 -3 392 -25 341 -18 b 181 58 250 11 212 31 b 108 155 149 85 125 117 b 83 282 92 192 83 235 b 85 321 83 295 84 308 b 90 361 86 334 88 347 l 200 983 l 371 983 l 263 368 b 258 336 261 358 259 347 b 257 304 257 325 257 314 b 267 236 257 280 260 257 b 301 179 274 215 286 196 b 362 140 317 163 337 149 b 451 125 386 130 416 125 b 565 147 497 125 535 132 b 640 203 596 161 621 180 b 685 281 660 226 675 252 b 708 368 695 310 703 339 l 817 983 l 989 983 l 879 361 m 407 1211 l 849 1211 l 829 1104 l 389 1104 "},"ū":{"ha":811,"x_min":0,"x_max":0,"o":"m 483 104 b 395 16 460 68 431 39 b 267 -18 359 -7 317 -18 b 170 -1 230 -18 197 -12 b 102 43 143 10 120 25 b 62 109 84 62 71 84 b 49 189 53 134 49 161 b 54 251 49 212 50 233 l 128 667 l 290 667 l 226 300 b 222 267 225 289 223 278 b 219 233 220 256 219 244 b 243 155 219 204 227 178 b 329 121 259 132 288 121 b 399 136 355 121 378 126 b 453 177 420 146 438 160 b 491 235 469 194 481 213 b 511 300 501 256 507 278 l 576 667 l 739 667 l 647 143 b 635 75 644 125 640 103 b 626 0 631 47 628 22 l 474 0 b 479 48 475 10 476 26 b 486 104 482 70 484 88 l 483 104 m 256 933 l 697 933 l 678 826 l 238 826 "},"Ŭ":{"ha":992,"x_min":0,"x_max":0,"o":"m 879 361 b 830 202 869 303 853 250 b 743 81 807 154 778 114 b 617 3 708 47 666 21 b 449 -25 568 -16 512 -25 b 296 -3 392 -25 341 -18 b 181 58 250 11 212 31 b 108 155 149 85 125 117 b 83 282 92 192 83 235 b 85 321 83 295 84 308 b 90 361 86 334 88 347 l 200 983 l 371 983 l 263 368 b 258 336 261 358 259 347 b 257 304 257 325 257 314 b 267 236 257 280 260 257 b 301 179 274 215 286 196 b 362 140 317 163 337 149 b 451 125 386 130 416 125 b 565 147 497 125 535 132 b 640 203 596 161 621 180 b 685 281 660 226 675 252 b 708 368 695 310 703 339 l 817 983 l 989 983 l 879 361 m 860 1261 b 767 1111 843 1194 812 1144 b 600 1063 721 1079 666 1063 b 446 1110 534 1063 483 1078 b 390 1261 409 1141 390 1192 l 482 1261 b 519 1188 482 1226 494 1202 b 610 1168 544 1175 575 1168 b 709 1185 649 1168 682 1174 b 769 1261 736 1197 756 1222 l 860 1261 "},"ŭ":{"ha":811,"x_min":0,"x_max":0,"o":"m 483 104 b 395 16 460 68 431 39 b 267 -18 359 -7 317 -18 b 170 -1 230 -18 197 -12 b 102 43 143 10 120 25 b 62 109 84 62 71 84 b 49 189 53 134 49 161 b 54 251 49 212 50 233 l 128 667 l 290 667 l 226 300 b 222 267 225 289 223 278 b 219 233 220 256 219 244 b 243 155 219 204 227 178 b 329 121 259 132 288 121 b 399 136 355 121 378 126 b 453 177 420 146 438 160 b 491 235 469 194 481 213 b 511 300 501 256 507 278 l 576 667 l 739 667 l 647 143 b 635 75 644 125 640 103 b 626 0 631 47 628 22 l 474 0 b 479 48 475 10 476 26 b 486 104 482 70 484 88 l 483 104 m 706 983 b 613 833 689 916 658 866 b 446 785 567 801 512 785 b 292 832 380 785 329 800 b 236 983 255 863 236 914 l 328 983 b 365 910 328 948 340 924 b 456 890 390 897 420 890 b 555 908 494 890 528 896 b 615 983 582 919 602 944 l 706 983 "},"Ů":{"ha":992,"x_min":0,"x_max":0,"o":"m 879 361 b 830 202 869 303 853 250 b 743 81 807 154 778 114 b 617 3 708 47 666 21 b 449 -25 568 -16 512 -25 b 296 -3 392 -25 341 -18 b 181 58 250 11 212 31 b 108 155 149 85 125 117 b 83 282 92 192 83 235 b 85 321 83 295 84 308 b 90 361 86 334 88 347 l 200 983 l 371 983 l 263 368 b 258 336 261 358 259 347 b 257 304 257 325 257 314 b 267 236 257 280 260 257 b 301 179 274 215 286 196 b 362 140 317 163 337 149 b 451 125 386 130 416 125 b 565 147 497 125 535 132 b 640 203 596 161 621 180 b 685 281 660 226 675 252 b 708 368 695 310 703 339 l 817 983 l 989 983 l 879 361 m 607 1046 b 517 1080 570 1046 540 1057 b 482 1165 494 1103 482 1131 b 494 1228 482 1188 486 1209 b 527 1281 502 1248 513 1266 b 578 1315 541 1295 558 1307 b 642 1328 597 1324 619 1328 b 731 1294 679 1328 709 1317 b 765 1210 754 1272 765 1244 b 721 1092 765 1163 750 1123 b 607 1046 691 1061 653 1046 m 697 1197 b 681 1246 697 1216 692 1232 b 635 1267 669 1260 654 1267 b 574 1240 610 1267 589 1258 b 550 1174 558 1223 550 1200 b 566 1126 550 1155 555 1139 b 611 1107 577 1113 592 1107 b 674 1133 637 1107 658 1116 b 697 1197 689 1150 697 1171 "},"ů":{"ha":811,"x_min":0,"x_max":0,"o":"m 483 104 b 395 16 460 68 431 39 b 267 -18 359 -7 317 -18 b 170 -1 230 -18 197 -12 b 102 43 143 10 120 25 b 62 109 84 62 71 84 b 49 189 53 134 49 161 b 54 251 49 212 50 233 l 128 667 l 290 667 l 226 300 b 222 267 225 289 223 278 b 219 233 220 256 219 244 b 243 155 219 204 227 178 b 329 121 259 132 288 121 b 399 136 355 121 378 126 b 453 177 420 146 438 160 b 491 235 469 194 481 213 b 511 300 501 256 507 278 l 576 667 l 739 667 l 647 143 b 635 75 644 125 640 103 b 626 0 631 47 628 22 l 474 0 b 479 48 475 10 476 26 b 486 104 482 70 484 88 l 483 104 m 454 768 b 364 802 417 768 387 779 b 329 888 341 825 329 853 b 341 951 329 910 333 931 b 374 1003 349 971 360 988 b 425 1038 389 1018 406 1029 b 489 1050 444 1046 466 1050 b 578 1017 526 1050 556 1039 b 613 932 601 994 613 966 b 568 815 613 885 598 846 b 454 768 538 784 500 768 m 544 919 b 528 968 544 938 539 954 b 482 989 517 982 501 989 b 421 963 457 989 437 980 b 397 896 405 945 397 923 b 413 849 397 877 403 862 b 458 829 424 836 439 829 b 521 855 484 829 505 838 b 544 919 537 872 544 894 "},"Ű":{"ha":992,"x_min":0,"x_max":0,"o":"m 879 361 b 830 202 869 303 853 250 b 743 81 807 154 778 114 b 617 3 708 47 666 21 b 449 -25 568 -16 512 -25 b 296 -3 392 -25 341 -18 b 181 58 250 11 212 31 b 108 155 149 85 125 117 b 83 282 92 192 83 235 b 85 321 83 295 84 308 b 90 361 86 334 88 347 l 200 983 l 371 983 l 263 368 b 258 336 261 358 259 347 b 257 304 257 325 257 314 b 267 236 257 280 260 257 b 301 179 274 215 286 196 b 362 140 317 163 337 149 b 451 125 386 130 416 125 b 565 147 497 125 535 132 b 640 203 596 161 621 180 b 685 281 660 226 675 252 b 708 368 695 310 703 339 l 817 983 l 989 983 l 879 361 m 675 1061 l 849 1261 l 1035 1261 l 804 1061 m 392 1061 l 564 1261 l 750 1261 l 519 1061 "},"ű":{"ha":811,"x_min":0,"x_max":0,"o":"m 483 104 b 395 16 460 68 431 39 b 267 -18 359 -7 317 -18 b 170 -1 230 -18 197 -12 b 102 43 143 10 120 25 b 62 109 84 62 71 84 b 49 189 53 134 49 161 b 54 251 49 212 50 233 l 128 667 l 290 667 l 226 300 b 222 267 225 289 223 278 b 219 233 220 256 219 244 b 243 155 219 204 227 178 b 329 121 259 132 288 121 b 399 136 355 121 378 126 b 453 177 420 146 438 160 b 491 235 469 194 481 213 b 511 300 501 256 507 278 l 576 667 l 739 667 l 647 143 b 635 75 644 125 640 103 b 626 0 631 47 628 22 l 474 0 b 479 48 475 10 476 26 b 486 104 482 70 484 88 l 483 104 m 518 783 l 692 983 l 878 983 l 647 783 m 235 783 l 407 983 l 593 983 l 363 783 "},"Ų":{"ha":992,"x_min":0,"x_max":0,"o":"m 560 -271 b 490 -309 538 -287 514 -299 b 413 -324 466 -319 440 -324 b 324 -297 375 -324 346 -315 b 292 -212 303 -278 292 -250 b 303 -160 292 -195 295 -178 b 332 -111 310 -143 320 -127 b 374 -65 344 -95 358 -80 b 422 -24 389 -50 406 -37 b 280 2 369 -22 322 -13 b 173 65 238 17 202 38 b 106 159 144 91 122 122 b 83 282 91 196 83 237 b 85 321 83 295 84 308 b 90 361 86 334 88 347 l 200 983 l 371 983 l 263 368 b 258 336 261 358 259 347 b 257 304 257 325 257 314 b 267 236 257 280 260 257 b 301 179 274 215 286 196 b 362 140 317 163 337 149 b 451 125 386 130 416 125 b 565 147 497 125 535 132 b 640 203 596 161 621 180 b 685 281 660 226 675 252 b 708 368 695 310 703 339 l 817 983 l 989 983 l 879 361 b 761 99 860 255 820 167 b 514 -21 702 31 619 -9 b 438 -100 486 -45 461 -71 b 404 -185 416 -129 404 -157 b 460 -233 404 -217 423 -233 b 501 -225 474 -233 487 -231 b 538 -204 514 -219 526 -212 l 560 -271 l 560 -271 "},"ų":{"ha":811,"x_min":0,"x_max":0,"o":"m 575 -271 b 506 -309 553 -287 530 -299 b 428 -324 481 -319 456 -324 b 340 -297 391 -324 361 -315 b 307 -212 318 -278 307 -250 b 322 -151 307 -192 312 -172 b 362 -94 332 -131 346 -112 b 415 -42 378 -76 396 -59 b 474 3 435 -26 454 -11 b 475 24 474 8 474 15 b 478 51 476 32 477 41 b 483 79 480 60 481 70 b 486 104 484 88 485 97 l 483 104 b 395 16 460 68 431 39 b 267 -18 359 -7 317 -18 b 170 -1 230 -18 197 -12 b 102 43 143 10 120 25 b 62 109 84 62 71 84 b 49 189 53 134 49 161 b 54 251 49 212 50 233 l 128 667 l 290 667 l 226 300 b 222 267 225 289 223 278 b 219 233 220 256 219 244 b 243 155 219 204 227 178 b 329 121 259 132 288 121 b 399 136 355 121 378 126 b 453 177 420 146 438 160 b 491 235 469 194 481 213 b 511 300 501 256 507 278 l 576 667 l 739 667 l 647 143 b 635 75 644 125 640 103 b 626 0 631 47 628 22 l 556 0 b 508 -42 540 -13 524 -27 b 464 -87 491 -56 477 -72 b 432 -135 451 -103 440 -119 b 419 -185 424 -152 419 -168 b 475 -233 419 -217 438 -233 b 516 -225 489 -233 503 -231 b 553 -204 529 -219 542 -212 l 575 -271 l 575 -271 "},"Ŵ":{"ha":1368,"x_min":0,"x_max":0,"o":"m 822 0 l 732 743 l 729 743 l 357 0 l 190 0 l 99 983 l 279 983 l 328 256 l 331 256 l 686 983 l 864 983 l 940 256 l 943 256 l 1283 983 l 1465 983 l 989 0 m 808 1188 l 689 1061 l 533 1061 l 728 1261 l 911 1261 l 1033 1061 l 883 1061 "},"ŵ":{"ha":1090,"x_min":0,"x_max":0,"o":"m 610 0 l 550 471 l 547 471 l 299 0 l 132 0 l 40 667 l 211 667 l 257 188 l 260 188 l 499 667 l 669 667 l 724 188 l 726 188 l 968 667 l 1139 667 l 776 0 m 625 910 l 506 783 l 350 783 l 544 983 l 728 983 l 850 783 l 700 783 "},"Ŷ":{"ha":799,"x_min":0,"x_max":0,"o":"m 400 0 l 229 0 l 304 426 l 58 983 l 250 983 l 414 567 l 743 983 l 951 983 l 476 426 m 524 1188 l 404 1061 l 249 1061 l 443 1261 l 626 1261 l 749 1061 l 599 1061 "},"ŷ":{"ha":703,"x_min":0,"x_max":0,"o":"m 282 -144 b 232 -224 265 -174 249 -201 b 177 -284 215 -248 197 -268 b 111 -321 157 -300 135 -312 b 26 -333 87 -329 59 -333 b -16 -331 13 -333 -2 -333 b -58 -324 -30 -330 -44 -327 l -37 -182 b -6 -190 -27 -186 -17 -188 b 24 -192 4 -191 14 -192 b 95 -166 54 -192 78 -183 b 151 -87 112 -149 131 -123 l 201 -1 l 51 667 l 226 667 l 313 178 l 315 178 l 582 667 l 754 667 l 282 -144 m 442 910 l 322 783 l 167 783 l 361 983 l 544 983 l 667 783 l 517 783 "},"Ź":{"ha":817,"x_min":0,"x_max":0,"o":"m -29 154 l 618 833 l 151 833 l 178 983 l 868 983 l 840 829 l 197 153 l 736 153 l 708 0 l -56 0 m 432 1061 l 606 1261 l 790 1261 l 561 1061 "},"ź":{"ha":667,"x_min":0,"x_max":0,"o":"m -3 143 l 432 536 l 93 536 l 115 667 l 653 667 l 628 524 l 196 133 l 568 133 l 544 0 l -28 0 m 308 783 l 482 983 l 667 983 l 438 783 "},"Ż":{"ha":817,"x_min":0,"x_max":0,"o":"m -29 154 l 618 833 l 151 833 l 178 983 l 868 983 l 840 829 l 197 153 l 736 153 l 708 0 l -56 0 m 651 1174 b 623 1103 651 1147 642 1123 b 553 1072 604 1082 581 1072 b 484 1097 526 1072 503 1081 b 456 1168 465 1114 456 1138 b 486 1241 456 1198 466 1222 b 557 1269 506 1260 530 1269 b 624 1244 584 1269 606 1261 b 651 1174 642 1227 651 1203 "},"ż":{"ha":667,"x_min":0,"x_max":0,"o":"m -3 143 l 432 536 l 93 536 l 115 667 l 653 667 l 628 524 l 196 133 l 568 133 l 544 0 l -28 0 m 521 896 b 492 825 521 869 511 845 b 422 794 473 805 450 794 b 353 819 395 794 372 803 b 325 890 334 836 325 860 b 356 963 325 920 335 944 b 426 992 376 982 400 992 b 494 966 453 992 476 983 b 521 896 512 949 521 925 "},"ƒ":{"ha":847,"x_min":0,"x_max":0,"o":"m 781 831 b 708 853 758 845 734 853 b 655 840 687 853 669 848 b 617 806 641 831 628 819 b 590 760 607 792 598 776 b 569 711 583 743 576 727 l 524 592 l 692 592 l 671 468 l 481 468 l 329 64 b 208 -130 297 -23 256 -88 b 26 -193 159 -172 99 -193 b -108 -160 -25 -193 -69 -182 l -25 -35 b 38 -54 -7 -48 13 -54 b 122 -13 74 -54 102 -41 b 175 90 141 14 159 49 l 315 468 l 158 468 l 181 592 l 361 592 l 419 747 b 465 844 432 781 447 814 b 525 925 482 875 502 902 b 606 980 548 948 575 966 b 713 1000 636 993 672 1000 b 794 989 742 1000 769 996 b 867 957 818 981 843 971 l 781 831 "},"Ș":{"ha":797,"x_min":0,"x_max":0,"o":"m 654 781 b 581 846 636 810 611 832 b 483 867 551 860 519 867 b 425 858 466 867 446 864 b 366 833 404 853 384 844 b 321 786 348 821 333 806 b 303 715 309 767 303 743 b 340 633 303 680 315 653 b 439 581 364 614 397 596 b 638 467 525 549 591 511 b 707 289 684 423 707 364 b 674 144 707 232 696 184 b 586 47 651 105 622 72 b 464 -8 550 22 509 4 b 326 -25 419 -19 373 -25 b 228 -15 294 -25 261 -22 b 135 14 196 -9 164 1 b 52 63 105 27 78 43 b -12 135 27 83 5 107 l 126 231 b 210 151 145 198 173 172 b 335 119 248 130 289 119 b 403 128 358 119 381 122 b 465 155 426 133 447 142 b 509 203 483 167 497 184 b 526 278 521 223 526 248 b 512 337 526 300 522 320 b 473 382 502 354 489 369 b 417 417 457 395 438 406 b 349 444 395 427 373 436 b 265 482 319 456 291 468 b 194 533 238 496 215 513 b 147 604 174 553 158 576 b 129 703 135 632 129 665 b 160 833 129 752 140 795 b 243 929 181 871 209 903 b 362 988 277 955 317 975 b 501 1008 407 1002 453 1008 b 578 1000 526 1008 552 1006 b 655 976 605 994 630 986 b 724 936 679 965 703 952 b 779 881 746 920 764 902 l 654 781 m 94 -333 l 243 -62 l 401 -62 l 231 -333 "},"ș":{"ha":617,"x_min":0,"x_max":0,"o":"m 93 192 b 155 130 107 165 128 144 b 246 108 182 116 213 108 b 337 131 284 108 314 116 b 371 192 359 145 371 166 b 344 245 371 216 362 234 b 257 282 326 257 297 269 b 174 313 225 292 198 303 b 115 351 151 324 131 336 b 80 400 100 365 88 381 b 68 465 72 419 68 440 b 90 554 68 498 75 527 b 151 624 105 581 125 604 b 243 669 177 643 208 658 b 358 685 278 679 317 685 b 499 656 410 685 457 675 b 599 569 541 637 575 608 l 472 494 b 425 541 460 513 444 528 b 346 560 406 553 379 560 b 303 556 332 560 318 558 b 265 542 289 553 276 548 b 238 518 254 536 245 528 b 228 481 231 508 228 495 b 255 433 228 459 237 444 b 335 403 273 423 300 413 b 479 331 397 385 445 361 b 531 203 513 301 531 258 b 507 105 531 166 523 133 b 444 33 491 77 470 53 b 352 -10 417 14 387 -1 b 242 -25 317 -20 281 -25 b 67 13 169 -25 111 -12 b -33 108 23 39 -10 70 l 93 192 m -11 -333 l 138 -62 l 296 -62 l 125 -333 "},"Ț":{"ha":740,"x_min":0,"x_max":0,"o":"m 381 0 l 210 0 l 356 833 l 64 833 l 90 983 l 843 983 l 817 833 l 528 833 m 68 -333 l 217 -62 l 375 -62 l 204 -333 "},"ț":{"ha":472,"x_min":0,"x_max":0,"o":"m 50 667 l 165 667 l 199 861 l 360 861 l 326 667 l 476 667 l 453 535 l 306 535 l 247 221 b 243 182 244 207 243 194 b 265 132 243 158 250 141 b 322 118 279 123 298 118 b 355 121 333 118 344 119 b 385 128 366 123 375 125 l 375 4 b 326 -9 361 -1 345 -6 b 274 -14 307 -12 289 -14 b 124 28 203 -14 153 0 b 79 140 94 57 79 94 b 81 183 79 153 80 167 b 88 225 83 198 85 212 l 144 535 l 26 535 m -35 -333 l 114 -62 l 272 -62 l 101 -333 "},"ˆ":{"ha":361,"x_min":0,"x_max":0,"o":"m 268 910 l 149 783 l -7 783 l 188 983 l 371 983 l 493 783 l 343 783 "},"ˇ":{"ha":361,"x_min":0,"x_max":0,"o":"m 151 783 l 29 983 l 181 983 l 254 857 l 374 983 l 528 983 l 333 783 "},"ˉ":{"ha":361,"x_min":0,"x_max":0,"o":"m 49 1211 l 490 1211 l 471 1104 l 31 1104 "},"˘":{"ha":361,"x_min":0,"x_max":0,"o":"m 513 983 b 419 833 496 916 465 866 b 253 785 374 801 319 785 b 99 832 187 785 136 800 b 43 983 62 863 43 914 l 135 983 b 172 910 135 948 147 924 b 263 890 197 897 227 890 b 362 908 301 890 334 896 b 422 983 389 919 409 944 l 513 983 l 513 983 "},"˙":{"ha":361,"x_min":0,"x_max":0,"o":"m 364 896 b 335 825 364 869 354 845 b 265 794 316 805 293 794 b 197 819 238 794 216 803 b 168 890 178 836 168 860 b 199 963 168 920 178 944 b 269 992 219 982 243 992 b 337 966 296 992 319 983 b 364 896 355 949 364 925 "},"˚":{"ha":361,"x_min":0,"x_max":0,"o":"m 250 768 b 160 802 213 768 183 779 b 125 888 137 825 125 853 b 137 951 125 910 129 931 b 170 1003 145 971 156 988 b 221 1038 184 1018 201 1029 b 285 1050 240 1046 262 1050 b 374 1017 322 1050 352 1039 b 408 932 397 994 408 966 b 364 815 408 885 394 846 b 250 768 334 784 296 768 m 340 919 b 324 968 340 938 335 954 b 278 989 313 982 297 989 b 217 963 253 989 232 980 b 193 896 201 945 193 923 b 209 849 193 877 198 862 b 254 829 220 836 235 829 b 317 855 280 829 301 838 b 340 919 332 872 340 894 "},"˛":{"ha":361,"x_min":0,"x_max":0,"o":"m 158 -271 b 89 -309 136 -287 113 -299 b 11 -324 65 -319 39 -324 b -77 -297 -26 -324 -55 -315 b -110 -212 -99 -278 -110 -250 b -93 -149 -110 -191 -104 -170 b -51 -90 -82 -128 -68 -109 b 5 -37 -35 -72 -16 -54 b 65 8 26 -21 46 -6 l 149 8 b 98 -34 132 -5 115 -19 b 51 -82 81 -49 65 -65 b 17 -133 38 -99 26 -116 b 3 -185 7 -151 3 -168 b 58 -233 3 -217 21 -233 b 99 -225 72 -233 86 -231 b 136 -204 113 -219 125 -212 l 158 -271 l 158 -271 "},"˜":{"ha":361,"x_min":0,"x_max":0,"o":"m -10 789 b 17 853 -2 811 7 833 b 56 909 28 874 41 893 b 109 948 72 925 89 938 b 178 963 129 958 152 963 b 232 956 196 963 214 960 b 282 938 250 951 266 945 b 327 919 298 930 313 924 b 368 911 341 914 355 911 b 413 930 387 911 402 917 b 442 972 425 942 434 956 l 533 972 b 506 908 526 950 517 928 b 468 852 496 887 483 868 b 416 813 453 836 436 823 b 347 799 396 803 373 799 b 297 805 330 799 313 801 b 251 822 281 809 266 815 b 201 843 234 831 217 838 b 157 851 186 849 171 851 b 111 832 138 851 123 845 b 82 789 99 819 89 805 l -10 789 "},"˝":{"ha":361,"x_min":0,"x_max":0,"o":"m 315 783 l 489 983 l 675 983 l 444 783 m 32 783 l 204 983 l 390 983 l 160 783 "},"–":{"ha":556,"x_min":0,"x_max":0,"o":"m 31 278 l 53 406 l 525 406 l 503 278 "},"—":{"ha":833,"x_min":0,"x_max":0,"o":"m 31 278 l 53 406 l 803 406 l 781 278 "},"‘":{"ha":372,"x_min":0,"x_max":0,"o":"m 93 618 l 275 983 l 411 983 l 250 618 "},"’":{"ha":372,"x_min":0,"x_max":0,"o":"m 93 618 l 254 983 l 411 983 l 229 618 "},"‚":{"ha":372,"x_min":0,"x_max":0,"o":"m -47 -176 l 114 189 l 272 189 l 89 -176 "},"“":{"ha":640,"x_min":0,"x_max":0,"o":"m 361 618 l 543 983 l 681 983 l 519 618 m 93 618 l 275 983 l 411 983 l 250 618 "},"”":{"ha":640,"x_min":0,"x_max":0,"o":"m 361 618 l 522 983 l 681 983 l 499 618 m 93 618 l 254 983 l 411 983 l 229 618 "},"„":{"ha":640,"x_min":0,"x_max":0,"o":"m 221 -176 l 382 189 l 540 189 l 358 -176 m -47 -176 l 114 189 l 272 189 l 89 -176 "},"†":{"ha":821,"x_min":0,"x_max":0,"o":"m 382 -175 l 226 -175 l 358 571 l 82 571 l 106 701 l 381 701 l 431 983 l 586 983 l 536 701 l 813 701 l 790 571 l 513 571 "},"‡":{"ha":821,"x_min":0,"x_max":0,"o":"m 382 -175 l 226 -175 l 272 83 l 6 83 l 28 215 l 296 215 l 363 594 l 96 594 l 118 726 l 385 726 l 431 983 l 586 983 l 540 726 l 808 726 l 786 594 l 517 594 l 450 215 l 718 215 l 696 83 l 428 83 "},"•":{"ha":694,"x_min":0,"x_max":0,"o":"m 101 492 b 121 588 101 526 108 558 b 174 665 134 617 151 643 b 251 718 196 688 222 705 b 347 738 281 731 313 738 b 443 718 381 738 413 731 b 521 665 473 705 499 688 b 574 588 543 643 561 617 b 593 492 587 558 593 526 b 574 396 593 457 587 425 b 521 318 561 366 543 340 b 443 265 499 296 473 278 b 347 246 413 252 381 246 b 251 265 313 246 281 252 b 174 318 222 278 196 296 b 121 396 151 340 134 366 b 101 492 108 425 101 457 "}}}
